<svg width="220" height="150" viewBox="0 0 220 150" fill="none" xmlns="http://www.w3.org/2000/svg">
<path d="M23.3624 20.0148L23.2781 19.7585C23.0804 19.1689 22.4285 18.5537 21.8279 18.3888L19.6106 17.7827C19.01 17.6198 18.153 17.8395 17.7118 18.2808L16.9098 19.0828C13.9948 18.2936 11.7078 16.0066 10.9204 13.0916L11.7224 12.2896C12.1619 11.8501 12.3816 10.9932 12.2187 10.3908L11.6143 8.17336C11.4514 7.57278 10.8325 6.92092 10.2429 6.72317L9.99017 6.63891C9.39873 6.44116 8.55463 6.64073 8.11517 7.08206L6.914 8.28323C6.69978 8.49563 6.56244 9.10723 6.56244 9.10723C6.52213 12.9195 8.01633 16.5908 10.7116 19.2879C13.3996 21.9759 17.0581 23.4683 20.8575 23.4352C20.8777 23.4352 21.5057 23.3016 21.7199 23.0873L22.9211 21.8861C23.3606 21.4485 23.5583 20.6044 23.3624 20.0148Z" fill="#E81212"/>
<path d="M44.208 16.472C44.0907 16.472 43.9947 16.4347 43.92 16.36C43.8453 16.2853 43.808 16.1893 43.808 16.072V13.144H40.96C40.8427 13.144 40.7413 13.1067 40.656 13.032C40.5813 12.9573 40.544 12.8613 40.544 12.744V11.576C40.544 11.4587 40.5813 11.3627 40.656 11.288C40.7413 11.2133 40.8427 11.176 40.96 11.176H43.808V8.328C43.808 8.21067 43.8453 8.11467 43.92 8.04C43.9947 7.96533 44.0907 7.928 44.208 7.928H45.52C45.6267 7.928 45.7173 7.96533 45.792 8.04C45.8773 8.11467 45.92 8.21067 45.92 8.328V11.176H48.752C48.8693 11.176 48.9653 11.2133 49.04 11.288C49.1147 11.3627 49.152 11.4587 49.152 11.576V12.744C49.152 12.8613 49.1147 12.9573 49.04 13.032C48.9653 13.1067 48.8693 13.144 48.752 13.144H45.92V16.072C45.92 16.1893 45.8773 16.2853 45.792 16.36C45.7173 16.4347 45.6267 16.472 45.52 16.472H44.208ZM54.8406 17.16C54.0086 17.16 53.2993 17.064 52.7126 16.872C52.126 16.6693 51.646 16.4133 51.2726 16.104C50.8993 15.784 50.622 15.448 50.4406 15.096C50.2593 14.7333 50.1633 14.3867 50.1526 14.056C50.1526 13.96 50.1846 13.88 50.2486 13.816C50.3233 13.752 50.4086 13.72 50.5046 13.72H52.5846C52.7126 13.72 52.814 13.7467 52.8886 13.8C52.9633 13.8427 53.0326 13.9173 53.0966 14.024C53.182 14.2267 53.3046 14.392 53.4646 14.52C53.6353 14.648 53.838 14.7387 54.0726 14.792C54.3073 14.8347 54.5633 14.856 54.8406 14.856C55.3846 14.856 55.806 14.7333 56.1046 14.488C56.414 14.232 56.5686 13.8853 56.5686 13.448C56.5686 12.9893 56.4246 12.664 56.1366 12.472C55.8486 12.2693 55.438 12.168 54.9046 12.168H53.1286C53.0113 12.168 52.9153 12.1307 52.8406 12.056C52.766 11.9813 52.7286 11.8853 52.7286 11.768V10.872C52.7286 10.744 52.7553 10.632 52.8086 10.536C52.862 10.44 52.9206 10.3707 52.9846 10.328L55.6086 8.104H51.1606C51.054 8.104 50.958 8.06667 50.8726 7.992C50.798 7.91733 50.7606 7.82133 50.7606 7.704V6.2C50.7606 6.08267 50.798 5.98667 50.8726 5.912C50.958 5.83733 51.054 5.8 51.1606 5.8H58.5206C58.638 5.8 58.734 5.83733 58.8086 5.912C58.894 5.98667 58.9366 6.08267 58.9366 6.2V7.56C58.9366 7.67733 58.91 7.784 58.8566 7.88C58.8033 7.96533 58.7446 8.03467 58.6806 8.088L56.2486 10.344L56.3606 10.376C56.9686 10.4507 57.5126 10.616 57.9926 10.872C58.4726 11.1173 58.8513 11.464 59.1286 11.912C59.406 12.36 59.5446 12.9307 59.5446 13.624C59.5446 14.3493 59.3366 14.9787 58.9206 15.512C58.5153 16.0347 57.9606 16.44 57.2566 16.728C56.5526 17.016 55.7473 17.16 54.8406 17.16ZM62.4435 17C62.3475 17 62.2675 16.968 62.2035 16.904C62.1395 16.8293 62.1075 16.744 62.1075 16.648C62.1075 16.6053 62.1182 16.5573 62.1395 16.504L65.8355 8.216H61.0355C60.9288 8.216 60.8328 8.17867 60.7475 8.104C60.6728 8.01867 60.6355 7.91733 60.6355 7.8V6.2C60.6355 6.08267 60.6728 5.98667 60.7475 5.912C60.8328 5.83733 60.9288 5.8 61.0355 5.8H68.5235C68.6515 5.8 68.7528 5.83733 68.8275 5.912C68.9022 5.98667 68.9395 6.08267 68.9395 6.2V7.624C68.9395 7.784 68.9235 7.91733 68.8915 8.024C68.8595 8.13067 68.8168 8.23733 68.7635 8.344L65.0675 16.616C65.0355 16.68 64.9768 16.76 64.8915 16.856C64.8062 16.952 64.6782 17 64.5075 17H62.4435ZM74.4794 17.176C73.4767 17.176 72.6394 17.0213 71.9674 16.712C71.2954 16.392 70.7834 15.9813 70.4314 15.48C70.09 14.968 69.9087 14.4187 69.8874 13.832C69.8874 13.736 69.9194 13.656 69.9834 13.592C70.0474 13.528 70.1274 13.496 70.2234 13.496H72.3674C72.506 13.496 72.6127 13.528 72.6874 13.592C72.7727 13.6453 72.8367 13.7147 72.8794 13.8C72.9754 14.0453 73.098 14.248 73.2474 14.408C73.4074 14.568 73.5887 14.6853 73.7914 14.76C74.0047 14.8347 74.2394 14.872 74.4954 14.872C74.794 14.872 75.0714 14.808 75.3274 14.68C75.5834 14.552 75.786 14.3653 75.9354 14.12C76.0954 13.864 76.1754 13.56 76.1754 13.208C76.1754 12.888 76.1007 12.6107 75.9514 12.376C75.8127 12.1413 75.6154 11.9547 75.3594 11.816C75.1034 11.6773 74.8154 11.608 74.4954 11.608C74.2394 11.608 74.0314 11.64 73.8714 11.704C73.7114 11.7573 73.578 11.8267 73.4714 11.912C73.3647 11.9973 73.2687 12.072 73.1834 12.136C73.098 12.1893 73.002 12.216 72.8954 12.216H70.7994C70.7034 12.216 70.618 12.184 70.5434 12.12C70.4794 12.0453 70.4474 11.96 70.4474 11.864L71.0234 6.28C71.0447 6.12 71.1034 6.00267 71.1994 5.928C71.2954 5.84267 71.4127 5.8 71.5514 5.8H77.9674C78.0847 5.8 78.1807 5.83733 78.2554 5.912C78.33 5.98667 78.3674 6.08267 78.3674 6.2V7.704C78.3674 7.82133 78.33 7.91733 78.2554 7.992C78.1807 8.06667 78.0847 8.104 77.9674 8.104H73.3274L73.1194 10.184C73.354 10.024 73.626 9.896 73.9354 9.8C74.2554 9.69333 74.6874 9.64 75.2314 9.64C75.7434 9.64 76.2287 9.72533 76.6874 9.896C77.1567 10.0667 77.5727 10.312 77.9354 10.632C78.3087 10.952 78.5967 11.336 78.7994 11.784C79.0127 12.2213 79.1194 12.7173 79.1194 13.272C79.1194 14.0293 78.9327 14.7013 78.5594 15.288C78.1967 15.8747 77.6687 16.3387 76.9754 16.68C76.282 17.0107 75.45 17.176 74.4794 17.176ZM88.4854 19.544C87.7494 19.544 87.088 19.4 86.5014 19.112C85.9254 18.8347 85.4347 18.3973 85.0294 17.8C84.624 17.2027 84.3147 16.4293 84.1014 15.48C83.888 14.5307 83.7814 13.3893 83.7814 12.056C83.7814 10.7227 83.888 9.58133 84.1014 8.632C84.3147 7.68267 84.624 6.91467 85.0294 6.328C85.4347 5.73067 85.9254 5.29333 86.5014 5.016C87.088 4.728 87.7494 4.584 88.4854 4.584C88.592 4.584 88.6827 4.62667 88.7574 4.712C88.8427 4.78667 88.8854 4.87733 88.8854 4.984V6.344C88.8854 6.45067 88.8427 6.54133 88.7574 6.616C88.6827 6.69067 88.5974 6.73333 88.5014 6.744C88.064 6.76533 87.696 6.89867 87.3974 7.144C87.1094 7.38933 86.88 7.736 86.7094 8.184C86.5494 8.632 86.432 9.18133 86.3574 9.832C86.2827 10.4827 86.2454 11.224 86.2454 12.056C86.2454 12.888 86.2827 13.6293 86.3574 14.28C86.432 14.9307 86.5494 15.4853 86.7094 15.944C86.88 16.392 87.1094 16.7387 87.3974 16.984C87.696 17.2293 88.064 17.3627 88.5014 17.384C88.5974 17.3947 88.6827 17.4373 88.7574 17.512C88.8427 17.5867 88.8854 17.6773 88.8854 17.784V19.144C88.8854 19.2507 88.8427 19.3413 88.7574 19.416C88.6827 19.5013 88.592 19.544 88.4854 19.544ZM90.2126 17C90.0953 17 89.994 16.9627 89.9086 16.888C89.834 16.8133 89.7966 16.7173 89.7966 16.6V15.464C89.7966 15.3893 89.818 15.2773 89.8606 15.128C89.9033 14.968 90.0153 14.8187 90.1966 14.68L91.8606 13.048C92.714 12.3973 93.4126 11.848 93.9566 11.4C94.5113 10.9413 94.922 10.536 95.1886 10.184C95.4553 9.832 95.5886 9.50133 95.5886 9.192C95.5886 8.82933 95.4926 8.53067 95.3006 8.296C95.1193 8.05067 94.7993 7.928 94.3406 7.928C94.0313 7.928 93.77 7.99733 93.5566 8.136C93.354 8.264 93.1993 8.43467 93.0926 8.648C92.986 8.86133 92.9113 9.08 92.8686 9.304C92.826 9.44267 92.7513 9.53867 92.6446 9.592C92.5486 9.64533 92.442 9.672 92.3246 9.672H90.3246C90.2286 9.672 90.1486 9.64 90.0846 9.576C90.0206 9.512 89.9886 9.432 89.9886 9.336C89.9993 8.824 90.106 8.344 90.3086 7.896C90.522 7.448 90.8153 7.05333 91.1886 6.712C91.5726 6.36 92.026 6.088 92.5486 5.896C93.082 5.704 93.6793 5.608 94.3406 5.608C95.2473 5.608 96.0153 5.752 96.6446 6.04C97.2846 6.328 97.77 6.73333 98.1006 7.256C98.4313 7.768 98.5966 8.37067 98.5966 9.064C98.5966 9.58667 98.4793 10.0773 98.2446 10.536C98.0206 10.984 97.6953 11.416 97.2686 11.832C96.8526 12.2373 96.3566 12.6587 95.7806 13.096L94.3086 14.584H98.4206C98.538 14.584 98.634 14.6213 98.7086 14.696C98.794 14.7707 98.8366 14.8667 98.8366 14.984V16.6C98.8366 16.7173 98.794 16.8133 98.7086 16.888C98.634 16.9627 98.538 17 98.4206 17H90.2126ZM102.331 17C102.235 17 102.155 16.968 102.091 16.904C102.027 16.8293 101.995 16.744 101.995 16.648C101.995 16.5947 102 16.552 102.011 16.52C102.032 16.488 102.048 16.4613 102.059 16.44L104.315 13.352C104.166 13.384 104.011 13.4 103.851 13.4C103.371 13.368 102.902 13.2613 102.443 13.08C101.984 12.888 101.568 12.632 101.195 12.312C100.832 11.9813 100.544 11.592 100.331 11.144C100.118 10.696 100.011 10.1947 100.011 9.64C100.011 9.128 100.107 8.63733 100.299 8.168C100.491 7.688 100.779 7.26133 101.163 6.888C101.547 6.504 102.022 6.2 102.587 5.976C103.163 5.752 103.83 5.64 104.587 5.64C105.344 5.64 106.011 5.74133 106.587 5.944C107.174 6.14667 107.664 6.42933 108.059 6.792C108.464 7.144 108.768 7.55467 108.971 8.024C109.174 8.49333 109.275 8.99467 109.275 9.528C109.275 10.0187 109.184 10.472 109.003 10.888C108.832 11.304 108.619 11.6987 108.363 12.072C108.107 12.4347 107.851 12.8027 107.595 13.176L105.035 16.68C104.992 16.7333 104.928 16.8027 104.843 16.888C104.758 16.9627 104.63 17 104.459 17H102.331ZM104.619 11.304C104.939 11.304 105.227 11.2347 105.483 11.096C105.739 10.9573 105.942 10.7653 106.091 10.52C106.24 10.2747 106.315 9.976 106.315 9.624C106.315 9.272 106.24 8.97333 106.091 8.728C105.942 8.472 105.739 8.28 105.483 8.152C105.227 8.01333 104.939 7.944 104.619 7.944C104.31 7.944 104.027 8.01333 103.771 8.152C103.515 8.28 103.312 8.472 103.163 8.728C103.014 8.97333 102.939 9.272 102.939 9.624C102.939 9.976 103.014 10.2747 103.163 10.52C103.312 10.7653 103.515 10.9573 103.771 11.096C104.027 11.2347 104.31 11.304 104.619 11.304ZM110.362 19.544C110.255 19.544 110.159 19.5013 110.074 19.416C109.999 19.3413 109.962 19.2507 109.962 19.144V17.784C109.962 17.6773 109.999 17.5867 110.074 17.512C110.159 17.4373 110.25 17.3947 110.346 17.384C110.783 17.3627 111.146 17.2293 111.434 16.984C111.732 16.7387 111.962 16.392 112.122 15.944C112.292 15.4853 112.415 14.9307 112.49 14.28C112.564 13.6293 112.602 12.888 112.602 12.056C112.602 11.224 112.564 10.4827 112.49 9.832C112.415 9.18133 112.292 8.632 112.122 8.184C111.962 7.736 111.732 7.38933 111.434 7.144C111.146 6.89867 110.783 6.76533 110.346 6.744C110.25 6.73333 110.159 6.69067 110.074 6.616C109.999 6.54133 109.962 6.45067 109.962 6.344V4.984C109.962 4.87733 109.999 4.78667 110.074 4.712C110.159 4.62667 110.255 4.584 110.362 4.584C111.098 4.584 111.754 4.728 112.33 5.016C112.916 5.29333 113.412 5.73067 113.818 6.328C114.223 6.91467 114.532 7.68267 114.746 8.632C114.959 9.58133 115.066 10.7227 115.066 12.056C115.066 13.3893 114.959 14.5307 114.746 15.48C114.532 16.4293 114.223 17.2027 113.818 17.8C113.412 18.3973 112.916 18.8347 112.33 19.112C111.754 19.4 111.098 19.544 110.362 19.544ZM123.573 17C123.466 17 123.37 16.9627 123.285 16.888C123.21 16.8133 123.173 16.7173 123.173 16.6V8.984L120.981 10.664C120.885 10.7387 120.783 10.7653 120.677 10.744C120.581 10.7227 120.495 10.664 120.421 10.568L119.477 9.336C119.413 9.24 119.386 9.13867 119.397 9.032C119.418 8.91467 119.482 8.824 119.589 8.76L123.269 5.912C123.333 5.86933 123.391 5.84267 123.445 5.832C123.509 5.81067 123.578 5.8 123.653 5.8H125.653C125.759 5.8 125.85 5.83733 125.925 5.912C126.01 5.98667 126.053 6.08267 126.053 6.2V16.6C126.053 16.7173 126.01 16.8133 125.925 16.888C125.85 16.9627 125.759 17 125.653 17H123.573ZM133.318 17C133.211 17 133.115 16.9627 133.03 16.888C132.955 16.8133 132.918 16.7173 132.918 16.6V14.792H127.942C127.835 14.792 127.739 14.7547 127.654 14.68C127.579 14.6053 127.542 14.5093 127.542 14.392V12.872C127.542 12.776 127.558 12.6907 127.59 12.616C127.632 12.5307 127.675 12.4507 127.718 12.376L132.374 6.072C132.512 5.89067 132.71 5.8 132.966 5.8H135.286C135.403 5.8 135.499 5.83733 135.574 5.912C135.659 5.98667 135.702 6.08267 135.702 6.2V12.408H137.11C137.238 12.408 137.339 12.4507 137.414 12.536C137.488 12.6107 137.526 12.7013 137.526 12.808V14.392C137.526 14.5093 137.483 14.6053 137.398 14.68C137.323 14.7547 137.232 14.792 137.126 14.792H135.702V16.6C135.702 16.7173 135.659 16.8133 135.574 16.888C135.499 16.9627 135.403 17 135.286 17H133.318ZM130.294 12.52H132.982V8.744L130.294 12.52ZM144.224 17C144.117 17 144.021 16.9627 143.936 16.888C143.861 16.8133 143.824 16.7173 143.824 16.6V14.792H138.848C138.741 14.792 138.645 14.7547 138.56 14.68C138.485 14.6053 138.448 14.5093 138.448 14.392V12.872C138.448 12.776 138.464 12.6907 138.496 12.616C138.539 12.5307 138.581 12.4507 138.624 12.376L143.28 6.072C143.419 5.89067 143.616 5.8 143.872 5.8H146.192C146.309 5.8 146.405 5.83733 146.48 5.912C146.565 5.98667 146.608 6.08267 146.608 6.2V12.408H148.016C148.144 12.408 148.245 12.4507 148.32 12.536C148.395 12.6107 148.432 12.7013 148.432 12.808V14.392C148.432 14.5093 148.389 14.6053 148.304 14.68C148.229 14.7547 148.139 14.792 148.032 14.792H146.608V16.6C146.608 16.7173 146.565 16.8133 146.48 16.888C146.405 16.9627 146.309 17 146.192 17H144.224ZM141.2 12.52H143.888V8.744L141.2 12.52ZM150.218 13.352C150.101 13.352 150.005 13.3147 149.93 13.24C149.856 13.1653 149.818 13.0693 149.818 12.952V11.448C149.818 11.3307 149.856 11.2347 149.93 11.16C150.005 11.0853 150.101 11.048 150.218 11.048H155.226C155.344 11.048 155.44 11.0853 155.514 11.16C155.589 11.2347 155.626 11.3307 155.626 11.448V12.952C155.626 13.0693 155.589 13.1653 155.514 13.24C155.44 13.3147 155.344 13.352 155.226 13.352H150.218ZM157.181 17C157.064 17 156.963 16.9627 156.877 16.888C156.803 16.8133 156.765 16.7173 156.765 16.6V15.464C156.765 15.3893 156.787 15.2773 156.829 15.128C156.872 14.968 156.984 14.8187 157.165 14.68L158.829 13.048C159.683 12.3973 160.381 11.848 160.925 11.4C161.48 10.9413 161.891 10.536 162.157 10.184C162.424 9.832 162.557 9.50133 162.557 9.192C162.557 8.82933 162.461 8.53067 162.269 8.296C162.088 8.05067 161.768 7.928 161.309 7.928C161 7.928 160.739 7.99733 160.525 8.136C160.323 8.264 160.168 8.43467 160.061 8.648C159.955 8.86133 159.88 9.08 159.837 9.304C159.795 9.44267 159.72 9.53867 159.613 9.592C159.517 9.64533 159.411 9.672 159.293 9.672H157.293C157.197 9.672 157.117 9.64 157.053 9.576C156.989 9.512 156.957 9.432 156.957 9.336C156.968 8.824 157.075 8.344 157.277 7.896C157.491 7.448 157.784 7.05333 158.157 6.712C158.541 6.36 158.995 6.088 159.517 5.896C160.051 5.704 160.648 5.608 161.309 5.608C162.216 5.608 162.984 5.752 163.613 6.04C164.253 6.328 164.739 6.73333 165.069 7.256C165.4 7.768 165.565 8.37067 165.565 9.064C165.565 9.58667 165.448 10.0773 165.213 10.536C164.989 10.984 164.664 11.416 164.237 11.832C163.821 12.2373 163.325 12.6587 162.749 13.096L161.277 14.584H165.389C165.507 14.584 165.603 14.6213 165.677 14.696C165.763 14.7707 165.805 14.8667 165.805 14.984V16.6C165.805 16.7173 165.763 16.8133 165.677 16.888C165.603 16.9627 165.507 17 165.389 17H157.181ZM172.677 17C172.57 17 172.474 16.9627 172.389 16.888C172.314 16.8133 172.277 16.7173 172.277 16.6V14.792H167.301C167.194 14.792 167.098 14.7547 167.013 14.68C166.938 14.6053 166.901 14.5093 166.901 14.392V12.872C166.901 12.776 166.917 12.6907 166.949 12.616C166.992 12.5307 167.034 12.4507 167.077 12.376L171.733 6.072C171.872 5.89067 172.069 5.8 172.325 5.8H174.645C174.762 5.8 174.858 5.83733 174.933 5.912C175.018 5.98667 175.061 6.08267 175.061 6.2V12.408H176.469C176.597 12.408 176.698 12.4507 176.773 12.536C176.848 12.6107 176.885 12.7013 176.885 12.808V14.392C176.885 14.5093 176.842 14.6053 176.757 14.68C176.682 14.7547 176.592 14.792 176.485 14.792H175.061V16.6C175.061 16.7173 175.018 16.8133 174.933 16.888C174.858 16.9627 174.762 17 174.645 17H172.677ZM169.653 12.52H172.341V8.744L169.653 12.52ZM178.671 13.352C178.554 13.352 178.458 13.3147 178.383 13.24C178.309 13.1653 178.271 13.0693 178.271 12.952V11.448C178.271 11.3307 178.309 11.2347 178.383 11.16C178.458 11.0853 178.554 11.048 178.671 11.048H183.679C183.797 11.048 183.893 11.0853 183.967 11.16C184.042 11.2347 184.079 11.3307 184.079 11.448V12.952C184.079 13.0693 184.042 13.1653 183.967 13.24C183.893 13.3147 183.797 13.352 183.679 13.352H178.671ZM190.028 17.16C189.196 17.16 188.487 17.064 187.9 16.872C187.313 16.6693 186.833 16.4133 186.46 16.104C186.087 15.784 185.809 15.448 185.628 15.096C185.447 14.7333 185.351 14.3867 185.34 14.056C185.34 13.96 185.372 13.88 185.436 13.816C185.511 13.752 185.596 13.72 185.692 13.72H187.772C187.9 13.72 188.001 13.7467 188.076 13.8C188.151 13.8427 188.22 13.9173 188.284 14.024C188.369 14.2267 188.492 14.392 188.652 14.52C188.823 14.648 189.025 14.7387 189.26 14.792C189.495 14.8347 189.751 14.856 190.028 14.856C190.572 14.856 190.993 14.7333 191.292 14.488C191.601 14.232 191.756 13.8853 191.756 13.448C191.756 12.9893 191.612 12.664 191.324 12.472C191.036 12.2693 190.625 12.168 190.092 12.168H188.316C188.199 12.168 188.103 12.1307 188.028 12.056C187.953 11.9813 187.916 11.8853 187.916 11.768V10.872C187.916 10.744 187.943 10.632 187.996 10.536C188.049 10.44 188.108 10.3707 188.172 10.328L190.796 8.104H186.348C186.241 8.104 186.145 8.06667 186.06 7.992C185.985 7.91733 185.948 7.82133 185.948 7.704V6.2C185.948 6.08267 185.985 5.98667 186.06 5.912C186.145 5.83733 186.241 5.8 186.348 5.8H193.708C193.825 5.8 193.921 5.83733 193.996 5.912C194.081 5.98667 194.124 6.08267 194.124 6.2V7.56C194.124 7.67733 194.097 7.784 194.044 7.88C193.991 7.96533 193.932 8.03467 193.868 8.088L191.436 10.344L191.548 10.376C192.156 10.4507 192.7 10.616 193.18 10.872C193.66 11.1173 194.039 11.464 194.316 11.912C194.593 12.36 194.732 12.9307 194.732 13.624C194.732 14.3493 194.524 14.9787 194.108 15.512C193.703 16.0347 193.148 16.44 192.444 16.728C191.74 17.016 190.935 17.16 190.028 17.16ZM201.599 17C201.492 17 201.396 16.9627 201.311 16.888C201.236 16.8133 201.199 16.7173 201.199 16.6V14.792H196.223C196.116 14.792 196.02 14.7547 195.935 14.68C195.86 14.6053 195.823 14.5093 195.823 14.392V12.872C195.823 12.776 195.839 12.6907 195.871 12.616C195.914 12.5307 195.956 12.4507 195.999 12.376L200.655 6.072C200.794 5.89067 200.991 5.8 201.247 5.8H203.567C203.684 5.8 203.78 5.83733 203.855 5.912C203.94 5.98667 203.983 6.08267 203.983 6.2V12.408H205.391C205.519 12.408 205.62 12.4507 205.695 12.536C205.77 12.6107 205.807 12.7013 205.807 12.808V14.392C205.807 14.5093 205.764 14.6053 205.679 14.68C205.604 14.7547 205.514 14.792 205.407 14.792H203.983V16.6C203.983 16.7173 203.94 16.8133 203.855 16.888C203.78 16.9627 203.684 17 203.567 17H201.599ZM198.575 12.52H201.263V8.744L198.575 12.52Z" fill="#443E3E"/>
<path d="M40 18.2H206.287V19H40V18.2Z" fill="#443E3E"/>
<path d="M43.934 44.14C42.9727 44.14 42.2073 43.846 41.638 43.258C41.0687 42.6607 40.756 41.8487 40.7 40.822C40.6907 40.7007 40.686 40.5467 40.686 40.36C40.686 40.164 40.6907 40.0053 40.7 39.884C40.7373 39.2213 40.8913 38.6427 41.162 38.148C41.4327 37.644 41.8013 37.2567 42.268 36.986C42.744 36.7153 43.2993 36.58 43.934 36.58C44.6433 36.58 45.236 36.7293 45.712 37.028C46.1973 37.3267 46.566 37.7513 46.818 38.302C47.07 38.8527 47.196 39.4967 47.196 40.234V40.472C47.196 40.5747 47.1633 40.654 47.098 40.71C47.042 40.766 46.9673 40.794 46.874 40.794H42.03C42.03 40.8033 42.03 40.822 42.03 40.85C42.03 40.878 42.03 40.9013 42.03 40.92C42.0487 41.3027 42.1327 41.662 42.282 41.998C42.4313 42.3247 42.646 42.5907 42.926 42.796C43.206 43.0013 43.542 43.104 43.934 43.104C44.27 43.104 44.55 43.0527 44.774 42.95C44.998 42.8473 45.18 42.7353 45.32 42.614C45.46 42.4833 45.5533 42.3853 45.6 42.32C45.684 42.1987 45.7493 42.1287 45.796 42.11C45.8427 42.082 45.9173 42.068 46.02 42.068H46.692C46.7853 42.068 46.86 42.096 46.916 42.152C46.9813 42.1987 47.0093 42.2687 47 42.362C46.9907 42.502 46.916 42.6747 46.776 42.88C46.636 43.076 46.4353 43.272 46.174 43.468C45.9127 43.664 45.5953 43.8273 45.222 43.958C44.8487 44.0793 44.4193 44.14 43.934 44.14ZM42.03 39.828H45.866V39.786C45.866 39.366 45.7867 38.9927 45.628 38.666C45.4787 38.3393 45.2593 38.0827 44.97 37.896C44.6807 37.7 44.3353 37.602 43.934 37.602C43.5327 37.602 43.1873 37.7 42.898 37.896C42.618 38.0827 42.4033 38.3393 42.254 38.666C42.1047 38.9927 42.03 39.366 42.03 39.786V39.828ZM48.436 44C48.352 44 48.282 43.9813 48.226 43.944C48.1793 43.9067 48.156 43.8507 48.156 43.776C48.156 43.7293 48.1793 43.6687 48.226 43.594L50.62 40.192L48.506 37.112C48.4873 37.084 48.4733 37.056 48.464 37.028C48.4547 36.9907 48.45 36.9627 48.45 36.944C48.45 36.8693 48.4733 36.8133 48.52 36.776C48.576 36.7387 48.646 36.72 48.73 36.72H49.458C49.5513 36.72 49.626 36.7387 49.682 36.776C49.738 36.8133 49.7893 36.8647 49.836 36.93L51.726 39.73H52.79V37.042C52.79 36.9487 52.818 36.874 52.874 36.818C52.9393 36.7527 53.0187 36.72 53.112 36.72H53.756C53.8587 36.72 53.938 36.7527 53.994 36.818C54.05 36.874 54.078 36.9487 54.078 37.042V39.73H55.1L57.018 36.93C57.0553 36.8647 57.102 36.8133 57.158 36.776C57.2233 36.7387 57.298 36.72 57.382 36.72H58.124C58.208 36.72 58.2733 36.7387 58.32 36.776C58.376 36.8133 58.404 36.8693 58.404 36.944C58.404 36.9627 58.3947 36.9907 58.376 37.028C58.3667 37.056 58.3527 37.084 58.334 37.112L56.234 40.192L58.628 43.594C58.6653 43.65 58.684 43.7107 58.684 43.776C58.684 43.8507 58.6607 43.9067 58.614 43.944C58.5673 43.9813 58.4973 44 58.404 44H57.564C57.4707 44 57.3913 43.9813 57.326 43.944C57.27 43.9067 57.2233 43.8553 57.186 43.79L55.142 40.85H54.078V43.678C54.078 43.7713 54.05 43.8507 53.994 43.916C53.938 43.972 53.8587 44 53.756 44H53.112C53.0187 44 52.9393 43.972 52.874 43.916C52.818 43.8507 52.79 43.7713 52.79 43.678V40.85H51.726L49.654 43.79C49.626 43.8553 49.5793 43.9067 49.514 43.944C49.458 43.9813 49.3833 44 49.29 44H48.436ZM62.9379 44.14C61.9766 44.14 61.2112 43.846 60.6419 43.258C60.0726 42.6607 59.7599 41.8487 59.7039 40.822C59.6946 40.7007 59.6899 40.5467 59.6899 40.36C59.6899 40.164 59.6946 40.0053 59.7039 39.884C59.7412 39.2213 59.8952 38.6427 60.1659 38.148C60.4366 37.644 60.8052 37.2567 61.2719 36.986C61.7479 36.7153 62.3032 36.58 62.9379 36.58C63.6472 36.58 64.2399 36.7293 64.7159 37.028C65.2012 37.3267 65.5699 37.7513 65.8219 38.302C66.0739 38.8527 66.1999 39.4967 66.1999 40.234V40.472C66.1999 40.5747 66.1672 40.654 66.1019 40.71C66.0459 40.766 65.9712 40.794 65.8779 40.794H61.0339C61.0339 40.8033 61.0339 40.822 61.0339 40.85C61.0339 40.878 61.0339 40.9013 61.0339 40.92C61.0526 41.3027 61.1366 41.662 61.2859 41.998C61.4352 42.3247 61.6499 42.5907 61.9299 42.796C62.2099 43.0013 62.5459 43.104 62.9379 43.104C63.2739 43.104 63.5539 43.0527 63.7779 42.95C64.0019 42.8473 64.1839 42.7353 64.3239 42.614C64.4639 42.4833 64.5572 42.3853 64.6039 42.32C64.6879 42.1987 64.7532 42.1287 64.7999 42.11C64.8466 42.082 64.9212 42.068 65.0239 42.068H65.6959C65.7892 42.068 65.8639 42.096 65.9199 42.152C65.9852 42.1987 66.0132 42.2687 66.0039 42.362C65.9946 42.502 65.9199 42.6747 65.7799 42.88C65.6399 43.076 65.4392 43.272 65.1779 43.468C64.9166 43.664 64.5992 43.8273 64.2259 43.958C63.8526 44.0793 63.4232 44.14 62.9379 44.14ZM61.0339 39.828H64.8699V39.786C64.8699 39.366 64.7906 38.9927 64.6319 38.666C64.4826 38.3393 64.2632 38.0827 63.9739 37.896C63.6846 37.7 63.3392 37.602 62.9379 37.602C62.5366 37.602 62.1912 37.7 61.9019 37.896C61.6219 38.0827 61.4072 38.3393 61.2579 38.666C61.1086 38.9927 61.0339 39.366 61.0339 39.786V39.828ZM67.4539 45.54C67.3606 45.54 67.2812 45.5073 67.2159 45.442C67.1599 45.386 67.1319 45.3113 67.1319 45.218V43.202C67.1319 43.1087 67.1599 43.034 67.2159 42.978C67.2812 42.9127 67.3606 42.88 67.4539 42.88H67.5239C67.7759 42.8707 67.9906 42.7307 68.1679 42.46C68.3452 42.18 68.4806 41.746 68.5739 41.158C68.6672 40.5607 68.7139 39.786 68.7139 38.834V37.042C68.7139 36.9487 68.7419 36.874 68.7979 36.818C68.8632 36.7527 68.9426 36.72 69.0359 36.72H73.5019C73.5952 36.72 73.6699 36.7527 73.7259 36.818C73.7912 36.874 73.8239 36.9487 73.8239 37.042V42.852H74.4819C74.5846 42.852 74.6639 42.8847 74.7199 42.95C74.7759 43.006 74.8039 43.0807 74.8039 43.174V45.218C74.8039 45.3113 74.7759 45.386 74.7199 45.442C74.6639 45.5073 74.5846 45.54 74.4819 45.54H73.8239C73.7306 45.54 73.6512 45.5073 73.5859 45.442C73.5299 45.386 73.5019 45.3113 73.5019 45.218V44H68.4339V45.218C68.4339 45.3113 68.4012 45.386 68.3359 45.442C68.2799 45.5073 68.2052 45.54 68.1119 45.54H67.4539ZM69.1899 42.88L72.5219 42.852V37.84H69.9879V38.988C69.9879 39.9773 69.9179 40.7893 69.7779 41.424C69.6379 42.0493 69.4419 42.5347 69.1899 42.88ZM76.5904 44C76.4971 44 76.4178 43.972 76.3524 43.916C76.2964 43.8507 76.2684 43.7713 76.2684 43.678V37.042C76.2684 36.9487 76.2964 36.874 76.3524 36.818C76.4178 36.7527 76.4971 36.72 76.5904 36.72H77.2624C77.3558 36.72 77.4304 36.7527 77.4864 36.818C77.5424 36.874 77.5704 36.9487 77.5704 37.042V39.73H81.3924V37.042C81.3924 36.9487 81.4204 36.874 81.4764 36.818C81.5418 36.7527 81.6211 36.72 81.7144 36.72H82.3724C82.4658 36.72 82.5404 36.7527 82.5964 36.818C82.6618 36.874 82.6944 36.9487 82.6944 37.042V43.678C82.6944 43.7713 82.6618 43.8507 82.5964 43.916C82.5404 43.972 82.4658 44 82.3724 44H81.7144C81.6211 44 81.5418 43.972 81.4764 43.916C81.4204 43.8507 81.3924 43.7713 81.3924 43.678V40.85H77.5704V43.678C77.5704 43.7713 77.5424 43.8507 77.4864 43.916C77.4304 43.972 77.3558 44 77.2624 44H76.5904ZM87.6977 44.14C86.7363 44.14 85.971 43.846 85.4017 43.258C84.8323 42.6607 84.5197 41.8487 84.4637 40.822C84.4543 40.7007 84.4497 40.5467 84.4497 40.36C84.4497 40.164 84.4543 40.0053 84.4637 39.884C84.501 39.2213 84.655 38.6427 84.9257 38.148C85.1963 37.644 85.565 37.2567 86.0317 36.986C86.5077 36.7153 87.063 36.58 87.6977 36.58C88.407 36.58 88.9997 36.7293 89.4757 37.028C89.961 37.3267 90.3297 37.7513 90.5817 38.302C90.8337 38.8527 90.9597 39.4967 90.9597 40.234V40.472C90.9597 40.5747 90.927 40.654 90.8617 40.71C90.8057 40.766 90.731 40.794 90.6377 40.794H85.7937C85.7937 40.8033 85.7937 40.822 85.7937 40.85C85.7937 40.878 85.7937 40.9013 85.7937 40.92C85.8123 41.3027 85.8963 41.662 86.0457 41.998C86.195 42.3247 86.4097 42.5907 86.6897 42.796C86.9697 43.0013 87.3057 43.104 87.6977 43.104C88.0337 43.104 88.3137 43.0527 88.5377 42.95C88.7617 42.8473 88.9437 42.7353 89.0837 42.614C89.2237 42.4833 89.317 42.3853 89.3637 42.32C89.4477 42.1987 89.513 42.1287 89.5597 42.11C89.6063 42.082 89.681 42.068 89.7837 42.068H90.4557C90.549 42.068 90.6237 42.096 90.6797 42.152C90.745 42.1987 90.773 42.2687 90.7637 42.362C90.7543 42.502 90.6797 42.6747 90.5397 42.88C90.3997 43.076 90.199 43.272 89.9377 43.468C89.6763 43.664 89.359 43.8273 88.9857 43.958C88.6123 44.0793 88.183 44.14 87.6977 44.14ZM85.7937 39.828H89.6297V39.786C89.6297 39.366 89.5503 38.9927 89.3917 38.666C89.2423 38.3393 89.023 38.0827 88.7337 37.896C88.4443 37.7 88.099 37.602 87.6977 37.602C87.2963 37.602 86.951 37.7 86.6617 37.896C86.3817 38.0827 86.167 38.3393 86.0177 38.666C85.8683 38.9927 85.7937 39.366 85.7937 39.786V39.828ZM92.9557 44C92.8623 44 92.783 43.972 92.7177 43.916C92.6617 43.8507 92.6337 43.7713 92.6337 43.678V37.042C92.6337 36.9487 92.6617 36.874 92.7177 36.818C92.783 36.7527 92.8623 36.72 92.9557 36.72H95.8677C96.745 36.72 97.403 36.8973 97.8417 37.252C98.2897 37.6067 98.5137 38.0827 98.5137 38.68C98.5137 39.1 98.4343 39.4173 98.2757 39.632C98.117 39.8467 97.893 40.0287 97.6037 40.178C97.9583 40.3273 98.2243 40.57 98.4017 40.906C98.5883 41.2327 98.6817 41.5733 98.6817 41.928C98.6817 42.6 98.4437 43.1133 97.9677 43.468C97.4917 43.8227 96.829 44 95.9797 44H92.9557ZM93.9217 42.978H95.8677C96.3157 42.978 96.675 42.894 96.9457 42.726C97.2257 42.5487 97.3657 42.2827 97.3657 41.928C97.3657 41.5547 97.2397 41.284 96.9877 41.116C96.7357 40.9387 96.3623 40.85 95.8677 40.85H93.9217V42.978ZM93.9217 39.814H95.7837C96.2317 39.814 96.5863 39.716 96.8477 39.52C97.1183 39.324 97.2537 39.0487 97.2537 38.694C97.2537 38.33 97.1183 38.0827 96.8477 37.952C96.5863 37.812 96.2317 37.742 95.7837 37.742H93.9217V39.814ZM100.803 44C100.71 44 100.631 43.972 100.565 43.916C100.509 43.8507 100.481 43.7713 100.481 43.678V37.042C100.481 36.9487 100.509 36.874 100.565 36.818C100.631 36.7527 100.71 36.72 100.803 36.72H101.475C101.569 36.72 101.643 36.7527 101.699 36.818C101.755 36.874 101.783 36.9487 101.783 37.042V39.73H105.605V37.042C105.605 36.9487 105.633 36.874 105.689 36.818C105.755 36.7527 105.834 36.72 105.927 36.72H106.585C106.679 36.72 106.753 36.7527 106.809 36.818C106.875 36.874 106.907 36.9487 106.907 37.042V43.678C106.907 43.7713 106.875 43.8507 106.809 43.916C106.753 43.972 106.679 44 106.585 44H105.927C105.834 44 105.755 43.972 105.689 43.916C105.633 43.8507 105.605 43.7713 105.605 43.678V40.85H101.783V43.678C101.783 43.7713 101.755 43.8507 101.699 43.916C101.643 43.972 101.569 44 101.475 44H100.803ZM111.995 44.14C111.285 44.14 110.693 44.0047 110.217 43.734C109.741 43.4633 109.377 43.09 109.125 42.614C108.873 42.1287 108.733 41.578 108.705 40.962C108.695 40.8033 108.691 40.6027 108.691 40.36C108.691 40.108 108.695 39.9073 108.705 39.758C108.733 39.1327 108.873 38.582 109.125 38.106C109.386 37.63 109.755 37.2567 110.231 36.986C110.707 36.7153 111.295 36.58 111.995 36.58C112.695 36.58 113.283 36.7153 113.759 36.986C114.235 37.2567 114.599 37.63 114.851 38.106C115.112 38.582 115.257 39.1327 115.285 39.758C115.294 39.9073 115.299 40.108 115.299 40.36C115.299 40.6027 115.294 40.8033 115.285 40.962C115.257 41.578 115.117 42.1287 114.865 42.614C114.613 43.09 114.249 43.4633 113.773 43.734C113.297 44.0047 112.704 44.14 111.995 44.14ZM111.995 43.062C112.573 43.062 113.035 42.88 113.381 42.516C113.726 42.1427 113.913 41.6013 113.941 40.892C113.95 40.752 113.955 40.5747 113.955 40.36C113.955 40.1453 113.95 39.968 113.941 39.828C113.913 39.1187 113.726 38.582 113.381 38.218C113.035 37.8447 112.573 37.658 111.995 37.658C111.416 37.658 110.949 37.8447 110.595 38.218C110.249 38.582 110.067 39.1187 110.049 39.828C110.039 39.968 110.035 40.1453 110.035 40.36C110.035 40.5747 110.039 40.752 110.049 40.892C110.067 41.6013 110.249 42.1427 110.595 42.516C110.949 42.88 111.416 43.062 111.995 43.062ZM123.423 44.14C122.761 44.14 122.187 44.014 121.701 43.762C121.225 43.5007 120.857 43.132 120.595 42.656C120.334 42.1707 120.194 41.592 120.175 40.92C120.166 40.78 120.161 40.5933 120.161 40.36C120.161 40.1267 120.166 39.94 120.175 39.8C120.194 39.128 120.334 38.554 120.595 38.078C120.857 37.5927 121.225 37.224 121.701 36.972C122.187 36.7107 122.761 36.58 123.423 36.58C123.965 36.58 124.427 36.6547 124.809 36.804C125.201 36.9533 125.523 37.1447 125.775 37.378C126.027 37.6113 126.214 37.8633 126.335 38.134C126.466 38.4047 126.536 38.6613 126.545 38.904C126.555 38.9973 126.527 39.072 126.461 39.128C126.396 39.184 126.317 39.212 126.223 39.212H125.551C125.458 39.212 125.388 39.1933 125.341 39.156C125.295 39.1093 125.248 39.0347 125.201 38.932C125.033 38.4747 124.805 38.1527 124.515 37.966C124.226 37.7793 123.867 37.686 123.437 37.686C122.877 37.686 122.42 37.8587 122.065 38.204C121.72 38.5493 121.533 39.1047 121.505 39.87C121.496 40.206 121.496 40.5327 121.505 40.85C121.533 41.6247 121.72 42.1847 122.065 42.53C122.42 42.866 122.877 43.034 123.437 43.034C123.867 43.034 124.226 42.9407 124.515 42.754C124.805 42.5673 125.033 42.2453 125.201 41.788C125.248 41.6853 125.295 41.6153 125.341 41.578C125.388 41.5313 125.458 41.508 125.551 41.508H126.223C126.317 41.508 126.396 41.536 126.461 41.592C126.527 41.648 126.555 41.7227 126.545 41.816C126.536 42.012 126.494 42.2127 126.419 42.418C126.345 42.6233 126.223 42.8333 126.055 43.048C125.897 43.2533 125.696 43.44 125.453 43.608C125.211 43.7667 124.917 43.8973 124.571 44C124.235 44.0933 123.853 44.14 123.423 44.14ZM133.306 44C133.222 44 133.152 43.972 133.096 43.916C133.049 43.8507 133.026 43.776 133.026 43.692C133.026 43.6453 133.03 43.608 133.04 43.58C133.058 43.552 133.072 43.5287 133.082 43.51L135.224 40.528C134.99 40.584 134.738 40.612 134.468 40.612C133.945 40.6027 133.478 40.5093 133.068 40.332C132.657 40.1547 132.307 39.9167 132.018 39.618C131.728 39.31 131.509 38.9647 131.36 38.582C131.21 38.1993 131.136 37.798 131.136 37.378C131.136 36.9673 131.206 36.566 131.346 36.174C131.495 35.782 131.714 35.4273 132.004 35.11C132.302 34.7927 132.671 34.5407 133.11 34.354C133.548 34.158 134.066 34.06 134.664 34.06C135.252 34.06 135.765 34.1533 136.204 34.34C136.652 34.5173 137.025 34.7647 137.324 35.082C137.632 35.39 137.856 35.74 137.996 36.132C138.145 36.524 138.22 36.93 138.22 37.35C138.22 37.7327 138.164 38.0827 138.052 38.4C137.94 38.7173 137.804 39.002 137.646 39.254C137.496 39.506 137.347 39.7393 137.198 39.954L134.51 43.72C134.472 43.7667 134.421 43.8273 134.356 43.902C134.29 43.9673 134.192 44 134.062 44H133.306ZM134.664 39.478C135.056 39.478 135.415 39.394 135.742 39.226C136.078 39.0487 136.344 38.806 136.54 38.498C136.736 38.1807 136.834 37.8027 136.834 37.364C136.834 36.9253 136.736 36.552 136.54 36.244C136.344 35.9267 136.078 35.684 135.742 35.516C135.415 35.3387 135.056 35.25 134.664 35.25C134.281 35.25 133.926 35.3387 133.6 35.516C133.273 35.684 133.012 35.9267 132.816 36.244C132.62 36.552 132.522 36.9253 132.522 37.364C132.522 37.8027 132.62 38.1807 132.816 38.498C133.012 38.806 133.273 39.0487 133.6 39.226C133.926 39.394 134.281 39.478 134.664 39.478ZM140.19 39.1C140.097 39.1 140.018 39.072 139.952 39.016C139.896 38.9507 139.868 38.8713 139.868 38.778V37.798C139.868 37.7047 139.896 37.63 139.952 37.574C140.018 37.5087 140.097 37.476 140.19 37.476H141.184C141.287 37.476 141.366 37.5087 141.422 37.574C141.488 37.63 141.52 37.7047 141.52 37.798V38.778C141.52 38.8713 141.488 38.9507 141.422 39.016C141.366 39.072 141.287 39.1 141.184 39.1H140.19ZM140.19 44C140.097 44 140.018 43.972 139.952 43.916C139.896 43.8507 139.868 43.7713 139.868 43.678V42.698C139.868 42.6047 139.896 42.53 139.952 42.474C140.018 42.4087 140.097 42.376 140.19 42.376H141.184C141.287 42.376 141.366 42.4087 141.422 42.474C141.488 42.53 141.52 42.6047 141.52 42.698V43.678C141.52 43.7713 141.488 43.8507 141.422 43.916C141.366 43.972 141.287 44 141.184 44H140.19ZM146.922 44.14C146.278 44.14 145.732 44.042 145.284 43.846C144.846 43.6407 144.486 43.3607 144.206 43.006C143.926 42.6513 143.721 42.2453 143.59 41.788C143.469 41.3307 143.399 40.8453 143.38 40.332C143.371 40.08 143.362 39.814 143.352 39.534C143.352 39.254 143.352 38.974 143.352 38.694C143.362 38.4047 143.371 38.1293 143.38 37.868C143.39 37.3547 143.46 36.8693 143.59 36.412C143.73 35.9453 143.936 35.5393 144.206 35.194C144.486 34.8393 144.85 34.564 145.298 34.368C145.746 34.1627 146.288 34.06 146.922 34.06C147.566 34.06 148.108 34.1627 148.546 34.368C148.994 34.564 149.358 34.8393 149.638 35.194C149.918 35.5393 150.124 35.9453 150.254 36.412C150.394 36.8693 150.469 37.3547 150.478 37.868C150.488 38.1293 150.492 38.4047 150.492 38.694C150.502 38.974 150.502 39.254 150.492 39.534C150.492 39.814 150.488 40.08 150.478 40.332C150.469 40.8453 150.394 41.3307 150.254 41.788C150.124 42.2453 149.918 42.6513 149.638 43.006C149.368 43.3607 149.008 43.6407 148.56 43.846C148.122 44.042 147.576 44.14 146.922 44.14ZM146.922 42.95C147.65 42.95 148.187 42.712 148.532 42.236C148.887 41.7507 149.069 41.0927 149.078 40.262C149.097 39.9913 149.106 39.73 149.106 39.478C149.106 39.2167 149.106 38.96 149.106 38.708C149.106 38.4467 149.097 38.19 149.078 37.938C149.069 37.126 148.887 36.4773 148.532 35.992C148.187 35.4973 147.65 35.25 146.922 35.25C146.204 35.25 145.667 35.4973 145.312 35.992C144.967 36.4773 144.785 37.126 144.766 37.938C144.766 38.19 144.762 38.4467 144.752 38.708C144.752 38.96 144.752 39.2167 144.752 39.478C144.762 39.73 144.766 39.9913 144.766 40.262C144.785 41.0927 144.972 41.7507 145.326 42.236C145.681 42.712 146.213 42.95 146.922 42.95ZM155.809 44.14C155.165 44.14 154.619 44.042 154.171 43.846C153.732 43.6407 153.373 43.3607 153.093 43.006C152.813 42.6513 152.608 42.2453 152.477 41.788C152.356 41.3307 152.286 40.8453 152.267 40.332C152.258 40.08 152.248 39.814 152.239 39.534C152.239 39.254 152.239 38.974 152.239 38.694C152.248 38.4047 152.258 38.1293 152.267 37.868C152.276 37.3547 152.346 36.8693 152.477 36.412C152.617 35.9453 152.822 35.5393 153.093 35.194C153.373 34.8393 153.737 34.564 154.185 34.368C154.633 34.1627 155.174 34.06 155.809 34.06C156.453 34.06 156.994 34.1627 157.433 34.368C157.881 34.564 158.245 34.8393 158.525 35.194C158.805 35.5393 159.01 35.9453 159.141 36.412C159.281 36.8693 159.356 37.3547 159.365 37.868C159.374 38.1293 159.379 38.4047 159.379 38.694C159.388 38.974 159.388 39.254 159.379 39.534C159.379 39.814 159.374 40.08 159.365 40.332C159.356 40.8453 159.281 41.3307 159.141 41.788C159.01 42.2453 158.805 42.6513 158.525 43.006C158.254 43.3607 157.895 43.6407 157.447 43.846C157.008 44.042 156.462 44.14 155.809 44.14ZM155.809 42.95C156.537 42.95 157.074 42.712 157.419 42.236C157.774 41.7507 157.956 41.0927 157.965 40.262C157.984 39.9913 157.993 39.73 157.993 39.478C157.993 39.2167 157.993 38.96 157.993 38.708C157.993 38.4467 157.984 38.19 157.965 37.938C157.956 37.126 157.774 36.4773 157.419 35.992C157.074 35.4973 156.537 35.25 155.809 35.25C155.09 35.25 154.554 35.4973 154.199 35.992C153.854 36.4773 153.672 37.126 153.653 37.938C153.653 38.19 153.648 38.4467 153.639 38.708C153.639 38.96 153.639 39.2167 153.639 39.478C153.648 39.73 153.653 39.9913 153.653 40.262C153.672 41.0927 153.858 41.7507 154.213 42.236C154.568 42.712 155.1 42.95 155.809 42.95ZM164.305 45.54C164.212 45.54 164.133 45.5073 164.067 45.442C164.011 45.386 163.983 45.3113 163.983 45.218V43.202C163.983 43.1087 164.011 43.034 164.067 42.978C164.133 42.9127 164.212 42.88 164.305 42.88H164.375C164.627 42.8707 164.842 42.7307 165.019 42.46C165.197 42.18 165.332 41.746 165.425 41.158C165.519 40.5607 165.565 39.786 165.565 38.834V37.042C165.565 36.9487 165.593 36.874 165.649 36.818C165.715 36.7527 165.794 36.72 165.887 36.72H170.353C170.447 36.72 170.521 36.7527 170.577 36.818C170.643 36.874 170.675 36.9487 170.675 37.042V42.852H171.333C171.436 42.852 171.515 42.8847 171.571 42.95C171.627 43.006 171.655 43.0807 171.655 43.174V45.218C171.655 45.3113 171.627 45.386 171.571 45.442C171.515 45.5073 171.436 45.54 171.333 45.54H170.675C170.582 45.54 170.503 45.5073 170.437 45.442C170.381 45.386 170.353 45.3113 170.353 45.218V44H165.285V45.218C165.285 45.3113 165.253 45.386 165.187 45.442C165.131 45.5073 165.057 45.54 164.963 45.54H164.305ZM166.041 42.88L169.373 42.852V37.84H166.839V38.988C166.839 39.9773 166.769 40.7893 166.629 41.424C166.489 42.0493 166.293 42.5347 166.041 42.88ZM176.102 44.14C175.393 44.14 174.8 44.0047 174.324 43.734C173.848 43.4633 173.484 43.09 173.232 42.614C172.98 42.1287 172.84 41.578 172.812 40.962C172.803 40.8033 172.798 40.6027 172.798 40.36C172.798 40.108 172.803 39.9073 172.812 39.758C172.84 39.1327 172.98 38.582 173.232 38.106C173.493 37.63 173.862 37.2567 174.338 36.986C174.814 36.7153 175.402 36.58 176.102 36.58C176.802 36.58 177.39 36.7153 177.866 36.986C178.342 37.2567 178.706 37.63 178.958 38.106C179.219 38.582 179.364 39.1327 179.392 39.758C179.401 39.9073 179.406 40.108 179.406 40.36C179.406 40.6027 179.401 40.8033 179.392 40.962C179.364 41.578 179.224 42.1287 178.972 42.614C178.72 43.09 178.356 43.4633 177.88 43.734C177.404 44.0047 176.811 44.14 176.102 44.14ZM176.102 43.062C176.681 43.062 177.143 42.88 177.488 42.516C177.833 42.1427 178.02 41.6013 178.048 40.892C178.057 40.752 178.062 40.5747 178.062 40.36C178.062 40.1453 178.057 39.968 178.048 39.828C178.02 39.1187 177.833 38.582 177.488 38.218C177.143 37.8447 176.681 37.658 176.102 37.658C175.523 37.658 175.057 37.8447 174.702 38.218C174.357 38.582 174.175 39.1187 174.156 39.828C174.147 39.968 174.142 40.1453 174.142 40.36C174.142 40.5747 174.147 40.752 174.156 40.892C174.175 41.6013 174.357 42.1427 174.702 42.516C175.057 42.88 175.523 43.062 176.102 43.062ZM187.419 44C187.325 44 187.246 43.972 187.181 43.916C187.125 43.8507 187.097 43.7713 187.097 43.678V35.838L184.773 37.63C184.698 37.686 184.619 37.7093 184.535 37.7C184.451 37.6907 184.381 37.6487 184.325 37.574L183.961 37.112C183.905 37.028 183.881 36.944 183.891 36.86C183.909 36.776 183.956 36.706 184.031 36.65L187.083 34.298C187.148 34.2513 187.209 34.2233 187.265 34.214C187.321 34.2047 187.381 34.2 187.447 34.2H188.161C188.254 34.2 188.329 34.2327 188.385 34.298C188.441 34.354 188.469 34.4287 188.469 34.522V43.678C188.469 43.7713 188.441 43.8507 188.385 43.916C188.329 43.972 188.254 44 188.161 44H187.419ZM192.245 44C192.161 44 192.091 43.972 192.035 43.916C191.988 43.8507 191.965 43.776 191.965 43.692C191.965 43.6453 191.97 43.608 191.979 43.58C191.998 43.552 192.012 43.5287 192.021 43.51L194.163 40.528C193.93 40.584 193.678 40.612 193.407 40.612C192.884 40.6027 192.418 40.5093 192.007 40.332C191.596 40.1547 191.246 39.9167 190.957 39.618C190.668 39.31 190.448 38.9647 190.299 38.582C190.15 38.1993 190.075 37.798 190.075 37.378C190.075 36.9673 190.145 36.566 190.285 36.174C190.434 35.782 190.654 35.4273 190.943 35.11C191.242 34.7927 191.61 34.5407 192.049 34.354C192.488 34.158 193.006 34.06 193.603 34.06C194.191 34.06 194.704 34.1533 195.143 34.34C195.591 34.5173 195.964 34.7647 196.263 35.082C196.571 35.39 196.795 35.74 196.935 36.132C197.084 36.524 197.159 36.93 197.159 37.35C197.159 37.7327 197.103 38.0827 196.991 38.4C196.879 38.7173 196.744 39.002 196.585 39.254C196.436 39.506 196.286 39.7393 196.137 39.954L193.449 43.72C193.412 43.7667 193.36 43.8273 193.295 43.902C193.23 43.9673 193.132 44 193.001 44H192.245ZM193.603 39.478C193.995 39.478 194.354 39.394 194.681 39.226C195.017 39.0487 195.283 38.806 195.479 38.498C195.675 38.1807 195.773 37.8027 195.773 37.364C195.773 36.9253 195.675 36.552 195.479 36.244C195.283 35.9267 195.017 35.684 194.681 35.516C194.354 35.3387 193.995 35.25 193.603 35.25C193.22 35.25 192.866 35.3387 192.539 35.516C192.212 35.684 191.951 35.9267 191.755 36.244C191.559 36.552 191.461 36.9253 191.461 37.364C191.461 37.8027 191.559 38.1807 191.755 38.498C191.951 38.806 192.212 39.0487 192.539 39.226C192.866 39.394 193.22 39.478 193.603 39.478ZM199.13 39.1C199.036 39.1 198.957 39.072 198.892 39.016C198.836 38.9507 198.808 38.8713 198.808 38.778V37.798C198.808 37.7047 198.836 37.63 198.892 37.574C198.957 37.5087 199.036 37.476 199.13 37.476H200.124C200.226 37.476 200.306 37.5087 200.362 37.574C200.427 37.63 200.46 37.7047 200.46 37.798V38.778C200.46 38.8713 200.427 38.9507 200.362 39.016C200.306 39.072 200.226 39.1 200.124 39.1H199.13ZM199.13 44C199.036 44 198.957 43.972 198.892 43.916C198.836 43.8507 198.808 43.7713 198.808 43.678V42.698C198.808 42.6047 198.836 42.53 198.892 42.474C198.957 42.4087 199.036 42.376 199.13 42.376H200.124C200.226 42.376 200.306 42.4087 200.362 42.474C200.427 42.53 200.46 42.6047 200.46 42.698V43.678C200.46 43.7713 200.427 43.8507 200.362 43.916C200.306 43.972 200.226 44 200.124 44H199.13ZM205.862 44.14C205.218 44.14 204.672 44.042 204.224 43.846C203.785 43.6407 203.426 43.3607 203.146 43.006C202.866 42.6513 202.66 42.2453 202.53 41.788C202.408 41.3307 202.338 40.8453 202.32 40.332C202.31 40.08 202.301 39.814 202.292 39.534C202.292 39.254 202.292 38.974 202.292 38.694C202.301 38.4047 202.31 38.1293 202.32 37.868C202.329 37.3547 202.399 36.8693 202.53 36.412C202.67 35.9453 202.875 35.5393 203.146 35.194C203.426 34.8393 203.79 34.564 204.238 34.368C204.686 34.1627 205.227 34.06 205.862 34.06C206.506 34.06 207.047 34.1627 207.486 34.368C207.934 34.564 208.298 34.8393 208.578 35.194C208.858 35.5393 209.063 35.9453 209.194 36.412C209.334 36.8693 209.408 37.3547 209.418 37.868C209.427 38.1293 209.432 38.4047 209.432 38.694C209.441 38.974 209.441 39.254 209.432 39.534C209.432 39.814 209.427 40.08 209.418 40.332C209.408 40.8453 209.334 41.3307 209.194 41.788C209.063 42.2453 208.858 42.6513 208.578 43.006C208.307 43.3607 207.948 43.6407 207.5 43.846C207.061 44.042 206.515 44.14 205.862 44.14ZM205.862 42.95C206.59 42.95 207.126 42.712 207.472 42.236C207.826 41.7507 208.008 41.0927 208.018 40.262C208.036 39.9913 208.046 39.73 208.046 39.478C208.046 39.2167 208.046 38.96 208.046 38.708C208.046 38.4467 208.036 38.19 208.018 37.938C208.008 37.126 207.826 36.4773 207.472 35.992C207.126 35.4973 206.59 35.25 205.862 35.25C205.143 35.25 204.606 35.4973 204.252 35.992C203.906 36.4773 203.724 37.126 203.706 37.938C203.706 38.19 203.701 38.4467 203.692 38.708C203.692 38.96 203.692 39.2167 203.692 39.478C203.701 39.73 203.706 39.9913 203.706 40.262C203.724 41.0927 203.911 41.7507 204.266 42.236C204.62 42.712 205.152 42.95 205.862 42.95ZM214.749 44.14C214.105 44.14 213.559 44.042 213.111 43.846C212.672 43.6407 212.313 43.3607 212.033 43.006C211.753 42.6513 211.547 42.2453 211.417 41.788C211.295 41.3307 211.225 40.8453 211.207 40.332C211.197 40.08 211.188 39.814 211.179 39.534C211.179 39.254 211.179 38.974 211.179 38.694C211.188 38.4047 211.197 38.1293 211.207 37.868C211.216 37.3547 211.286 36.8693 211.417 36.412C211.557 35.9453 211.762 35.5393 212.033 35.194C212.313 34.8393 212.677 34.564 213.125 34.368C213.573 34.1627 214.114 34.06 214.749 34.06C215.393 34.06 215.934 34.1627 216.373 34.368C216.821 34.564 217.185 34.8393 217.465 35.194C217.745 35.5393 217.95 35.9453 218.081 36.412C218.221 36.8693 218.295 37.3547 218.305 37.868C218.314 38.1293 218.319 38.4047 218.319 38.694C218.328 38.974 218.328 39.254 218.319 39.534C218.319 39.814 218.314 40.08 218.305 40.332C218.295 40.8453 218.221 41.3307 218.081 41.788C217.95 42.2453 217.745 42.6513 217.465 43.006C217.194 43.3607 216.835 43.6407 216.387 43.846C215.948 44.042 215.402 44.14 214.749 44.14ZM214.749 42.95C215.477 42.95 216.013 42.712 216.359 42.236C216.713 41.7507 216.895 41.0927 216.905 40.262C216.923 39.9913 216.933 39.73 216.933 39.478C216.933 39.2167 216.933 38.96 216.933 38.708C216.933 38.4467 216.923 38.19 216.905 37.938C216.895 37.126 216.713 36.4773 216.359 35.992C216.013 35.4973 215.477 35.25 214.749 35.25C214.03 35.25 213.493 35.4973 213.139 35.992C212.793 36.4773 212.611 37.126 212.593 37.938C212.593 38.19 212.588 38.4467 212.579 38.708C212.579 38.96 212.579 39.2167 212.579 39.478C212.588 39.73 212.593 39.9913 212.593 40.262C212.611 41.0927 212.798 41.7507 213.153 42.236C213.507 42.712 214.039 42.95 214.749 42.95Z" fill="#646469"/>
<path d="M7.96826 78.3979C7.5752 78.5107 7.31885 78.668 6.98389 78.9995C6.71387 79.2661 6.64893 79.3516 6.51562 79.6318C6.43018 79.8096 6.35156 80.001 6.34131 80.0591L6.3208 80.1616L10.6309 82.9985C13.0029 84.5571 14.9683 85.8354 14.999 85.832C15.0298 85.832 16.9951 84.5571 19.3706 82.9985L23.6875 80.1684L23.667 80.0625C23.6533 80.0044 23.5747 79.8096 23.4893 79.6318C23.356 79.3516 23.291 79.2661 23.021 78.9995C22.7852 78.7637 22.6484 78.6611 22.4536 78.5654C21.9443 78.3159 22.5391 78.333 14.9854 78.3364C8.5459 78.3364 8.17334 78.3398 7.96826 78.3979Z" fill="#E81212"/>
<path d="M6.25244 85.45C6.25244 89.4251 6.25586 89.6062 6.3208 89.8489C6.35498 89.9856 6.39941 90.1155 6.4165 90.1326C6.43359 90.1497 7.61621 89.2234 9.42773 87.7639C11.8135 85.843 12.3979 85.3543 12.3638 85.3201C12.3091 85.2722 6.29346 81.3074 6.26953 81.3074C6.25928 81.3074 6.25244 83.1736 6.25244 85.45Z" fill="#E81212"/>
<path d="M20.6694 83.3169C18.9844 84.4209 17.6035 85.3335 17.6035 85.3438C17.6001 85.3745 23.52 90.1426 23.561 90.1426C23.5781 90.1426 23.626 90.0571 23.6636 89.9546C23.7354 89.77 23.7354 89.7222 23.7456 86.2461C23.749 84.3081 23.749 82.4077 23.7456 82.0181L23.7354 81.3105L20.6694 83.3169Z" fill="#E81212"/>
<path d="M10.1318 88.4544C8.40231 89.849 6.98385 90.9974 6.98043 91.0111C6.96676 91.0521 7.38375 91.3563 7.59567 91.4554C8.06734 91.6776 7.54098 91.6639 15.0092 91.6639C21.7597 91.6639 21.7905 91.6639 22.0434 91.5921C22.1836 91.5545 22.3852 91.4759 22.4912 91.4212C22.686 91.3153 23.0312 91.035 23.0005 91.0042C22.9868 90.994 16.8686 86.0653 16.7285 85.9525C16.7046 85.9354 16.4516 86.0858 16.0962 86.3216C15.768 86.5404 15.4296 86.7489 15.3476 86.7865C15.1665 86.8651 14.8281 86.8719 14.6538 86.8001C14.5888 86.7728 14.2539 86.5643 13.9155 86.3353C13.5737 86.1097 13.29 85.9217 13.2866 85.9217C13.2797 85.9217 11.8613 87.0633 10.1318 88.4544Z" fill="#E81212"/>
<path d="M44.784 90.16C43.5253 90.16 42.5227 89.8187 41.776 89.136C41.0293 88.4533 40.64 87.44 40.608 86.096C40.608 86.0213 40.608 85.9253 40.608 85.808C40.608 85.6907 40.608 85.6 40.608 85.536C40.64 84.6933 40.8267 83.9733 41.168 83.376C41.52 82.768 42 82.3093 42.608 82C43.2267 81.68 43.9467 81.52 44.768 81.52C45.7067 81.52 46.48 81.7067 47.088 82.08C47.7067 82.4533 48.1707 82.96 48.48 83.6C48.7893 84.24 48.944 84.9707 48.944 85.792V86.176C48.944 86.2933 48.9013 86.3893 48.816 86.464C48.7413 86.5387 48.6507 86.576 48.544 86.576H43.424C43.424 86.5867 43.424 86.6027 43.424 86.624C43.424 86.6453 43.424 86.6667 43.424 86.688C43.4347 86.9973 43.488 87.28 43.584 87.536C43.68 87.792 43.8293 87.9947 44.032 88.144C44.2347 88.2933 44.48 88.368 44.768 88.368C44.9813 88.368 45.1573 88.336 45.296 88.272C45.4453 88.1973 45.568 88.1173 45.664 88.032C45.76 87.936 45.8347 87.856 45.888 87.792C45.984 87.6853 46.0587 87.6213 46.112 87.6C46.176 87.568 46.272 87.552 46.4 87.552H48.384C48.4907 87.552 48.576 87.584 48.64 87.648C48.7147 87.7013 48.7467 87.7813 48.736 87.888C48.7253 88.0693 48.6347 88.288 48.464 88.544C48.2933 88.8 48.0427 89.056 47.712 89.312C47.392 89.5573 46.9867 89.76 46.496 89.92C46.0053 90.08 45.4347 90.16 44.784 90.16ZM43.424 84.992H46.128V84.96C46.128 84.6187 46.0747 84.32 45.968 84.064C45.872 83.808 45.7173 83.6107 45.504 83.472C45.3013 83.3333 45.056 83.264 44.768 83.264C44.48 83.264 44.2347 83.3333 44.032 83.472C43.84 83.6107 43.6907 83.808 43.584 84.064C43.4773 84.32 43.424 84.6187 43.424 84.96V84.992ZM50.844 93.04C50.7267 93.04 50.6307 93.0027 50.556 92.928C50.4813 92.8533 50.444 92.7573 50.444 92.64V82.08C50.444 81.9627 50.4813 81.8667 50.556 81.792C50.6307 81.7173 50.7267 81.68 50.844 81.68H52.652C52.7587 81.68 52.8493 81.7173 52.924 81.792C53.0093 81.8667 53.052 81.9627 53.052 82.08V82.672C53.2973 82.3413 53.6227 82.0693 54.028 81.856C54.4333 81.632 54.9347 81.52 55.532 81.52C56.0653 81.52 56.5347 81.6053 56.94 81.776C57.3453 81.936 57.692 82.176 57.98 82.496C58.268 82.816 58.492 83.2053 58.652 83.664C58.8227 84.1227 58.9187 84.6507 58.94 85.248C58.9507 85.4613 58.956 85.6587 58.956 85.84C58.956 86.0213 58.9507 86.2187 58.94 86.432C58.9187 87.008 58.828 87.5253 58.668 87.984C58.508 88.4427 58.284 88.832 57.996 89.152C57.708 89.472 57.356 89.7227 56.94 89.904C56.5347 90.0747 56.0653 90.16 55.532 90.16C55.0093 90.16 54.5507 90.0693 54.156 89.888C53.772 89.696 53.452 89.4293 53.196 89.088V92.64C53.196 92.7573 53.1587 92.8533 53.084 92.928C53.0093 93.0027 52.9133 93.04 52.796 93.04H50.844ZM54.668 88.016C55.0307 88.016 55.3133 87.9413 55.516 87.792C55.7187 87.6427 55.8627 87.44 55.948 87.184C56.044 86.928 56.1027 86.6453 56.124 86.336C56.1453 86.0053 56.1453 85.6747 56.124 85.344C56.1027 85.0347 56.044 84.752 55.948 84.496C55.8627 84.24 55.7187 84.0373 55.516 83.888C55.3133 83.7387 55.0307 83.664 54.668 83.664C54.316 83.664 54.0333 83.744 53.82 83.904C53.6067 84.0533 53.452 84.2507 53.356 84.496C53.26 84.7413 53.2067 85.008 53.196 85.296C53.1853 85.4987 53.18 85.696 53.18 85.888C53.18 86.08 53.1853 86.2827 53.196 86.496C53.2067 86.7627 53.2653 87.0133 53.372 87.248C53.4787 87.472 53.6387 87.6587 53.852 87.808C54.0653 87.9467 54.3373 88.016 54.668 88.016ZM60.7953 90C60.6779 90 60.5819 89.9627 60.5073 89.888C60.4326 89.8133 60.3953 89.7173 60.3953 89.6V87.568C60.3953 87.4613 60.4326 87.3707 60.5073 87.296C60.5819 87.2107 60.6779 87.168 60.7953 87.168H62.8113C62.9286 87.168 63.0246 87.2107 63.0993 87.296C63.1846 87.3707 63.2273 87.4613 63.2273 87.568V89.6C63.2273 89.7173 63.1846 89.8133 63.0993 89.888C63.0246 89.9627 62.9286 90 62.8113 90H60.7953ZM65.4221 90C65.3048 90 65.2088 89.9627 65.1341 89.888C65.0595 89.8133 65.0221 89.7173 65.0221 89.6V82.08C65.0221 81.9627 65.0595 81.8667 65.1341 81.792C65.2088 81.7173 65.3048 81.68 65.4221 81.68H67.1661C67.2835 81.68 67.3795 81.7173 67.4541 81.792C67.5288 81.8667 67.5661 81.9627 67.5661 82.08V82.624C67.7795 82.336 68.0781 82.0853 68.4621 81.872C68.8461 81.648 69.2995 81.5307 69.8221 81.52C71.0488 81.4987 71.8915 81.9627 72.3501 82.912C72.5955 82.5067 72.9475 82.176 73.4061 81.92C73.8648 81.6533 74.3661 81.52 74.9101 81.52C75.4648 81.52 75.9608 81.648 76.3981 81.904C76.8461 82.1493 77.2035 82.5333 77.4701 83.056C77.7368 83.568 77.8701 84.2347 77.8701 85.056V89.6C77.8701 89.7173 77.8275 89.8133 77.7421 89.888C77.6675 89.9627 77.5768 90 77.4701 90H75.6141C75.4968 90 75.3955 89.9627 75.3101 89.888C75.2355 89.8133 75.1981 89.7173 75.1981 89.6V85.168C75.1981 84.7947 75.1448 84.5013 75.0381 84.288C74.9315 84.064 74.7875 83.904 74.6061 83.808C74.4248 83.712 74.2168 83.664 73.9821 83.664C73.7901 83.664 73.5981 83.712 73.4061 83.808C73.2248 83.904 73.0755 84.064 72.9581 84.288C72.8515 84.5013 72.7981 84.7947 72.7981 85.168V89.6C72.7981 89.7173 72.7608 89.8133 72.6861 89.888C72.6115 89.9627 72.5155 90 72.3981 90H70.5421C70.4248 90 70.3288 89.9627 70.2541 89.888C70.1795 89.8133 70.1421 89.7173 70.1421 89.6V85.168C70.1421 84.7947 70.0835 84.5013 69.9661 84.288C69.8488 84.064 69.6995 83.904 69.5181 83.808C69.3368 83.712 69.1341 83.664 68.9101 83.664C68.7181 83.664 68.5261 83.712 68.3341 83.808C68.1528 83.904 68.0035 84.064 67.8861 84.288C67.7795 84.5013 67.7261 84.7893 67.7261 85.152V89.6C67.7261 89.7173 67.6835 89.8133 67.5981 89.888C67.5235 89.9627 67.4275 90 67.3101 90H65.4221ZM83.5988 90.16C82.7028 90.16 81.9454 90.016 81.3268 89.728C80.7188 89.44 80.2494 89.0293 79.9188 88.496C79.5988 87.952 79.4174 87.3067 79.3748 86.56C79.3641 86.3467 79.3588 86.1067 79.3588 85.84C79.3588 85.5627 79.3641 85.3227 79.3748 85.12C79.4174 84.3627 79.6094 83.7173 79.9508 83.184C80.2921 82.6507 80.7668 82.24 81.3748 81.952C81.9934 81.664 82.7348 81.52 83.5988 81.52C84.4734 81.52 85.2148 81.664 85.8228 81.952C86.4414 82.24 86.9214 82.6507 87.2628 83.184C87.6041 83.7173 87.7961 84.3627 87.8388 85.12C87.8494 85.3227 87.8548 85.5627 87.8548 85.84C87.8548 86.1067 87.8494 86.3467 87.8388 86.56C87.7961 87.3067 87.6094 87.952 87.2788 88.496C86.9588 89.0293 86.4894 89.44 85.8708 89.728C85.2628 90.016 84.5054 90.16 83.5988 90.16ZM83.5988 88.208C84.0788 88.208 84.4254 88.064 84.6388 87.776C84.8628 87.488 84.9908 87.056 85.0228 86.48C85.0334 86.32 85.0388 86.1067 85.0388 85.84C85.0388 85.5733 85.0334 85.36 85.0228 85.2C84.9908 84.6347 84.8628 84.208 84.6388 83.92C84.4254 83.6213 84.0788 83.472 83.5988 83.472C83.1294 83.472 82.7828 83.6213 82.5588 83.92C82.3348 84.208 82.2121 84.6347 82.1908 85.2C82.1801 85.36 82.1748 85.5733 82.1748 85.84C82.1748 86.1067 82.1801 86.32 82.1908 86.48C82.2121 87.056 82.3348 87.488 82.5588 87.776C82.7828 88.064 83.1294 88.208 83.5988 88.208ZM93.5084 93.52C92.687 93.52 92.0044 93.4133 91.4604 93.2C90.927 92.9867 90.5004 92.7307 90.1804 92.432C89.871 92.1333 89.647 91.8347 89.5084 91.536C89.3697 91.248 89.295 91.0187 89.2844 90.848C89.2737 90.7307 89.311 90.6347 89.3964 90.56C89.4817 90.4853 89.583 90.448 89.7004 90.448H91.7324C91.8284 90.448 91.9084 90.4693 91.9724 90.512C92.047 90.5653 92.1057 90.6507 92.1484 90.768C92.2017 90.8853 92.271 91.008 92.3564 91.136C92.4524 91.264 92.5804 91.3653 92.7404 91.44C92.911 91.5253 93.1404 91.568 93.4284 91.568C93.7484 91.568 94.015 91.5147 94.2284 91.408C94.4417 91.312 94.6017 91.1467 94.7084 90.912C94.815 90.688 94.8684 90.384 94.8684 90V88.928C94.623 89.1947 94.3084 89.4133 93.9244 89.584C93.5404 89.744 93.0764 89.824 92.5324 89.824C91.9884 89.824 91.5084 89.744 91.0924 89.584C90.6764 89.424 90.3297 89.184 90.0524 88.864C89.775 88.544 89.5564 88.1547 89.3964 87.696C89.247 87.2373 89.1564 86.7093 89.1244 86.112C89.1137 85.8347 89.1137 85.5573 89.1244 85.28C89.1564 84.704 89.247 84.1867 89.3964 83.728C89.5457 83.2693 89.759 82.8747 90.0364 82.544C90.3244 82.2133 90.6764 81.9627 91.0924 81.792C91.5084 81.6107 91.9884 81.52 92.5324 81.52C93.1084 81.52 93.599 81.632 94.0044 81.856C94.4204 82.0693 94.7617 82.3413 95.0284 82.672V82.08C95.0284 81.9733 95.0657 81.8827 95.1404 81.808C95.215 81.7227 95.311 81.68 95.4284 81.68H97.2684C97.3857 81.68 97.4817 81.7227 97.5564 81.808C97.6417 81.8827 97.6844 81.9733 97.6844 82.08V89.776C97.6844 90.5867 97.519 91.2693 97.1884 91.824C96.8577 92.3787 96.383 92.8 95.7644 93.088C95.1457 93.376 94.3937 93.52 93.5084 93.52ZM93.3964 87.744C93.7377 87.744 94.015 87.6693 94.2284 87.52C94.4417 87.3707 94.5964 87.1787 94.6924 86.944C94.799 86.7093 94.8577 86.4587 94.8684 86.192C94.879 86.0747 94.8844 85.9093 94.8844 85.696C94.8844 85.4827 94.879 85.3227 94.8684 85.216C94.8577 84.9387 94.799 84.6827 94.6924 84.448C94.5964 84.2133 94.4417 84.0267 94.2284 83.888C94.015 83.7387 93.7377 83.664 93.3964 83.664C93.0444 83.664 92.7617 83.7387 92.5484 83.888C92.3457 84.0373 92.1964 84.24 92.1004 84.496C92.015 84.752 91.9617 85.0347 91.9404 85.344C91.9297 85.5787 91.9297 85.8187 91.9404 86.064C91.9617 86.3733 92.015 86.656 92.1004 86.912C92.1964 87.168 92.3457 87.3707 92.5484 87.52C92.7617 87.6693 93.0444 87.744 93.3964 87.744ZM105.489 92.08C104.188 92.08 103.1 91.8667 102.225 91.44C101.361 91.0133 100.7 90.416 100.241 89.648C99.793 88.88 99.521 88.0053 99.425 87.024C99.4143 86.8747 99.4037 86.6773 99.393 86.432C99.3823 86.1867 99.377 85.9253 99.377 85.648C99.377 85.3707 99.3823 85.1093 99.393 84.864C99.4037 84.6187 99.4143 84.4267 99.425 84.288C99.489 83.616 99.6543 82.976 99.921 82.368C100.198 81.7493 100.577 81.2053 101.057 80.736C101.548 80.256 102.14 79.8827 102.833 79.616C103.537 79.3387 104.353 79.2 105.281 79.2C106.39 79.2 107.324 79.328 108.081 79.584C108.838 79.8293 109.452 80.1813 109.921 80.64C110.401 81.0987 110.758 81.6427 110.993 82.272C111.228 82.8907 111.366 83.5627 111.409 84.288C111.43 84.512 111.441 84.752 111.441 85.008C111.441 85.264 111.436 85.5093 111.425 85.744C111.425 85.968 111.42 86.1547 111.409 86.304C111.377 86.8373 111.244 87.2853 111.009 87.648C110.785 88.0107 110.492 88.2827 110.129 88.464C109.777 88.6453 109.393 88.736 108.977 88.736C108.625 88.736 108.316 88.688 108.049 88.592C107.782 88.496 107.564 88.3893 107.393 88.272C107.233 88.144 107.105 88.0267 107.009 87.92C106.934 88.048 106.822 88.192 106.673 88.352C106.534 88.5013 106.326 88.6293 106.049 88.736C105.782 88.8427 105.414 88.896 104.945 88.896C104.156 88.896 103.532 88.6027 103.073 88.016C102.614 87.4293 102.385 86.6347 102.385 85.632C102.385 84.6187 102.604 83.8187 103.041 83.232C103.489 82.6453 104.108 82.352 104.897 82.352C105.324 82.352 105.66 82.4213 105.905 82.56C106.15 82.6987 106.353 82.8747 106.513 83.088V82.88C106.513 82.7627 106.55 82.6667 106.625 82.592C106.7 82.5173 106.796 82.48 106.913 82.48H107.729C107.846 82.48 107.942 82.5173 108.017 82.592C108.092 82.6667 108.129 82.7627 108.129 82.88V86.128C108.129 86.4693 108.204 86.7307 108.353 86.912C108.502 87.0933 108.71 87.184 108.977 87.184C109.19 87.184 109.356 87.1307 109.473 87.024C109.601 86.9067 109.686 86.768 109.729 86.608C109.782 86.4373 109.809 86.2773 109.809 86.128C109.809 85.8933 109.814 85.6267 109.825 85.328C109.836 85.0187 109.825 84.6987 109.793 84.368C109.75 83.5573 109.58 82.8853 109.281 82.352C108.982 81.808 108.513 81.408 107.873 81.152C107.233 80.8853 106.369 80.752 105.281 80.752C104.374 80.752 103.622 80.9067 103.025 81.216C102.438 81.5147 101.98 81.936 101.649 82.48C101.329 83.024 101.126 83.6533 101.041 84.368C101.02 84.5493 101.004 84.8053 100.993 85.136C100.993 85.4667 100.993 85.8027 100.993 86.144C101.004 86.4747 101.02 86.7413 101.041 86.944C101.169 88.0747 101.59 88.9547 102.305 89.584C103.02 90.2133 104.081 90.528 105.489 90.528C106.15 90.528 106.678 90.4853 107.073 90.4C107.478 90.3253 107.798 90.2187 108.033 90.08C108.278 89.952 108.497 89.8187 108.689 89.68C108.774 89.616 108.849 89.5627 108.913 89.52C108.988 89.4773 109.078 89.456 109.185 89.456H110.321C110.428 89.456 110.518 89.4933 110.593 89.568C110.678 89.6427 110.716 89.744 110.705 89.872C110.705 89.9147 110.694 89.9573 110.673 90C110.662 90.032 110.641 90.064 110.609 90.096C110.31 90.4373 109.932 90.7573 109.473 91.056C109.025 91.3653 108.47 91.6107 107.809 91.792C107.158 91.984 106.385 92.08 105.489 92.08ZM105.249 87.344C105.676 87.344 105.99 87.2053 106.193 86.928C106.406 86.6507 106.513 86.2187 106.513 85.632C106.513 85.0453 106.406 84.6133 106.193 84.336C105.99 84.048 105.676 83.904 105.249 83.904C104.844 83.904 104.534 84.048 104.321 84.336C104.108 84.6133 104.001 85.0453 104.001 85.632C104.001 85.9947 104.044 86.304 104.129 86.56C104.225 86.816 104.364 87.0133 104.545 87.152C104.737 87.28 104.972 87.344 105.249 87.344ZM114.637 93.04C114.541 93.04 114.461 93.008 114.397 92.944C114.333 92.88 114.301 92.8 114.301 92.704C114.301 92.6827 114.301 92.6507 114.301 92.608C114.311 92.576 114.327 92.5387 114.349 92.496L115.597 89.488L112.525 82.224C112.493 82.1493 112.477 82.0853 112.477 82.032C112.498 81.936 112.541 81.856 112.605 81.792C112.669 81.7173 112.749 81.68 112.845 81.68H114.669C114.807 81.68 114.909 81.7173 114.973 81.792C115.037 81.856 115.085 81.9307 115.117 82.016L116.957 86.672L118.829 82.016C118.871 81.9307 118.925 81.856 118.989 81.792C119.063 81.7173 119.17 81.68 119.309 81.68H121.101C121.197 81.68 121.277 81.7173 121.341 81.792C121.415 81.856 121.453 81.9307 121.453 82.016C121.453 82.0693 121.437 82.1387 121.405 82.224L116.877 92.704C116.845 92.7893 116.791 92.864 116.717 92.928C116.642 93.0027 116.535 93.04 116.397 93.04H114.637ZM124.784 90.16C124.208 90.16 123.69 90.0533 123.232 89.84C122.784 89.616 122.426 89.3173 122.16 88.944C121.893 88.5707 121.76 88.1493 121.76 87.68C121.76 86.9227 122.069 86.3253 122.688 85.888C123.306 85.44 124.128 85.136 125.152 84.976L127.152 84.672V84.448C127.152 84.064 127.072 83.7707 126.912 83.568C126.752 83.3653 126.458 83.264 126.032 83.264C125.733 83.264 125.488 83.3227 125.296 83.44C125.114 83.5573 124.97 83.7173 124.864 83.92C124.768 84.0587 124.634 84.128 124.464 84.128H122.672C122.554 84.128 122.464 84.096 122.4 84.032C122.336 83.9573 122.309 83.872 122.32 83.776C122.32 83.584 122.389 83.3653 122.528 83.12C122.677 82.864 122.901 82.6133 123.2 82.368C123.498 82.1227 123.882 81.92 124.352 81.76C124.821 81.6 125.386 81.52 126.048 81.52C126.741 81.52 127.333 81.6 127.824 81.76C128.314 81.92 128.709 82.144 129.008 82.432C129.317 82.72 129.546 83.0613 129.696 83.456C129.845 83.84 129.92 84.2667 129.92 84.736V89.6C129.92 89.7173 129.877 89.8133 129.792 89.888C129.717 89.9627 129.626 90 129.52 90H127.664C127.546 90 127.45 89.9627 127.376 89.888C127.301 89.8133 127.264 89.7173 127.264 89.6V89.04C127.125 89.2427 126.938 89.4293 126.704 89.6C126.469 89.7707 126.192 89.904 125.872 90C125.562 90.1067 125.2 90.16 124.784 90.16ZM125.536 88.336C125.845 88.336 126.122 88.272 126.368 88.144C126.624 88.0053 126.821 87.7973 126.96 87.52C127.109 87.232 127.184 86.8747 127.184 86.448V86.224L125.824 86.464C125.322 86.5493 124.954 86.6827 124.72 86.864C124.496 87.0347 124.384 87.2373 124.384 87.472C124.384 87.6533 124.437 87.808 124.544 87.936C124.65 88.064 124.789 88.1653 124.96 88.24C125.13 88.304 125.322 88.336 125.536 88.336ZM132.125 90C132.008 90 131.912 89.9627 131.837 89.888C131.763 89.8133 131.725 89.7173 131.725 89.6V82.08C131.725 81.9627 131.763 81.8667 131.837 81.792C131.912 81.7173 132.008 81.68 132.125 81.68H133.965C134.083 81.68 134.179 81.7173 134.253 81.792C134.328 81.8667 134.365 81.9627 134.365 82.08V82.688C134.643 82.3573 135.005 82.08 135.453 81.856C135.901 81.632 136.429 81.52 137.037 81.52C137.656 81.52 138.2 81.6587 138.669 81.936C139.149 82.2133 139.523 82.624 139.789 83.168C140.067 83.7013 140.205 84.3573 140.205 85.136V89.6C140.205 89.7173 140.163 89.8133 140.077 89.888C140.003 89.9627 139.912 90 139.805 90H137.789C137.683 90 137.587 89.9627 137.501 89.888C137.427 89.8133 137.389 89.7173 137.389 89.6V85.232C137.389 84.7307 137.267 84.3467 137.021 84.08C136.787 83.8027 136.435 83.664 135.965 83.664C135.528 83.664 135.176 83.8027 134.909 84.08C134.653 84.3467 134.525 84.7307 134.525 85.232V89.6C134.525 89.7173 134.483 89.8133 134.397 89.888C134.323 89.9627 134.232 90 134.125 90H132.125ZM145.095 90.16C144.583 90.16 144.119 90.08 143.703 89.92C143.298 89.7493 142.946 89.504 142.647 89.184C142.359 88.8533 142.135 88.4587 141.975 88C141.815 87.5307 141.724 86.9973 141.703 86.4C141.692 86.1867 141.687 86 141.687 85.84C141.687 85.6693 141.692 85.4827 141.703 85.28C141.724 84.704 141.815 84.1867 141.975 83.728C142.135 83.2693 142.359 82.8747 142.647 82.544C142.935 82.2133 143.287 81.9627 143.703 81.792C144.119 81.6107 144.583 81.52 145.095 81.52C145.628 81.52 146.087 81.6107 146.471 81.792C146.855 81.9627 147.18 82.1867 147.447 82.464V79.04C147.447 78.9227 147.484 78.8267 147.559 78.752C147.634 78.6773 147.73 78.64 147.847 78.64H149.799C149.906 78.64 149.996 78.6773 150.071 78.752C150.156 78.8267 150.199 78.9227 150.199 79.04V89.6C150.199 89.7173 150.156 89.8133 150.071 89.888C149.996 89.9627 149.906 90 149.799 90H147.991C147.874 90 147.778 89.9627 147.703 89.888C147.628 89.8133 147.591 89.7173 147.591 89.6V89.088C147.335 89.3973 147.004 89.6533 146.599 89.856C146.194 90.0587 145.692 90.16 145.095 90.16ZM145.959 88.016C146.322 88.016 146.604 87.9413 146.807 87.792C147.02 87.632 147.175 87.4293 147.271 87.184C147.378 86.9387 147.436 86.672 147.447 86.384C147.458 86.1707 147.463 85.968 147.463 85.776C147.463 85.584 147.458 85.3867 147.447 85.184C147.436 84.9173 147.378 84.672 147.271 84.448C147.164 84.2133 147.004 84.0267 146.791 83.888C146.578 83.7387 146.3 83.664 145.959 83.664C145.607 83.664 145.324 83.7387 145.111 83.888C144.908 84.0373 144.764 84.24 144.679 84.496C144.594 84.752 144.54 85.0347 144.519 85.344C144.487 85.6747 144.487 86.0053 144.519 86.336C144.54 86.6453 144.594 86.928 144.679 87.184C144.764 87.44 144.908 87.6427 145.111 87.792C145.324 87.9413 145.607 88.016 145.959 88.016ZM155.925 90.16C154.666 90.16 153.663 89.8187 152.917 89.136C152.17 88.4533 151.781 87.44 151.749 86.096C151.749 86.0213 151.749 85.9253 151.749 85.808C151.749 85.6907 151.749 85.6 151.749 85.536C151.781 84.6933 151.967 83.9733 152.309 83.376C152.661 82.768 153.141 82.3093 153.749 82C154.367 81.68 155.087 81.52 155.909 81.52C156.847 81.52 157.621 81.7067 158.229 82.08C158.847 82.4533 159.311 82.96 159.621 83.6C159.93 84.24 160.085 84.9707 160.085 85.792V86.176C160.085 86.2933 160.042 86.3893 159.957 86.464C159.882 86.5387 159.791 86.576 159.685 86.576H154.565C154.565 86.5867 154.565 86.6027 154.565 86.624C154.565 86.6453 154.565 86.6667 154.565 86.688C154.575 86.9973 154.629 87.28 154.725 87.536C154.821 87.792 154.97 87.9947 155.173 88.144C155.375 88.2933 155.621 88.368 155.909 88.368C156.122 88.368 156.298 88.336 156.437 88.272C156.586 88.1973 156.709 88.1173 156.805 88.032C156.901 87.936 156.975 87.856 157.029 87.792C157.125 87.6853 157.199 87.6213 157.253 87.6C157.317 87.568 157.413 87.552 157.541 87.552H159.525C159.631 87.552 159.717 87.584 159.781 87.648C159.855 87.7013 159.887 87.7813 159.877 87.888C159.866 88.0693 159.775 88.288 159.605 88.544C159.434 88.8 159.183 89.056 158.853 89.312C158.533 89.5573 158.127 89.76 157.637 89.92C157.146 90.08 156.575 90.16 155.925 90.16ZM154.565 84.992H157.269V84.96C157.269 84.6187 157.215 84.32 157.109 84.064C157.013 83.808 156.858 83.6107 156.645 83.472C156.442 83.3333 156.197 83.264 155.909 83.264C155.621 83.264 155.375 83.3333 155.173 83.472C154.981 83.6107 154.831 83.808 154.725 84.064C154.618 84.32 154.565 84.6187 154.565 84.96V84.992ZM160.967 90C160.871 90 160.786 89.968 160.711 89.904C160.647 89.8293 160.615 89.744 160.615 89.648C160.615 89.616 160.621 89.5787 160.631 89.536C160.642 89.4827 160.663 89.4347 160.695 89.392L163.367 85.728L160.935 82.288C160.903 82.2453 160.877 82.2027 160.855 82.16C160.845 82.1173 160.839 82.0747 160.839 82.032C160.839 81.936 160.877 81.856 160.951 81.792C161.026 81.7173 161.111 81.68 161.207 81.68H163.159C163.298 81.68 163.399 81.712 163.463 81.776C163.538 81.84 163.591 81.8987 163.623 81.952L165.111 84.016L166.583 81.968C166.626 81.9147 166.679 81.856 166.743 81.792C166.818 81.7173 166.925 81.68 167.063 81.68H168.935C169.031 81.68 169.111 81.7173 169.175 81.792C169.25 81.856 169.287 81.936 169.287 82.032C169.287 82.0747 169.282 82.1173 169.271 82.16C169.261 82.2027 169.239 82.2453 169.207 82.288L166.711 85.728L169.415 89.392C169.458 89.4347 169.485 89.4773 169.495 89.52C169.506 89.5627 169.511 89.6053 169.511 89.648C169.511 89.744 169.474 89.8293 169.399 89.904C169.335 89.968 169.25 90 169.143 90H167.111C166.983 90 166.887 89.9733 166.823 89.92C166.759 89.856 166.706 89.7973 166.663 89.744L165.047 87.552L163.415 89.744C163.373 89.7867 163.319 89.84 163.255 89.904C163.191 89.968 163.09 90 162.951 90H160.967ZM171.03 90C170.912 90 170.816 89.9627 170.742 89.888C170.667 89.8133 170.63 89.7173 170.63 89.6V87.568C170.63 87.4613 170.667 87.3707 170.742 87.296C170.816 87.2107 170.912 87.168 171.03 87.168H173.046C173.163 87.168 173.259 87.2107 173.334 87.296C173.419 87.3707 173.462 87.4613 173.462 87.568V89.6C173.462 89.7173 173.419 89.8133 173.334 89.888C173.259 89.9627 173.163 90 173.046 90H171.03ZM180.345 90.16C179.747 90.16 179.246 90.0587 178.841 89.856C178.446 89.6533 178.121 89.3973 177.865 89.088V89.6C177.865 89.7173 177.822 89.8133 177.737 89.888C177.662 89.9627 177.571 90 177.465 90H175.657C175.539 90 175.443 89.9627 175.368 89.888C175.294 89.8133 175.257 89.7173 175.257 89.6V79.04C175.257 78.9227 175.294 78.8267 175.368 78.752C175.443 78.6773 175.539 78.64 175.657 78.64H177.609C177.726 78.64 177.822 78.6773 177.897 78.752C177.971 78.8267 178.009 78.9227 178.009 79.04V82.464C178.265 82.1867 178.585 81.9627 178.969 81.792C179.363 81.6107 179.822 81.52 180.345 81.52C180.878 81.52 181.347 81.6107 181.753 81.792C182.169 81.9627 182.521 82.2133 182.809 82.544C183.097 82.8747 183.321 83.2693 183.481 83.728C183.641 84.1867 183.731 84.704 183.753 85.28C183.763 85.4827 183.769 85.6693 183.769 85.84C183.769 86 183.763 86.1867 183.753 86.4C183.731 86.9973 183.635 87.5307 183.465 88C183.305 88.4587 183.081 88.8533 182.793 89.184C182.505 89.504 182.158 89.7493 181.753 89.92C181.347 90.08 180.878 90.16 180.345 90.16ZM179.481 88.016C179.843 88.016 180.126 87.9413 180.329 87.792C180.531 87.6427 180.675 87.44 180.761 87.184C180.857 86.928 180.915 86.6453 180.937 86.336C180.958 86.0053 180.958 85.6747 180.937 85.344C180.915 85.0347 180.857 84.752 180.761 84.496C180.675 84.24 180.531 84.0373 180.329 83.888C180.126 83.7387 179.843 83.664 179.481 83.664C179.15 83.664 178.878 83.7387 178.665 83.888C178.451 84.0267 178.291 84.2133 178.185 84.448C178.078 84.672 178.019 84.9173 178.009 85.184C177.998 85.3867 177.993 85.584 177.993 85.776C177.993 85.968 177.998 86.1707 178.009 86.384C178.019 86.672 178.073 86.9387 178.169 87.184C178.265 87.4293 178.419 87.632 178.633 87.792C178.846 87.9413 179.129 88.016 179.481 88.016ZM186.559 93.04C186.463 93.04 186.383 93.008 186.319 92.944C186.255 92.88 186.223 92.8 186.223 92.704C186.223 92.6827 186.223 92.6507 186.223 92.608C186.233 92.576 186.249 92.5387 186.271 92.496L187.519 89.488L184.447 82.224C184.415 82.1493 184.399 82.0853 184.399 82.032C184.42 81.936 184.463 81.856 184.527 81.792C184.591 81.7173 184.671 81.68 184.767 81.68H186.591C186.729 81.68 186.831 81.7173 186.895 81.792C186.959 81.856 187.007 81.9307 187.039 82.016L188.879 86.672L190.751 82.016C190.793 81.9307 190.847 81.856 190.911 81.792C190.985 81.7173 191.092 81.68 191.231 81.68H193.023C193.119 81.68 193.199 81.7173 193.263 81.792C193.337 81.856 193.375 81.9307 193.375 82.016C193.375 82.0693 193.359 82.1387 193.327 82.224L188.799 92.704C188.767 92.7893 188.713 92.864 188.639 92.928C188.564 93.0027 188.457 93.04 188.319 93.04H186.559Z" fill="#443E3E"/>
<path d="M40 91.2H193.615V92H40V91.2Z" fill="#443E3E"/>
<path d="M13.7429 124.849C10.6312 125.407 8.26971 127.696 7.62179 130.782C7.5067 131.332 7.46407 132.705 7.53654 133.43C7.77098 135.65 8.6704 137.794 10.3072 140.024C10.8998 140.829 11.3303 141.349 13.0396 143.327C13.5682 143.937 14.118 144.585 14.2672 144.768C14.5784 145.148 14.702 145.224 15.0004 145.224C15.2988 145.224 15.4224 145.148 15.7336 144.768C15.8828 144.585 16.4412 143.928 16.9825 143.306C18.8112 141.196 19.5486 140.275 20.2307 139.257C21.5265 137.313 22.2554 135.403 22.4643 133.43C22.5368 132.705 22.4941 131.328 22.379 130.795C21.7269 127.777 19.5529 125.578 16.5563 124.904C16.1556 124.815 15.951 124.798 15.1496 124.781C14.3525 124.768 14.1436 124.776 13.7429 124.849ZM15.5759 126.187C16.2664 126.23 17.2255 126.516 17.899 126.886C18.4148 127.168 18.8538 127.504 19.327 127.978C20.1838 128.839 20.7251 129.836 20.9894 131.03C21.1002 131.52 21.1216 132.833 21.0363 133.502C20.7337 135.8 19.6936 137.875 17.5495 140.459C16.9015 141.243 15.0303 143.391 15.0004 143.391C14.9706 143.391 13.0993 141.243 12.4514 140.459C10.3072 137.875 9.25438 135.774 8.96452 133.493C8.85795 132.654 8.89632 131.473 9.04977 130.859C9.34389 129.695 9.85115 128.8 10.6909 127.961C11.5477 127.104 12.4514 126.597 13.6151 126.315C14.0413 126.213 14.8299 126.128 15.0857 126.153C15.1453 126.162 15.367 126.175 15.5759 126.187Z" fill="#E81212"/>
<path d="M14.1479 128.238C12.6261 128.579 11.4624 129.674 11.0276 131.183C10.9424 131.477 10.9296 131.614 10.9296 132.266C10.9296 132.918 10.9424 133.054 11.0276 133.349C11.4368 134.764 12.494 135.825 13.8964 136.234C14.3781 136.371 15.3542 136.396 15.8828 136.281C17.379 135.949 18.5384 134.849 18.9732 133.349C19.0584 133.054 19.0712 132.918 19.0712 132.266C19.0712 131.614 19.0584 131.477 18.9732 131.183C18.564 129.768 17.5111 128.711 16.1044 128.297C15.691 128.178 14.5741 128.144 14.1479 128.238ZM15.8529 129.708C16.6373 129.973 17.3065 130.642 17.5623 131.418C17.6475 131.686 17.6646 131.814 17.6646 132.287C17.6646 132.777 17.6518 132.875 17.5537 133.148C16.7651 135.309 13.8708 135.603 12.6815 133.638C12.4087 133.187 12.3363 132.909 12.3363 132.287C12.3363 131.814 12.3533 131.686 12.4386 131.422C12.8989 130.019 14.4548 129.239 15.8529 129.708Z" fill="#E81212"/>
<path fill-rule="evenodd" clip-rule="evenodd" d="M15.5759 126.187C16.2664 126.23 17.2255 126.516 17.899 126.886C18.4148 127.168 18.8538 127.504 19.327 127.978C20.1838 128.839 20.7251 129.836 20.9894 131.03C21.1002 131.52 21.1216 132.833 21.0363 133.502C20.7337 135.8 19.6936 137.875 17.5495 140.459C16.9015 141.243 15.0303 143.391 15.0004 143.391C14.9706 143.391 13.0993 141.243 12.4514 140.459C10.3072 137.875 9.25438 135.774 8.96452 133.493C8.85795 132.654 8.89632 131.473 9.04977 130.859C9.34389 129.695 9.85115 128.8 10.6909 127.961C11.5477 127.104 12.4514 126.597 13.6151 126.315C14.0413 126.213 14.8299 126.128 15.0857 126.153C15.1453 126.162 15.367 126.175 15.5759 126.187ZM11.0276 131.183C11.4624 129.674 12.6261 128.579 14.1479 128.238C14.5741 128.144 15.691 128.178 16.1044 128.297C17.5111 128.711 18.564 129.768 18.9732 131.183C19.0584 131.477 19.0712 131.614 19.0712 132.266C19.0712 132.918 19.0584 133.054 18.9732 133.349C18.5384 134.849 17.379 135.949 15.8828 136.281C15.3542 136.396 14.3781 136.371 13.8964 136.234C12.494 135.825 11.4368 134.764 11.0276 133.349C10.9424 133.054 10.9296 132.918 10.9296 132.266C10.9296 131.614 10.9424 131.477 11.0276 131.183Z" fill="#E81212"/>
<path d="M35.56 139.5C35.4853 139.5 35.42 139.472 35.364 139.416C35.308 139.36 35.28 139.295 35.28 139.22C35.28 139.173 35.2847 139.122 35.294 139.066L38.766 130.008C38.8033 129.915 38.8547 129.84 38.92 129.784C38.9853 129.728 39.0833 129.7 39.214 129.7H40.166C40.2873 129.7 40.3807 129.728 40.446 129.784C40.5207 129.84 40.5767 129.915 40.614 130.008L44.072 139.066C44.0907 139.122 44.1 139.173 44.1 139.22C44.1 139.295 44.072 139.36 44.016 139.416C43.96 139.472 43.8947 139.5 43.82 139.5H43.106C42.994 139.5 42.91 139.472 42.854 139.416C42.8073 139.36 42.7747 139.309 42.756 139.262L41.986 137.274H37.394L36.624 139.262C36.6147 139.309 36.582 139.36 36.526 139.416C36.47 139.472 36.386 139.5 36.274 139.5H35.56ZM37.8 136.07H41.58L39.69 131.1L37.8 136.07ZM44.9949 141.04C44.9016 141.04 44.8222 141.007 44.7569 140.942C44.7009 140.886 44.6729 140.811 44.6729 140.718V138.702C44.6729 138.609 44.7009 138.534 44.7569 138.478C44.8222 138.413 44.9016 138.38 44.9949 138.38H45.0649C45.3169 138.371 45.5316 138.231 45.7089 137.96C45.8862 137.68 46.0216 137.246 46.1149 136.658C46.2082 136.061 46.2549 135.286 46.2549 134.334V132.542C46.2549 132.449 46.2829 132.374 46.3389 132.318C46.4042 132.253 46.4836 132.22 46.5769 132.22H51.0429C51.1362 132.22 51.2109 132.253 51.2669 132.318C51.3322 132.374 51.3649 132.449 51.3649 132.542V138.352H52.0229C52.1256 138.352 52.2049 138.385 52.2609 138.45C52.3169 138.506 52.3449 138.581 52.3449 138.674V140.718C52.3449 140.811 52.3169 140.886 52.2609 140.942C52.2049 141.007 52.1256 141.04 52.0229 141.04H51.3649C51.2716 141.04 51.1922 141.007 51.1269 140.942C51.0709 140.886 51.0429 140.811 51.0429 140.718V139.5H45.9749V140.718C45.9749 140.811 45.9422 140.886 45.8769 140.942C45.8209 141.007 45.7462 141.04 45.6529 141.04H44.9949ZM46.7309 138.38L50.0629 138.352V133.34H47.5289V134.488C47.5289 135.477 47.4589 136.289 47.3189 136.924C47.1789 137.549 46.9829 138.035 46.7309 138.38ZM54.1454 142.16C54.0521 142.16 53.9728 142.127 53.9074 142.062C53.8514 142.006 53.8234 141.931 53.8234 141.838V132.542C53.8234 132.449 53.8514 132.374 53.9074 132.318C53.9728 132.253 54.0521 132.22 54.1454 132.22H54.7894C54.8828 132.22 54.9574 132.253 55.0134 132.318C55.0788 132.374 55.1114 132.449 55.1114 132.542V133.158C55.3354 132.85 55.6341 132.593 56.0074 132.388C56.3808 132.183 56.8474 132.08 57.4074 132.08C57.9301 132.08 58.3734 132.169 58.7374 132.346C59.1108 132.523 59.4141 132.766 59.6474 133.074C59.8901 133.382 60.0721 133.732 60.1934 134.124C60.3148 134.516 60.3801 134.936 60.3894 135.384C60.3988 135.533 60.4034 135.692 60.4034 135.86C60.4034 136.028 60.3988 136.187 60.3894 136.336C60.3801 136.775 60.3148 137.195 60.1934 137.596C60.0721 137.988 59.8901 138.338 59.6474 138.646C59.4141 138.945 59.1108 139.187 58.7374 139.374C58.3734 139.551 57.9301 139.64 57.4074 139.64C56.8661 139.64 56.4088 139.542 56.0354 139.346C55.6714 139.141 55.3728 138.889 55.1394 138.59V141.838C55.1394 141.931 55.1114 142.006 55.0554 142.062C54.9994 142.127 54.9201 142.16 54.8174 142.16H54.1454ZM57.1134 138.506C57.5988 138.506 57.9768 138.403 58.2474 138.198C58.5274 137.983 58.7281 137.708 58.8494 137.372C58.9708 137.027 59.0408 136.658 59.0594 136.266C59.0688 135.995 59.0688 135.725 59.0594 135.454C59.0408 135.062 58.9708 134.698 58.8494 134.362C58.7281 134.017 58.5274 133.741 58.2474 133.536C57.9768 133.321 57.5988 133.214 57.1134 133.214C56.6561 133.214 56.2828 133.321 55.9934 133.536C55.7134 133.751 55.5034 134.026 55.3634 134.362C55.2328 134.689 55.1581 135.025 55.1394 135.37C55.1301 135.519 55.1254 135.697 55.1254 135.902C55.1254 136.107 55.1301 136.289 55.1394 136.448C55.1488 136.775 55.2234 137.097 55.3634 137.414C55.5128 137.731 55.7321 137.993 56.0214 138.198C56.3108 138.403 56.6748 138.506 57.1134 138.506ZM65.0473 139.64C64.0859 139.64 63.3206 139.346 62.7513 138.758C62.1819 138.161 61.8693 137.349 61.8133 136.322C61.8039 136.201 61.7993 136.047 61.7993 135.86C61.7993 135.664 61.8039 135.505 61.8133 135.384C61.8506 134.721 62.0046 134.143 62.2753 133.648C62.5459 133.144 62.9146 132.757 63.3813 132.486C63.8573 132.215 64.4126 132.08 65.0473 132.08C65.7566 132.08 66.3493 132.229 66.8253 132.528C67.3106 132.827 67.6793 133.251 67.9313 133.802C68.1833 134.353 68.3093 134.997 68.3093 135.734V135.972C68.3093 136.075 68.2766 136.154 68.2113 136.21C68.1553 136.266 68.0806 136.294 67.9873 136.294H63.1433C63.1433 136.303 63.1433 136.322 63.1433 136.35C63.1433 136.378 63.1433 136.401 63.1433 136.42C63.1619 136.803 63.2459 137.162 63.3953 137.498C63.5446 137.825 63.7593 138.091 64.0393 138.296C64.3193 138.501 64.6553 138.604 65.0473 138.604C65.3833 138.604 65.6633 138.553 65.8873 138.45C66.1113 138.347 66.2933 138.235 66.4333 138.114C66.5733 137.983 66.6666 137.885 66.7133 137.82C66.7973 137.699 66.8626 137.629 66.9093 137.61C66.9559 137.582 67.0306 137.568 67.1333 137.568H67.8053C67.8986 137.568 67.9733 137.596 68.0293 137.652C68.0946 137.699 68.1226 137.769 68.1133 137.862C68.1039 138.002 68.0293 138.175 67.8893 138.38C67.7493 138.576 67.5486 138.772 67.2873 138.968C67.0259 139.164 66.7086 139.327 66.3353 139.458C65.9619 139.579 65.5326 139.64 65.0473 139.64ZM63.1433 135.328H66.9793V135.286C66.9793 134.866 66.8999 134.493 66.7413 134.166C66.5919 133.839 66.3726 133.583 66.0833 133.396C65.7939 133.2 65.4486 133.102 65.0473 133.102C64.6459 133.102 64.3006 133.2 64.0113 133.396C63.7313 133.583 63.5166 133.839 63.3673 134.166C63.2179 134.493 63.1433 134.866 63.1433 135.286V135.328ZM72.9233 139.64C72.2606 139.64 71.6866 139.514 71.2013 139.262C70.7253 139.001 70.3566 138.632 70.0953 138.156C69.8339 137.671 69.6939 137.092 69.6753 136.42C69.6659 136.28 69.6613 136.093 69.6613 135.86C69.6613 135.627 69.6659 135.44 69.6753 135.3C69.6939 134.628 69.8339 134.054 70.0953 133.578C70.3566 133.093 70.7253 132.724 71.2013 132.472C71.6866 132.211 72.2606 132.08 72.9233 132.08C73.4646 132.08 73.9266 132.155 74.3093 132.304C74.7013 132.453 75.0233 132.645 75.2753 132.878C75.5273 133.111 75.7139 133.363 75.8353 133.634C75.9659 133.905 76.0359 134.161 76.0453 134.404C76.0546 134.497 76.0266 134.572 75.9613 134.628C75.8959 134.684 75.8166 134.712 75.7233 134.712H75.0513C74.9579 134.712 74.8879 134.693 74.8413 134.656C74.7946 134.609 74.7479 134.535 74.7013 134.432C74.5333 133.975 74.3046 133.653 74.0153 133.466C73.7259 133.279 73.3666 133.186 72.9373 133.186C72.3773 133.186 71.9199 133.359 71.5653 133.704C71.2199 134.049 71.0333 134.605 71.0053 135.37C70.9959 135.706 70.9959 136.033 71.0053 136.35C71.0333 137.125 71.2199 137.685 71.5653 138.03C71.9199 138.366 72.3773 138.534 72.9373 138.534C73.3666 138.534 73.7259 138.441 74.0153 138.254C74.3046 138.067 74.5333 137.745 74.7013 137.288C74.7479 137.185 74.7946 137.115 74.8413 137.078C74.8879 137.031 74.9579 137.008 75.0513 137.008H75.7233C75.8166 137.008 75.8959 137.036 75.9613 137.092C76.0266 137.148 76.0546 137.223 76.0453 137.316C76.0359 137.512 75.9939 137.713 75.9193 137.918C75.8446 138.123 75.7233 138.333 75.5553 138.548C75.3966 138.753 75.1959 138.94 74.9533 139.108C74.7106 139.267 74.4166 139.397 74.0713 139.5C73.7353 139.593 73.3526 139.64 72.9233 139.64ZM79.7379 139.64C79.2712 139.64 78.8465 139.547 78.4639 139.36C78.0812 139.173 77.7732 138.921 77.5399 138.604C77.3065 138.287 77.1899 137.927 77.1899 137.526C77.1899 136.882 77.4512 136.369 77.9739 135.986C78.4965 135.603 79.1779 135.351 80.0179 135.23L82.1039 134.936V134.53C82.1039 134.082 81.9732 133.732 81.7119 133.48C81.4599 133.228 81.0445 133.102 80.4659 133.102C80.0459 133.102 79.7052 133.186 79.4439 133.354C79.1919 133.522 79.0145 133.737 78.9119 133.998C78.8559 134.138 78.7579 134.208 78.6179 134.208H77.9879C77.8852 134.208 77.8059 134.18 77.7499 134.124C77.7032 134.059 77.6799 133.984 77.6799 133.9C77.6799 133.76 77.7312 133.587 77.8339 133.382C77.9459 133.177 78.1139 132.976 78.3379 132.78C78.5619 132.584 78.8465 132.421 79.1919 132.29C79.5465 132.15 79.9759 132.08 80.4799 132.08C81.0399 132.08 81.5112 132.155 81.8939 132.304C82.2765 132.444 82.5752 132.635 82.7899 132.878C83.0139 133.121 83.1725 133.396 83.2659 133.704C83.3685 134.012 83.4199 134.325 83.4199 134.642V139.178C83.4199 139.271 83.3872 139.351 83.3219 139.416C83.2659 139.472 83.1912 139.5 83.0979 139.5H82.4539C82.3512 139.5 82.2719 139.472 82.2159 139.416C82.1599 139.351 82.1319 139.271 82.1319 139.178V138.576C82.0105 138.744 81.8472 138.912 81.6419 139.08C81.4365 139.239 81.1799 139.374 80.8719 139.486C80.5639 139.589 80.1859 139.64 79.7379 139.64ZM80.0319 138.59C80.4145 138.59 80.7645 138.511 81.0819 138.352C81.3992 138.184 81.6465 137.927 81.8239 137.582C82.0105 137.237 82.1039 136.803 82.1039 136.28V135.888L80.4799 136.126C79.8172 136.219 79.3179 136.378 78.9819 136.602C78.6459 136.817 78.4779 137.092 78.4779 137.428C78.4779 137.689 78.5525 137.909 78.7019 138.086C78.8605 138.254 79.0565 138.38 79.2899 138.464C79.5325 138.548 79.7799 138.59 80.0319 138.59ZM89.1721 139.5C89.0788 139.5 89.0041 139.472 88.9481 139.416C88.8921 139.36 88.8641 139.285 88.8641 139.192V132.486C88.8641 132.411 88.8921 132.351 88.9481 132.304C89.0135 132.248 89.0788 132.22 89.1441 132.22H89.8581C90.0075 132.22 90.1241 132.295 90.2081 132.444L92.5881 136.896L94.9821 132.444C95.0661 132.295 95.1828 132.22 95.3321 132.22H96.0321C96.1068 132.22 96.1721 132.248 96.2281 132.304C96.2841 132.351 96.3121 132.411 96.3121 132.486V139.192C96.3121 139.285 96.2841 139.36 96.2281 139.416C96.1721 139.472 96.1021 139.5 96.0181 139.5H95.3321C95.2388 139.5 95.1641 139.472 95.1081 139.416C95.0521 139.36 95.0241 139.285 95.0241 139.192V133.606L95.5141 133.662L93.2321 137.974C93.1855 138.067 93.1295 138.151 93.0641 138.226C92.9988 138.301 92.9008 138.338 92.7701 138.338H92.4061C92.2848 138.338 92.1915 138.301 92.1261 138.226C92.0608 138.151 92.0001 138.067 91.9441 137.974L89.7321 133.872L90.1661 133.83V139.192C90.1661 139.285 90.1381 139.36 90.0821 139.416C90.0261 139.472 89.9515 139.5 89.8581 139.5H89.1721ZM100.437 139.64C99.9704 139.64 99.5458 139.547 99.1631 139.36C98.7804 139.173 98.4724 138.921 98.2391 138.604C98.0058 138.287 97.8891 137.927 97.8891 137.526C97.8891 136.882 98.1504 136.369 98.6731 135.986C99.1958 135.603 99.8771 135.351 100.717 135.23L102.803 134.936V134.53C102.803 134.082 102.672 133.732 102.411 133.48C102.159 133.228 101.744 133.102 101.165 133.102C100.745 133.102 100.404 133.186 100.143 133.354C99.8911 133.522 99.7138 133.737 99.6111 133.998C99.5551 134.138 99.4571 134.208 99.3171 134.208H98.6871C98.5844 134.208 98.5051 134.18 98.4491 134.124C98.4024 134.059 98.3791 133.984 98.3791 133.9C98.3791 133.76 98.4304 133.587 98.5331 133.382C98.6451 133.177 98.8131 132.976 99.0371 132.78C99.2611 132.584 99.5458 132.421 99.8911 132.29C100.246 132.15 100.675 132.08 101.179 132.08C101.739 132.08 102.21 132.155 102.593 132.304C102.976 132.444 103.274 132.635 103.489 132.878C103.713 133.121 103.872 133.396 103.965 133.704C104.068 134.012 104.119 134.325 104.119 134.642V139.178C104.119 139.271 104.086 139.351 104.021 139.416C103.965 139.472 103.89 139.5 103.797 139.5H103.153C103.05 139.5 102.971 139.472 102.915 139.416C102.859 139.351 102.831 139.271 102.831 139.178V138.576C102.71 138.744 102.546 138.912 102.341 139.08C102.136 139.239 101.879 139.374 101.571 139.486C101.263 139.589 100.885 139.64 100.437 139.64ZM100.731 138.59C101.114 138.59 101.464 138.511 101.781 138.352C102.098 138.184 102.346 137.927 102.523 137.582C102.71 137.237 102.803 136.803 102.803 136.28V135.888L101.179 136.126C100.516 136.219 100.017 136.378 99.6811 136.602C99.3451 136.817 99.1771 137.092 99.1771 137.428C99.1771 137.689 99.2518 137.909 99.4011 138.086C99.5598 138.254 99.7558 138.38 99.9891 138.464C100.232 138.548 100.479 138.59 100.731 138.59ZM106.454 139.5C106.36 139.5 106.281 139.472 106.216 139.416C106.16 139.351 106.132 139.271 106.132 139.178V132.542C106.132 132.449 106.16 132.374 106.216 132.318C106.281 132.253 106.36 132.22 106.454 132.22H110.64C110.733 132.22 110.808 132.253 110.864 132.318C110.92 132.374 110.948 132.449 110.948 132.542V133.018C110.948 133.111 110.92 133.191 110.864 133.256C110.808 133.312 110.733 133.34 110.64 133.34H107.434V139.178C107.434 139.271 107.406 139.351 107.35 139.416C107.294 139.472 107.219 139.5 107.126 139.5H106.454ZM114.177 139.64C113.711 139.64 113.286 139.547 112.903 139.36C112.521 139.173 112.213 138.921 111.979 138.604C111.746 138.287 111.629 137.927 111.629 137.526C111.629 136.882 111.891 136.369 112.413 135.986C112.936 135.603 113.617 135.351 114.457 135.23L116.543 134.936V134.53C116.543 134.082 116.413 133.732 116.151 133.48C115.899 133.228 115.484 133.102 114.905 133.102C114.485 133.102 114.145 133.186 113.883 133.354C113.631 133.522 113.454 133.737 113.351 133.998C113.295 134.138 113.197 134.208 113.057 134.208H112.427C112.325 134.208 112.245 134.18 112.189 134.124C112.143 134.059 112.119 133.984 112.119 133.9C112.119 133.76 112.171 133.587 112.273 133.382C112.385 133.177 112.553 132.976 112.777 132.78C113.001 132.584 113.286 132.421 113.631 132.29C113.986 132.15 114.415 132.08 114.919 132.08C115.479 132.08 115.951 132.155 116.333 132.304C116.716 132.444 117.015 132.635 117.229 132.878C117.453 133.121 117.612 133.396 117.705 133.704C117.808 134.012 117.859 134.325 117.859 134.642V139.178C117.859 139.271 117.827 139.351 117.761 139.416C117.705 139.472 117.631 139.5 117.537 139.5H116.893C116.791 139.5 116.711 139.472 116.655 139.416C116.599 139.351 116.571 139.271 116.571 139.178V138.576C116.45 138.744 116.287 138.912 116.081 139.08C115.876 139.239 115.619 139.374 115.311 139.486C115.003 139.589 114.625 139.64 114.177 139.64ZM114.471 138.59C114.854 138.59 115.204 138.511 115.521 138.352C115.839 138.184 116.086 137.927 116.263 137.582C116.45 137.237 116.543 136.803 116.543 136.28V135.888L114.919 136.126C114.257 136.219 113.757 136.378 113.421 136.602C113.085 136.817 112.917 137.092 112.917 137.428C112.917 137.689 112.992 137.909 113.141 138.086C113.3 138.254 113.496 138.38 113.729 138.464C113.972 138.548 114.219 138.59 114.471 138.59ZM122.406 139.64C121.855 139.64 121.389 139.575 121.006 139.444C120.633 139.304 120.329 139.131 120.096 138.926C119.872 138.711 119.709 138.492 119.606 138.268C119.503 138.035 119.447 137.82 119.438 137.624C119.438 137.54 119.466 137.475 119.522 137.428C119.578 137.372 119.643 137.344 119.718 137.344H120.376C120.46 137.344 120.53 137.367 120.586 137.414C120.642 137.451 120.684 137.521 120.712 137.624C120.824 137.979 121.039 138.226 121.356 138.366C121.673 138.506 122.061 138.576 122.518 138.576C122.817 138.576 123.092 138.539 123.344 138.464C123.596 138.38 123.792 138.249 123.932 138.072C124.081 137.895 124.156 137.675 124.156 137.414C124.156 137.031 124.044 136.742 123.82 136.546C123.605 136.35 123.269 136.252 122.812 136.252H122.042C121.949 136.252 121.874 136.224 121.818 136.168C121.762 136.112 121.734 136.037 121.734 135.944V135.566C121.734 135.482 121.762 135.412 121.818 135.356C121.874 135.291 121.949 135.258 122.042 135.258H122.728C123.111 135.258 123.405 135.183 123.61 135.034C123.815 134.885 123.918 134.647 123.918 134.32C123.918 134.124 123.871 133.937 123.778 133.76C123.685 133.583 123.526 133.438 123.302 133.326C123.087 133.205 122.789 133.144 122.406 133.144C121.865 133.144 121.482 133.237 121.258 133.424C121.043 133.601 120.889 133.867 120.796 134.222C120.759 134.325 120.712 134.395 120.656 134.432C120.609 134.469 120.539 134.488 120.446 134.488H119.816C119.732 134.488 119.662 134.465 119.606 134.418C119.55 134.371 119.522 134.306 119.522 134.222C119.531 133.942 119.592 133.676 119.704 133.424C119.825 133.172 120.003 132.943 120.236 132.738C120.479 132.533 120.777 132.374 121.132 132.262C121.496 132.141 121.921 132.08 122.406 132.08C123.106 132.08 123.657 132.187 124.058 132.402C124.469 132.617 124.758 132.883 124.926 133.2C125.103 133.508 125.192 133.816 125.192 134.124C125.192 134.488 125.131 134.791 125.01 135.034C124.898 135.277 124.674 135.482 124.338 135.65C124.758 135.809 125.047 136.047 125.206 136.364C125.365 136.681 125.449 137.05 125.458 137.47C125.467 137.955 125.337 138.357 125.066 138.674C124.805 138.991 124.445 139.234 123.988 139.402C123.531 139.561 123.003 139.64 122.406 139.64ZM127.344 139.5C127.26 139.5 127.185 139.472 127.12 139.416C127.064 139.351 127.036 139.281 127.036 139.206V132.542C127.036 132.449 127.064 132.374 127.12 132.318C127.185 132.253 127.265 132.22 127.358 132.22H128.03C128.123 132.22 128.198 132.253 128.254 132.318C128.31 132.374 128.338 132.449 128.338 132.542V138.478L127.974 138.1L132.216 132.43C132.263 132.374 132.314 132.327 132.37 132.29C132.426 132.243 132.496 132.22 132.58 132.22H133.224C133.299 132.22 133.364 132.248 133.42 132.304C133.485 132.36 133.518 132.425 133.518 132.5V139.178C133.518 139.271 133.485 139.351 133.42 139.416C133.364 139.472 133.289 139.5 133.196 139.5H132.538C132.435 139.5 132.356 139.472 132.3 139.416C132.244 139.351 132.216 139.271 132.216 139.178V133.592L132.608 133.578L128.338 139.29C128.301 139.337 128.254 139.383 128.198 139.43C128.142 139.477 128.067 139.5 127.974 139.5H127.344ZM135.889 139.5C135.796 139.5 135.717 139.472 135.651 139.416C135.595 139.351 135.567 139.271 135.567 139.178V132.542C135.567 132.449 135.595 132.374 135.651 132.318C135.717 132.253 135.796 132.22 135.889 132.22H136.561C136.655 132.22 136.729 132.253 136.785 132.318C136.841 132.374 136.869 132.449 136.869 132.542V135.23H140.691V132.542C140.691 132.449 140.719 132.374 140.775 132.318C140.841 132.253 140.92 132.22 141.013 132.22H141.671C141.765 132.22 141.839 132.253 141.895 132.318C141.961 132.374 141.993 132.449 141.993 132.542V139.178C141.993 139.271 141.961 139.351 141.895 139.416C141.839 139.472 141.765 139.5 141.671 139.5H141.013C140.92 139.5 140.841 139.472 140.775 139.416C140.719 139.351 140.691 139.271 140.691 139.178V136.35H136.869V139.178C136.869 139.271 136.841 139.351 136.785 139.416C136.729 139.472 136.655 139.5 136.561 139.5H135.889ZM147.081 139.64C146.371 139.64 145.779 139.505 145.303 139.234C144.827 138.963 144.463 138.59 144.211 138.114C143.959 137.629 143.819 137.078 143.791 136.462C143.781 136.303 143.777 136.103 143.777 135.86C143.777 135.608 143.781 135.407 143.791 135.258C143.819 134.633 143.959 134.082 144.211 133.606C144.472 133.13 144.841 132.757 145.317 132.486C145.793 132.215 146.381 132.08 147.081 132.08C147.781 132.08 148.369 132.215 148.845 132.486C149.321 132.757 149.685 133.13 149.937 133.606C150.198 134.082 150.343 134.633 150.371 135.258C150.38 135.407 150.385 135.608 150.385 135.86C150.385 136.103 150.38 136.303 150.371 136.462C150.343 137.078 150.203 137.629 149.951 138.114C149.699 138.59 149.335 138.963 148.859 139.234C148.383 139.505 147.79 139.64 147.081 139.64ZM147.081 138.562C147.659 138.562 148.121 138.38 148.467 138.016C148.812 137.643 148.999 137.101 149.027 136.392C149.036 136.252 149.041 136.075 149.041 135.86C149.041 135.645 149.036 135.468 149.027 135.328C148.999 134.619 148.812 134.082 148.467 133.718C148.121 133.345 147.659 133.158 147.081 133.158C146.502 133.158 146.035 133.345 145.681 133.718C145.335 134.082 145.153 134.619 145.135 135.328C145.125 135.468 145.12 135.645 145.12 135.86C145.12 136.075 145.125 136.252 145.135 136.392C145.153 137.101 145.335 137.643 145.681 138.016C146.035 138.38 146.502 138.562 147.081 138.562ZM152.46 139.5C152.366 139.5 152.287 139.472 152.222 139.416C152.166 139.351 152.138 139.271 152.138 139.178V132.542C152.138 132.449 152.166 132.374 152.222 132.318C152.287 132.253 152.366 132.22 152.46 132.22H155.372C156.249 132.22 156.907 132.397 157.346 132.752C157.794 133.107 158.018 133.583 158.018 134.18C158.018 134.6 157.938 134.917 157.78 135.132C157.621 135.347 157.397 135.529 157.108 135.678C157.462 135.827 157.728 136.07 157.906 136.406C158.092 136.733 158.186 137.073 158.186 137.428C158.186 138.1 157.948 138.613 157.472 138.968C156.996 139.323 156.333 139.5 155.484 139.5H152.46ZM153.426 138.478H155.372C155.82 138.478 156.179 138.394 156.45 138.226C156.73 138.049 156.87 137.783 156.87 137.428C156.87 137.055 156.744 136.784 156.492 136.616C156.24 136.439 155.866 136.35 155.372 136.35H153.426V138.478ZM153.426 135.314H155.288C155.736 135.314 156.09 135.216 156.352 135.02C156.622 134.824 156.758 134.549 156.758 134.194C156.758 133.83 156.622 133.583 156.352 133.452C156.09 133.312 155.736 133.242 155.288 133.242H153.426V135.314Z" fill="#443E3E"/>
<path d="M35 140.55H158.956V141.25H35V140.55Z" fill="#443E3E"/>
</svg>
