<svg width="188" height="40" viewBox="0 0 188 40" fill="none" xmlns="http://www.w3.org/2000/svg">
<path d="M4.734 16.406C4.602 16.406 4.494 16.364 4.41 16.28C4.326 16.196 4.284 16.088 4.284 15.956V12.662H1.08C0.948 12.662 0.834 12.62 0.738 12.536C0.654 12.452 0.612 12.344 0.612 12.212V10.898C0.612 10.766 0.654 10.658 0.738 10.574C0.834 10.49 0.948 10.448 1.08 10.448H4.284V7.244C4.284 7.112 4.326 7.004 4.41 6.92C4.494 6.836 4.602 6.794 4.734 6.794H6.21C6.33 6.794 6.432 6.836 6.516 6.92C6.612 7.004 6.66 7.112 6.66 7.244V10.448H9.846C9.978 10.448 10.086 10.49 10.17 10.574C10.254 10.658 10.296 10.766 10.296 10.898V12.212C10.296 12.344 10.254 12.452 10.17 12.536C10.086 12.62 9.978 12.662 9.846 12.662H6.66V15.956C6.66 16.088 6.612 16.196 6.516 16.28C6.432 16.364 6.33 16.406 6.21 16.406H4.734ZM16.6957 17.18C15.7597 17.18 14.9617 17.072 14.3017 16.856C13.6417 16.628 13.1017 16.34 12.6817 15.992C12.2617 15.632 11.9497 15.254 11.7457 14.858C11.5417 14.45 11.4337 14.06 11.4217 13.688C11.4217 13.58 11.4577 13.49 11.5297 13.418C11.6137 13.346 11.7097 13.31 11.8177 13.31H14.1577C14.3017 13.31 14.4157 13.34 14.4997 13.4C14.5837 13.448 14.6617 13.532 14.7337 13.652C14.8297 13.88 14.9677 14.066 15.1477 14.21C15.3397 14.354 15.5677 14.456 15.8317 14.516C16.0957 14.564 16.3837 14.588 16.6957 14.588C17.3077 14.588 17.7817 14.45 18.1177 14.174C18.4657 13.886 18.6397 13.496 18.6397 13.004C18.6397 12.488 18.4777 12.122 18.1537 11.906C17.8297 11.678 17.3677 11.564 16.7677 11.564H14.7697C14.6377 11.564 14.5297 11.522 14.4457 11.438C14.3617 11.354 14.3197 11.246 14.3197 11.114V10.106C14.3197 9.962 14.3497 9.836 14.4097 9.728C14.4697 9.62 14.5357 9.542 14.6077 9.494L17.5597 6.992H12.5557C12.4357 6.992 12.3277 6.95 12.2317 6.866C12.1477 6.782 12.1057 6.674 12.1057 6.542V4.85C12.1057 4.718 12.1477 4.61 12.2317 4.526C12.3277 4.442 12.4357 4.4 12.5557 4.4H20.8357C20.9677 4.4 21.0757 4.442 21.1597 4.526C21.2557 4.61 21.3037 4.718 21.3037 4.85V6.38C21.3037 6.512 21.2737 6.632 21.2137 6.74C21.1537 6.836 21.0877 6.914 21.0157 6.974L18.2797 9.512L18.4057 9.548C19.0897 9.632 19.7017 9.818 20.2417 10.106C20.7817 10.382 21.2077 10.772 21.5197 11.276C21.8317 11.78 21.9877 12.422 21.9877 13.202C21.9877 14.018 21.7537 14.726 21.2857 15.326C20.8297 15.914 20.2057 16.37 19.4137 16.694C18.6217 17.018 17.7157 17.18 16.6957 17.18ZM25.2489 17C25.1409 17 25.0509 16.964 24.9789 16.892C24.9069 16.808 24.8709 16.712 24.8709 16.604C24.8709 16.556 24.8829 16.502 24.9069 16.442L29.0649 7.118H23.6649C23.5449 7.118 23.4369 7.076 23.3409 6.992C23.2569 6.896 23.2149 6.782 23.2149 6.65V4.85C23.2149 4.718 23.2569 4.61 23.3409 4.526C23.4369 4.442 23.5449 4.4 23.6649 4.4H32.0889C32.2329 4.4 32.3469 4.442 32.4309 4.526C32.5149 4.61 32.5569 4.718 32.5569 4.85V6.452C32.5569 6.632 32.5389 6.782 32.5029 6.902C32.4669 7.022 32.4189 7.142 32.3589 7.262L28.2009 16.568C28.1649 16.64 28.0989 16.73 28.0029 16.838C27.9069 16.946 27.7629 17 27.5709 17H25.2489ZM38.7893 17.198C37.6613 17.198 36.7193 17.024 35.9633 16.676C35.2073 16.316 34.6313 15.854 34.2353 15.29C33.8513 14.714 33.6473 14.096 33.6233 13.436C33.6233 13.328 33.6593 13.238 33.7313 13.166C33.8033 13.094 33.8933 13.058 34.0013 13.058H36.4133C36.5693 13.058 36.6893 13.094 36.7733 13.166C36.8693 13.226 36.9413 13.304 36.9893 13.4C37.0973 13.676 37.2353 13.904 37.4033 14.084C37.5833 14.264 37.7873 14.396 38.0153 14.48C38.2553 14.564 38.5193 14.606 38.8073 14.606C39.1433 14.606 39.4553 14.534 39.7433 14.39C40.0313 14.246 40.2593 14.036 40.4273 13.76C40.6073 13.472 40.6973 13.13 40.6973 12.734C40.6973 12.374 40.6133 12.062 40.4453 11.798C40.2893 11.534 40.0673 11.324 39.7793 11.168C39.4913 11.012 39.1673 10.934 38.8073 10.934C38.5193 10.934 38.2853 10.97 38.1053 11.042C37.9253 11.102 37.7753 11.18 37.6553 11.276C37.5353 11.372 37.4273 11.456 37.3313 11.528C37.2353 11.588 37.1273 11.618 37.0073 11.618H34.6493C34.5413 11.618 34.4453 11.582 34.3613 11.51C34.2893 11.426 34.2533 11.33 34.2533 11.222L34.9013 4.94C34.9253 4.76 34.9913 4.628 35.0993 4.544C35.2073 4.448 35.3393 4.4 35.4953 4.4H42.7133C42.8453 4.4 42.9533 4.442 43.0373 4.526C43.1213 4.61 43.1633 4.718 43.1633 4.85V6.542C43.1633 6.674 43.1213 6.782 43.0373 6.866C42.9533 6.95 42.8453 6.992 42.7133 6.992H37.4933L37.2593 9.332C37.5233 9.152 37.8293 9.008 38.1773 8.9C38.5373 8.78 39.0233 8.72 39.6353 8.72C40.2113 8.72 40.7573 8.816 41.2733 9.008C41.8013 9.2 42.2693 9.476 42.6773 9.836C43.0973 10.196 43.4213 10.628 43.6493 11.132C43.8893 11.624 44.0093 12.182 44.0093 12.806C44.0093 13.658 43.7993 14.414 43.3793 15.074C42.9713 15.734 42.3773 16.256 41.5973 16.64C40.8173 17.012 39.8813 17.198 38.7893 17.198ZM54.546 19.862C53.718 19.862 52.974 19.7 52.314 19.376C51.666 19.064 51.114 18.572 50.658 17.9C50.202 17.228 49.854 16.358 49.614 15.29C49.374 14.222 49.254 12.938 49.254 11.438C49.254 9.938 49.374 8.654 49.614 7.586C49.854 6.518 50.202 5.654 50.658 4.994C51.114 4.322 51.666 3.83 52.314 3.518C52.974 3.194 53.718 3.032 54.546 3.032C54.666 3.032 54.768 3.08 54.852 3.176C54.948 3.26 54.996 3.362 54.996 3.482V5.012C54.996 5.132 54.948 5.234 54.852 5.318C54.768 5.402 54.672 5.45 54.564 5.462C54.072 5.486 53.658 5.636 53.322 5.912C52.998 6.188 52.74 6.578 52.548 7.082C52.368 7.586 52.236 8.204 52.152 8.936C52.068 9.668 52.026 10.502 52.026 11.438C52.026 12.374 52.068 13.208 52.152 13.94C52.236 14.672 52.368 15.296 52.548 15.812C52.74 16.316 52.998 16.706 53.322 16.982C53.658 17.258 54.072 17.408 54.564 17.432C54.672 17.444 54.768 17.492 54.852 17.576C54.948 17.66 54.996 17.762 54.996 17.882V19.412C54.996 19.532 54.948 19.634 54.852 19.718C54.768 19.814 54.666 19.862 54.546 19.862ZM56.4892 17C56.3572 17 56.2432 16.958 56.1472 16.874C56.0632 16.79 56.0212 16.682 56.0212 16.55V15.272C56.0212 15.188 56.0452 15.062 56.0932 14.894C56.1412 14.714 56.2672 14.546 56.4712 14.39L58.3432 12.554C59.3032 11.822 60.0892 11.204 60.7012 10.7C61.3252 10.184 61.7872 9.728 62.0872 9.332C62.3872 8.936 62.5372 8.564 62.5372 8.216C62.5372 7.808 62.4292 7.472 62.2132 7.208C62.0092 6.932 61.6492 6.794 61.1332 6.794C60.7852 6.794 60.4912 6.872 60.2512 7.028C60.0232 7.172 59.8492 7.364 59.7292 7.604C59.6092 7.844 59.5252 8.09 59.4772 8.342C59.4292 8.498 59.3452 8.606 59.2252 8.666C59.1172 8.726 58.9972 8.756 58.8652 8.756H56.6152C56.5072 8.756 56.4172 8.72 56.3452 8.648C56.2732 8.576 56.2372 8.486 56.2372 8.378C56.2492 7.802 56.3692 7.262 56.5972 6.758C56.8372 6.254 57.1672 5.81 57.5872 5.426C58.0192 5.03 58.5292 4.724 59.1172 4.508C59.7172 4.292 60.3892 4.184 61.1332 4.184C62.1532 4.184 63.0172 4.346 63.7252 4.67C64.4452 4.994 64.9912 5.45 65.3632 6.038C65.7352 6.614 65.9212 7.292 65.9212 8.072C65.9212 8.66 65.7892 9.212 65.5252 9.728C65.2732 10.232 64.9072 10.718 64.4272 11.186C63.9592 11.642 63.4012 12.116 62.7532 12.608L61.0972 14.282H65.7232C65.8552 14.282 65.9632 14.324 66.0472 14.408C66.1432 14.492 66.1912 14.6 66.1912 14.732V16.55C66.1912 16.682 66.1432 16.79 66.0472 16.874C65.9632 16.958 65.8552 17 65.7232 17H56.4892ZM70.1222 17C70.0142 17 69.9242 16.964 69.8522 16.892C69.7802 16.808 69.7442 16.712 69.7442 16.604C69.7442 16.544 69.7502 16.496 69.7622 16.46C69.7862 16.424 69.8042 16.394 69.8162 16.37L72.3542 12.896C72.1862 12.932 72.0122 12.95 71.8322 12.95C71.2922 12.914 70.7642 12.794 70.2482 12.59C69.7322 12.374 69.2642 12.086 68.8442 11.726C68.4362 11.354 68.1122 10.916 67.8722 10.412C67.6322 9.908 67.5122 9.344 67.5122 8.72C67.5122 8.144 67.6202 7.592 67.8362 7.064C68.0522 6.524 68.3762 6.044 68.8082 5.624C69.2402 5.192 69.7742 4.85 70.4102 4.598C71.0582 4.346 71.8082 4.22 72.6602 4.22C73.5122 4.22 74.2622 4.334 74.9102 4.562C75.5702 4.79 76.1222 5.108 76.5662 5.516C77.0222 5.912 77.3642 6.374 77.5922 6.902C77.8202 7.43 77.9342 7.994 77.9342 8.594C77.9342 9.146 77.8322 9.656 77.6282 10.124C77.4362 10.592 77.1962 11.036 76.9082 11.456C76.6202 11.864 76.3322 12.278 76.0442 12.698L73.1642 16.64C73.1162 16.7 73.0442 16.778 72.9482 16.874C72.8522 16.958 72.7082 17 72.5162 17H70.1222ZM72.6962 10.592C73.0562 10.592 73.3802 10.514 73.6682 10.358C73.9562 10.202 74.1842 9.986 74.3522 9.71C74.5202 9.434 74.6042 9.098 74.6042 8.702C74.6042 8.306 74.5202 7.97 74.3522 7.694C74.1842 7.406 73.9562 7.19 73.6682 7.046C73.3802 6.89 73.0562 6.812 72.6962 6.812C72.3482 6.812 72.0302 6.89 71.7422 7.046C71.4542 7.19 71.2262 7.406 71.0582 7.694C70.8902 7.97 70.8062 8.306 70.8062 8.702C70.8062 9.098 70.8902 9.434 71.0582 9.71C71.2262 9.986 71.4542 10.202 71.7422 10.358C72.0302 10.514 72.3482 10.592 72.6962 10.592ZM79.157 19.862C79.037 19.862 78.929 19.814 78.833 19.718C78.749 19.634 78.707 19.532 78.707 19.412V17.882C78.707 17.762 78.749 17.66 78.833 17.576C78.929 17.492 79.031 17.444 79.139 17.432C79.631 17.408 80.039 17.258 80.363 16.982C80.699 16.706 80.957 16.316 81.137 15.812C81.329 15.296 81.467 14.672 81.551 13.94C81.635 13.208 81.677 12.374 81.677 11.438C81.677 10.502 81.635 9.668 81.551 8.936C81.467 8.204 81.329 7.586 81.137 7.082C80.957 6.578 80.699 6.188 80.363 5.912C80.039 5.636 79.631 5.486 79.139 5.462C79.031 5.45 78.929 5.402 78.833 5.318C78.749 5.234 78.707 5.132 78.707 5.012V3.482C78.707 3.362 78.749 3.26 78.833 3.176C78.929 3.08 79.037 3.032 79.157 3.032C79.985 3.032 80.723 3.194 81.371 3.518C82.031 3.83 82.589 4.322 83.045 4.994C83.501 5.654 83.849 6.518 84.089 7.586C84.329 8.654 84.449 9.938 84.449 11.438C84.449 12.938 84.329 14.222 84.089 15.29C83.849 16.358 83.501 17.228 83.045 17.9C82.589 18.572 82.031 19.064 81.371 19.376C80.723 19.7 79.985 19.862 79.157 19.862ZM94.0192 17C93.8992 17 93.7912 16.958 93.6952 16.874C93.6112 16.79 93.5692 16.682 93.5692 16.55V7.982L91.1032 9.872C90.9952 9.956 90.8812 9.986 90.7612 9.962C90.6532 9.938 90.5572 9.872 90.4732 9.764L89.4112 8.378C89.3392 8.27 89.3092 8.156 89.3212 8.036C89.3452 7.904 89.4172 7.802 89.5372 7.73L93.6772 4.526C93.7492 4.478 93.8152 4.448 93.8752 4.436C93.9472 4.412 94.0252 4.4 94.1092 4.4H96.3592C96.4792 4.4 96.5812 4.442 96.6652 4.526C96.7612 4.61 96.8092 4.718 96.8092 4.85V16.55C96.8092 16.682 96.7612 16.79 96.6652 16.874C96.5812 16.958 96.4792 17 96.3592 17H94.0192ZM104.982 17C104.862 17 104.754 16.958 104.658 16.874C104.574 16.79 104.532 16.682 104.532 16.55V14.516H98.9345C98.8145 14.516 98.7065 14.474 98.6105 14.39C98.5265 14.306 98.4845 14.198 98.4845 14.066V12.356C98.4845 12.248 98.5025 12.152 98.5385 12.068C98.5865 11.972 98.6345 11.882 98.6825 11.798L103.92 4.706C104.076 4.502 104.298 4.4 104.586 4.4H107.196C107.328 4.4 107.436 4.442 107.52 4.526C107.616 4.61 107.664 4.718 107.664 4.85V11.834H109.248C109.392 11.834 109.506 11.882 109.59 11.978C109.674 12.062 109.716 12.164 109.716 12.284V14.066C109.716 14.198 109.668 14.306 109.572 14.39C109.488 14.474 109.386 14.516 109.266 14.516H107.664V16.55C107.664 16.682 107.616 16.79 107.52 16.874C107.436 16.958 107.328 17 107.196 17H104.982ZM101.58 11.96H104.604V7.712L101.58 11.96ZM117.252 17C117.132 17 117.024 16.958 116.928 16.874C116.844 16.79 116.802 16.682 116.802 16.55V14.516H111.204C111.084 14.516 110.976 14.474 110.88 14.39C110.796 14.306 110.754 14.198 110.754 14.066V12.356C110.754 12.248 110.772 12.152 110.808 12.068C110.856 11.972 110.904 11.882 110.952 11.798L116.19 4.706C116.346 4.502 116.568 4.4 116.856 4.4H119.466C119.598 4.4 119.706 4.442 119.79 4.526C119.886 4.61 119.934 4.718 119.934 4.85V11.834H121.518C121.662 11.834 121.776 11.882 121.86 11.978C121.944 12.062 121.986 12.164 121.986 12.284V14.066C121.986 14.198 121.938 14.306 121.842 14.39C121.758 14.474 121.656 14.516 121.536 14.516H119.934V16.55C119.934 16.682 119.886 16.79 119.79 16.874C119.706 16.958 119.598 17 119.466 17H117.252ZM113.85 11.96H116.874V7.712L113.85 11.96ZM123.996 12.896C123.864 12.896 123.756 12.854 123.672 12.77C123.588 12.686 123.546 12.578 123.546 12.446V10.754C123.546 10.622 123.588 10.514 123.672 10.43C123.756 10.346 123.864 10.304 123.996 10.304H129.63C129.762 10.304 129.87 10.346 129.954 10.43C130.038 10.514 130.08 10.622 130.08 10.754V12.446C130.08 12.578 130.038 12.686 129.954 12.77C129.87 12.854 129.762 12.896 129.63 12.896H123.996ZM131.829 17C131.697 17 131.583 16.958 131.487 16.874C131.403 16.79 131.361 16.682 131.361 16.55V15.272C131.361 15.188 131.385 15.062 131.433 14.894C131.481 14.714 131.607 14.546 131.811 14.39L133.683 12.554C134.643 11.822 135.429 11.204 136.041 10.7C136.665 10.184 137.127 9.728 137.427 9.332C137.727 8.936 137.877 8.564 137.877 8.216C137.877 7.808 137.769 7.472 137.553 7.208C137.349 6.932 136.989 6.794 136.473 6.794C136.125 6.794 135.831 6.872 135.591 7.028C135.363 7.172 135.189 7.364 135.069 7.604C134.949 7.844 134.865 8.09 134.817 8.342C134.769 8.498 134.685 8.606 134.565 8.666C134.457 8.726 134.337 8.756 134.205 8.756H131.955C131.847 8.756 131.757 8.72 131.685 8.648C131.613 8.576 131.577 8.486 131.577 8.378C131.589 7.802 131.709 7.262 131.937 6.758C132.177 6.254 132.507 5.81 132.927 5.426C133.359 5.03 133.869 4.724 134.457 4.508C135.057 4.292 135.729 4.184 136.473 4.184C137.493 4.184 138.357 4.346 139.065 4.67C139.785 4.994 140.331 5.45 140.703 6.038C141.075 6.614 141.261 7.292 141.261 8.072C141.261 8.66 141.129 9.212 140.865 9.728C140.613 10.232 140.247 10.718 139.767 11.186C139.299 11.642 138.741 12.116 138.093 12.608L136.437 14.282H141.063C141.195 14.282 141.303 14.324 141.387 14.408C141.483 14.492 141.531 14.6 141.531 14.732V16.55C141.531 16.682 141.483 16.79 141.387 16.874C141.303 16.958 141.195 17 141.063 17H131.829ZM149.262 17C149.142 17 149.034 16.958 148.938 16.874C148.854 16.79 148.812 16.682 148.812 16.55V14.516H143.214C143.094 14.516 142.986 14.474 142.89 14.39C142.806 14.306 142.764 14.198 142.764 14.066V12.356C142.764 12.248 142.782 12.152 142.818 12.068C142.866 11.972 142.914 11.882 142.962 11.798L148.2 4.706C148.356 4.502 148.578 4.4 148.866 4.4H151.476C151.608 4.4 151.716 4.442 151.8 4.526C151.896 4.61 151.944 4.718 151.944 4.85V11.834H153.528C153.672 11.834 153.786 11.882 153.87 11.978C153.954 12.062 153.996 12.164 153.996 12.284V14.066C153.996 14.198 153.948 14.306 153.852 14.39C153.768 14.474 153.666 14.516 153.546 14.516H151.944V16.55C151.944 16.682 151.896 16.79 151.8 16.874C151.716 16.958 151.608 17 151.476 17H149.262ZM145.86 11.96H148.884V7.712L145.86 11.96ZM156.005 12.896C155.873 12.896 155.765 12.854 155.681 12.77C155.597 12.686 155.555 12.578 155.555 12.446V10.754C155.555 10.622 155.597 10.514 155.681 10.43C155.765 10.346 155.873 10.304 156.005 10.304H161.639C161.771 10.304 161.879 10.346 161.963 10.43C162.047 10.514 162.089 10.622 162.089 10.754V12.446C162.089 12.578 162.047 12.686 161.963 12.77C161.879 12.854 161.771 12.896 161.639 12.896H156.005ZM168.782 17.18C167.846 17.18 167.048 17.072 166.388 16.856C165.728 16.628 165.188 16.34 164.768 15.992C164.348 15.632 164.036 15.254 163.832 14.858C163.628 14.45 163.52 14.06 163.508 13.688C163.508 13.58 163.544 13.49 163.616 13.418C163.7 13.346 163.796 13.31 163.904 13.31H166.244C166.388 13.31 166.502 13.34 166.586 13.4C166.67 13.448 166.748 13.532 166.82 13.652C166.916 13.88 167.054 14.066 167.234 14.21C167.426 14.354 167.654 14.456 167.918 14.516C168.182 14.564 168.47 14.588 168.782 14.588C169.394 14.588 169.868 14.45 170.204 14.174C170.552 13.886 170.726 13.496 170.726 13.004C170.726 12.488 170.564 12.122 170.24 11.906C169.916 11.678 169.454 11.564 168.854 11.564H166.856C166.724 11.564 166.616 11.522 166.532 11.438C166.448 11.354 166.406 11.246 166.406 11.114V10.106C166.406 9.962 166.436 9.836 166.496 9.728C166.556 9.62 166.622 9.542 166.694 9.494L169.646 6.992H164.642C164.522 6.992 164.414 6.95 164.318 6.866C164.234 6.782 164.192 6.674 164.192 6.542V4.85C164.192 4.718 164.234 4.61 164.318 4.526C164.414 4.442 164.522 4.4 164.642 4.4H172.922C173.054 4.4 173.162 4.442 173.246 4.526C173.342 4.61 173.39 4.718 173.39 4.85V6.38C173.39 6.512 173.36 6.632 173.3 6.74C173.24 6.836 173.174 6.914 173.102 6.974L170.366 9.512L170.492 9.548C171.176 9.632 171.788 9.818 172.328 10.106C172.868 10.382 173.294 10.772 173.606 11.276C173.918 11.78 174.074 12.422 174.074 13.202C174.074 14.018 173.84 14.726 173.372 15.326C172.916 15.914 172.292 16.37 171.5 16.694C170.708 17.018 169.802 17.18 168.782 17.18ZM181.799 17C181.679 17 181.571 16.958 181.475 16.874C181.391 16.79 181.349 16.682 181.349 16.55V14.516H175.751C175.631 14.516 175.523 14.474 175.427 14.39C175.343 14.306 175.301 14.198 175.301 14.066V12.356C175.301 12.248 175.319 12.152 175.355 12.068C175.403 11.972 175.451 11.882 175.499 11.798L180.737 4.706C180.893 4.502 181.115 4.4 181.403 4.4H184.013C184.145 4.4 184.253 4.442 184.337 4.526C184.433 4.61 184.481 4.718 184.481 4.85V11.834H186.065C186.209 11.834 186.323 11.882 186.407 11.978C186.491 12.062 186.533 12.164 186.533 12.284V14.066C186.533 14.198 186.485 14.306 186.389 14.39C186.305 14.474 186.203 14.516 186.083 14.516H184.481V16.55C184.481 16.682 184.433 16.79 184.337 16.874C184.253 16.958 184.145 17 184.013 17H181.799ZM178.397 11.96H181.421V7.712L178.397 11.96Z" fill="#443E3E"/>
<path d="M3.408 37.12C2.84 37.12 2.348 37.012 1.932 36.796C1.524 36.572 1.208 36.256 0.984 35.848C0.76 35.432 0.64 34.936 0.624 34.36C0.616 34.24 0.612 34.08 0.612 33.88C0.612 33.68 0.616 33.52 0.624 33.4C0.64 32.824 0.76 32.332 0.984 31.924C1.208 31.508 1.524 31.192 1.932 30.976C2.348 30.752 2.84 30.64 3.408 30.64C3.872 30.64 4.268 30.704 4.596 30.832C4.932 30.96 5.208 31.124 5.424 31.324C5.64 31.524 5.8 31.74 5.904 31.972C6.016 32.204 6.076 32.424 6.084 32.632C6.092 32.712 6.068 32.776 6.012 32.824C5.956 32.872 5.888 32.896 5.808 32.896H5.232C5.152 32.896 5.092 32.88 5.052 32.848C5.012 32.808 4.972 32.744 4.932 32.656C4.788 32.264 4.592 31.988 4.344 31.828C4.096 31.668 3.788 31.588 3.42 31.588C2.94 31.588 2.548 31.736 2.244 32.032C1.948 32.328 1.788 32.804 1.764 33.46C1.756 33.748 1.756 34.028 1.764 34.3C1.788 34.964 1.948 35.444 2.244 35.74C2.548 36.028 2.94 36.172 3.42 36.172C3.788 36.172 4.096 36.092 4.344 35.932C4.592 35.772 4.788 35.496 4.932 35.104C4.972 35.016 5.012 34.956 5.052 34.924C5.092 34.884 5.152 34.864 5.232 34.864H5.808C5.888 34.864 5.956 34.888 6.012 34.936C6.068 34.984 6.092 35.048 6.084 35.128C6.076 35.296 6.04 35.468 5.976 35.644C5.912 35.82 5.808 36 5.664 36.184C5.528 36.36 5.356 36.52 5.148 36.664C4.94 36.8 4.688 36.912 4.392 37C4.104 37.08 3.776 37.12 3.408 37.12ZM11.8785 37C11.8065 37 11.7465 36.976 11.6985 36.928C11.6585 36.872 11.6385 36.808 11.6385 36.736C11.6385 36.696 11.6425 36.664 11.6505 36.64C11.6665 36.616 11.6785 36.596 11.6865 36.58L13.5225 34.024C13.3225 34.072 13.1065 34.096 12.8745 34.096C12.4265 34.088 12.0265 34.008 11.6745 33.856C11.3225 33.704 11.0225 33.5 10.7745 33.244C10.5265 32.98 10.3385 32.684 10.2105 32.356C10.0825 32.028 10.0185 31.684 10.0185 31.324C10.0185 30.972 10.0785 30.628 10.1985 30.292C10.3265 29.956 10.5145 29.652 10.7625 29.38C11.0185 29.108 11.3345 28.892 11.7105 28.732C12.0865 28.564 12.5305 28.48 13.0425 28.48C13.5465 28.48 13.9865 28.56 14.3625 28.72C14.7465 28.872 15.0665 29.084 15.3225 29.356C15.5865 29.62 15.7785 29.92 15.8985 30.256C16.0265 30.592 16.0905 30.94 16.0905 31.3C16.0905 31.628 16.0425 31.928 15.9465 32.2C15.8505 32.472 15.7345 32.716 15.5985 32.932C15.4705 33.148 15.3425 33.348 15.2145 33.532L12.9105 36.76C12.8785 36.8 12.8345 36.852 12.7785 36.916C12.7225 36.972 12.6385 37 12.5265 37H11.8785ZM13.0425 33.124C13.3785 33.124 13.6865 33.052 13.9665 32.908C14.2545 32.756 14.4825 32.548 14.6505 32.284C14.8185 32.012 14.9025 31.688 14.9025 31.312C14.9025 30.936 14.8185 30.616 14.6505 30.352C14.4825 30.08 14.2545 29.872 13.9665 29.728C13.6865 29.576 13.3785 29.5 13.0425 29.5C12.7145 29.5 12.4105 29.576 12.1305 29.728C11.8505 29.872 11.6265 30.08 11.4585 30.352C11.2905 30.616 11.2065 30.936 11.2065 31.312C11.2065 31.688 11.2905 32.012 11.4585 32.284C11.6265 32.548 11.8505 32.756 12.1305 32.908C12.4105 33.052 12.7145 33.124 13.0425 33.124ZM17.7798 32.8C17.6998 32.8 17.6318 32.776 17.5758 32.728C17.5278 32.672 17.5038 32.604 17.5038 32.524V31.684C17.5038 31.604 17.5278 31.54 17.5758 31.492C17.6318 31.436 17.6998 31.408 17.7798 31.408H18.6318C18.7198 31.408 18.7878 31.436 18.8358 31.492C18.8918 31.54 18.9198 31.604 18.9198 31.684V32.524C18.9198 32.604 18.8918 32.672 18.8358 32.728C18.7878 32.776 18.7198 32.8 18.6318 32.8H17.7798ZM17.7798 37C17.6998 37 17.6318 36.976 17.5758 36.928C17.5278 36.872 17.5038 36.804 17.5038 36.724V35.884C17.5038 35.804 17.5278 35.74 17.5758 35.692C17.6318 35.636 17.6998 35.608 17.7798 35.608H18.6318C18.7198 35.608 18.7878 35.636 18.8358 35.692C18.8918 35.74 18.9198 35.804 18.9198 35.884V36.724C18.9198 36.804 18.8918 36.872 18.8358 36.928C18.7878 36.976 18.7198 37 18.6318 37H17.7798ZM23.5501 37.12C22.9981 37.12 22.5301 37.036 22.1461 36.868C21.7701 36.692 21.4621 36.452 21.2221 36.148C20.9821 35.844 20.8061 35.496 20.6941 35.104C20.5901 34.712 20.5301 34.296 20.5141 33.856C20.5061 33.64 20.4981 33.412 20.4901 33.172C20.4901 32.932 20.4901 32.692 20.4901 32.452C20.4981 32.204 20.5061 31.968 20.5141 31.744C20.5221 31.304 20.5821 30.888 20.6941 30.496C20.8141 30.096 20.9901 29.748 21.2221 29.452C21.4621 29.148 21.7741 28.912 22.1581 28.744C22.5421 28.568 23.0061 28.48 23.5501 28.48C24.1021 28.48 24.5661 28.568 24.9421 28.744C25.3261 28.912 25.6381 29.148 25.8781 29.452C26.1181 29.748 26.2941 30.096 26.4061 30.496C26.5261 30.888 26.5901 31.304 26.5981 31.744C26.6061 31.968 26.6101 32.204 26.6101 32.452C26.6181 32.692 26.6181 32.932 26.6101 33.172C26.6101 33.412 26.6061 33.64 26.5981 33.856C26.5901 34.296 26.5261 34.712 26.4061 35.104C26.2941 35.496 26.1181 35.844 25.8781 36.148C25.6461 36.452 25.3381 36.692 24.9541 36.868C24.5781 37.036 24.1101 37.12 23.5501 37.12ZM23.5501 36.1C24.1741 36.1 24.6341 35.896 24.9301 35.488C25.2341 35.072 25.3901 34.508 25.3981 33.796C25.4141 33.564 25.4221 33.34 25.4221 33.124C25.4221 32.9 25.4221 32.68 25.4221 32.464C25.4221 32.24 25.4141 32.02 25.3981 31.804C25.3901 31.108 25.2341 30.552 24.9301 30.136C24.6341 29.712 24.1741 29.5 23.5501 29.5C22.9341 29.5 22.4741 29.712 22.1701 30.136C21.8741 30.552 21.7181 31.108 21.7021 31.804C21.7021 32.02 21.6981 32.24 21.6901 32.464C21.6901 32.68 21.6901 32.9 21.6901 33.124C21.6981 33.34 21.7021 33.564 21.7021 33.796C21.7181 34.508 21.8781 35.072 22.1821 35.488C22.4861 35.896 22.9421 36.1 23.5501 36.1ZM31.1673 37.12C30.6153 37.12 30.1473 37.036 29.7633 36.868C29.3873 36.692 29.0793 36.452 28.8393 36.148C28.5993 35.844 28.4233 35.496 28.3113 35.104C28.2073 34.712 28.1473 34.296 28.1313 33.856C28.1233 33.64 28.1153 33.412 28.1073 33.172C28.1073 32.932 28.1073 32.692 28.1073 32.452C28.1153 32.204 28.1233 31.968 28.1313 31.744C28.1393 31.304 28.1993 30.888 28.3113 30.496C28.4313 30.096 28.6073 29.748 28.8393 29.452C29.0793 29.148 29.3913 28.912 29.7753 28.744C30.1593 28.568 30.6233 28.48 31.1673 28.48C31.7193 28.48 32.1833 28.568 32.5593 28.744C32.9433 28.912 33.2553 29.148 33.4953 29.452C33.7353 29.748 33.9113 30.096 34.0233 30.496C34.1433 30.888 34.2073 31.304 34.2153 31.744C34.2233 31.968 34.2273 32.204 34.2273 32.452C34.2353 32.692 34.2353 32.932 34.2273 33.172C34.2273 33.412 34.2233 33.64 34.2153 33.856C34.2073 34.296 34.1433 34.712 34.0233 35.104C33.9113 35.496 33.7353 35.844 33.4953 36.148C33.2633 36.452 32.9553 36.692 32.5713 36.868C32.1953 37.036 31.7273 37.12 31.1673 37.12ZM31.1673 36.1C31.7913 36.1 32.2513 35.896 32.5473 35.488C32.8513 35.072 33.0073 34.508 33.0153 33.796C33.0313 33.564 33.0393 33.34 33.0393 33.124C33.0393 32.9 33.0393 32.68 33.0393 32.464C33.0393 32.24 33.0313 32.02 33.0153 31.804C33.0073 31.108 32.8513 30.552 32.5473 30.136C32.2513 29.712 31.7913 29.5 31.1673 29.5C30.5513 29.5 30.0913 29.712 29.7873 30.136C29.4913 30.552 29.3353 31.108 29.3193 31.804C29.3193 32.02 29.3153 32.24 29.3073 32.464C29.3073 32.68 29.3073 32.9 29.3073 33.124C29.3153 33.34 29.3193 33.564 29.3193 33.796C29.3353 34.508 29.4953 35.072 29.7993 35.488C30.1033 35.896 30.5593 36.1 31.1673 36.1ZM38.4499 38.32C38.3699 38.32 38.3019 38.292 38.2459 38.236C38.1979 38.188 38.1739 38.124 38.1739 38.044V36.316C38.1739 36.236 38.1979 36.172 38.2459 36.124C38.3019 36.068 38.3699 36.04 38.4499 36.04H38.5099C38.7259 36.032 38.9099 35.912 39.0619 35.68C39.2139 35.44 39.3299 35.068 39.4099 34.564C39.4899 34.052 39.5299 33.388 39.5299 32.572V31.036C39.5299 30.956 39.5539 30.892 39.6019 30.844C39.6579 30.788 39.7259 30.76 39.8059 30.76H43.6339C43.7139 30.76 43.7779 30.788 43.8259 30.844C43.8819 30.892 43.9099 30.956 43.9099 31.036V36.016H44.4739C44.5619 36.016 44.6299 36.044 44.6779 36.1C44.7259 36.148 44.7499 36.212 44.7499 36.292V38.044C44.7499 38.124 44.7259 38.188 44.6779 38.236C44.6299 38.292 44.5619 38.32 44.4739 38.32H43.9099C43.8299 38.32 43.7619 38.292 43.7059 38.236C43.6579 38.188 43.6339 38.124 43.6339 38.044V37H39.2899V38.044C39.2899 38.124 39.2619 38.188 39.2059 38.236C39.1579 38.292 39.0939 38.32 39.0139 38.32H38.4499ZM39.9379 36.04L42.7939 36.016V31.72H40.6219V32.704C40.6219 33.552 40.5619 34.248 40.4419 34.792C40.3219 35.328 40.1539 35.744 39.9379 36.04ZM48.5612 37.12C47.9532 37.12 47.4452 37.004 47.0372 36.772C46.6292 36.54 46.3172 36.22 46.1012 35.812C45.8852 35.396 45.7652 34.924 45.7412 34.396C45.7332 34.26 45.7292 34.088 45.7292 33.88C45.7292 33.664 45.7332 33.492 45.7412 33.364C45.7652 32.828 45.8852 32.356 46.1012 31.948C46.3252 31.54 46.6412 31.22 47.0492 30.988C47.4572 30.756 47.9612 30.64 48.5612 30.64C49.1612 30.64 49.6652 30.756 50.0732 30.988C50.4812 31.22 50.7932 31.54 51.0092 31.948C51.2332 32.356 51.3572 32.828 51.3812 33.364C51.3892 33.492 51.3932 33.664 51.3932 33.88C51.3932 34.088 51.3892 34.26 51.3812 34.396C51.3572 34.924 51.2372 35.396 51.0212 35.812C50.8052 36.22 50.4932 36.54 50.0852 36.772C49.6772 37.004 49.1692 37.12 48.5612 37.12ZM48.5612 36.196C49.0572 36.196 49.4532 36.04 49.7492 35.728C50.0452 35.408 50.2052 34.944 50.2292 34.336C50.2372 34.216 50.2412 34.064 50.2412 33.88C50.2412 33.696 50.2372 33.544 50.2292 33.424C50.2052 32.816 50.0452 32.356 49.7492 32.044C49.4532 31.724 49.0572 31.564 48.5612 31.564C48.0652 31.564 47.6652 31.724 47.3612 32.044C47.0652 32.356 46.9092 32.816 46.8932 33.424C46.8852 33.544 46.8812 33.696 46.8812 33.88C46.8812 34.064 46.8852 34.216 46.8932 34.336C46.9092 34.944 47.0652 35.408 47.3612 35.728C47.6652 36.04 48.0652 36.196 48.5612 36.196ZM58.2612 37C58.1812 37 58.1132 36.976 58.0572 36.928C58.0092 36.872 57.9852 36.804 57.9852 36.724V30.004L55.9932 31.54C55.9292 31.588 55.8612 31.608 55.7892 31.6C55.7172 31.592 55.6572 31.556 55.6092 31.492L55.2972 31.096C55.2492 31.024 55.2292 30.952 55.2372 30.88C55.2532 30.808 55.2932 30.748 55.3572 30.7L57.9732 28.684C58.0292 28.644 58.0812 28.62 58.1292 28.612C58.1772 28.604 58.2292 28.6 58.2852 28.6H58.8972C58.9772 28.6 59.0412 28.628 59.0892 28.684C59.1372 28.732 59.1612 28.796 59.1612 28.876V36.724C59.1612 36.804 59.1372 36.872 59.0892 36.928C59.0412 36.976 58.9772 37 58.8972 37H58.2612ZM62.398 37C62.326 37 62.266 36.976 62.218 36.928C62.178 36.872 62.158 36.808 62.158 36.736C62.158 36.696 62.162 36.664 62.17 36.64C62.186 36.616 62.198 36.596 62.206 36.58L64.042 34.024C63.842 34.072 63.626 34.096 63.394 34.096C62.946 34.088 62.546 34.008 62.194 33.856C61.842 33.704 61.542 33.5 61.294 33.244C61.046 32.98 60.858 32.684 60.73 32.356C60.602 32.028 60.538 31.684 60.538 31.324C60.538 30.972 60.598 30.628 60.718 30.292C60.846 29.956 61.034 29.652 61.282 29.38C61.538 29.108 61.854 28.892 62.23 28.732C62.606 28.564 63.05 28.48 63.562 28.48C64.066 28.48 64.506 28.56 64.882 28.72C65.266 28.872 65.586 29.084 65.842 29.356C66.106 29.62 66.298 29.92 66.418 30.256C66.546 30.592 66.61 30.94 66.61 31.3C66.61 31.628 66.562 31.928 66.466 32.2C66.37 32.472 66.254 32.716 66.118 32.932C65.99 33.148 65.862 33.348 65.734 33.532L63.43 36.76C63.398 36.8 63.354 36.852 63.298 36.916C63.242 36.972 63.158 37 63.046 37H62.398ZM63.562 33.124C63.898 33.124 64.206 33.052 64.486 32.908C64.774 32.756 65.002 32.548 65.17 32.284C65.338 32.012 65.422 31.688 65.422 31.312C65.422 30.936 65.338 30.616 65.17 30.352C65.002 30.08 64.774 29.872 64.486 29.728C64.206 29.576 63.898 29.5 63.562 29.5C63.234 29.5 62.93 29.576 62.65 29.728C62.37 29.872 62.146 30.08 61.978 30.352C61.81 30.616 61.726 30.936 61.726 31.312C61.726 31.688 61.81 32.012 61.978 32.284C62.146 32.548 62.37 32.756 62.65 32.908C62.93 33.052 63.234 33.124 63.562 33.124ZM68.2993 32.8C68.2193 32.8 68.1513 32.776 68.0953 32.728C68.0473 32.672 68.0233 32.604 68.0233 32.524V31.684C68.0233 31.604 68.0473 31.54 68.0953 31.492C68.1513 31.436 68.2193 31.408 68.2993 31.408H69.1513C69.2393 31.408 69.3073 31.436 69.3553 31.492C69.4113 31.54 69.4393 31.604 69.4393 31.684V32.524C69.4393 32.604 69.4113 32.672 69.3553 32.728C69.3073 32.776 69.2393 32.8 69.1513 32.8H68.2993ZM68.2993 37C68.2193 37 68.1513 36.976 68.0953 36.928C68.0473 36.872 68.0233 36.804 68.0233 36.724V35.884C68.0233 35.804 68.0473 35.74 68.0953 35.692C68.1513 35.636 68.2193 35.608 68.2993 35.608H69.1513C69.2393 35.608 69.3073 35.636 69.3553 35.692C69.4113 35.74 69.4393 35.804 69.4393 35.884V36.724C69.4393 36.804 69.4113 36.872 69.3553 36.928C69.3073 36.976 69.2393 37 69.1513 37H68.2993ZM74.0696 37.12C73.5176 37.12 73.0496 37.036 72.6656 36.868C72.2896 36.692 71.9816 36.452 71.7416 36.148C71.5016 35.844 71.3256 35.496 71.2136 35.104C71.1096 34.712 71.0496 34.296 71.0336 33.856C71.0256 33.64 71.0176 33.412 71.0096 33.172C71.0096 32.932 71.0096 32.692 71.0096 32.452C71.0176 32.204 71.0256 31.968 71.0336 31.744C71.0416 31.304 71.1016 30.888 71.2136 30.496C71.3336 30.096 71.5096 29.748 71.7416 29.452C71.9816 29.148 72.2936 28.912 72.6776 28.744C73.0616 28.568 73.5256 28.48 74.0696 28.48C74.6216 28.48 75.0856 28.568 75.4616 28.744C75.8456 28.912 76.1576 29.148 76.3976 29.452C76.6376 29.748 76.8136 30.096 76.9256 30.496C77.0456 30.888 77.1096 31.304 77.1176 31.744C77.1256 31.968 77.1296 32.204 77.1296 32.452C77.1376 32.692 77.1376 32.932 77.1296 33.172C77.1296 33.412 77.1256 33.64 77.1176 33.856C77.1096 34.296 77.0456 34.712 76.9256 35.104C76.8136 35.496 76.6376 35.844 76.3976 36.148C76.1656 36.452 75.8576 36.692 75.4736 36.868C75.0976 37.036 74.6296 37.12 74.0696 37.12ZM74.0696 36.1C74.6936 36.1 75.1536 35.896 75.4496 35.488C75.7536 35.072 75.9096 34.508 75.9176 33.796C75.9336 33.564 75.9416 33.34 75.9416 33.124C75.9416 32.9 75.9416 32.68 75.9416 32.464C75.9416 32.24 75.9336 32.02 75.9176 31.804C75.9096 31.108 75.7536 30.552 75.4496 30.136C75.1536 29.712 74.6936 29.5 74.0696 29.5C73.4536 29.5 72.9936 29.712 72.6896 30.136C72.3936 30.552 72.2376 31.108 72.2216 31.804C72.2216 32.02 72.2176 32.24 72.2096 32.464C72.2096 32.68 72.2096 32.9 72.2096 33.124C72.2176 33.34 72.2216 33.564 72.2216 33.796C72.2376 34.508 72.3976 35.072 72.7016 35.488C73.0056 35.896 73.4616 36.1 74.0696 36.1ZM81.6868 37.12C81.1348 37.12 80.6668 37.036 80.2828 36.868C79.9068 36.692 79.5988 36.452 79.3588 36.148C79.1188 35.844 78.9428 35.496 78.8308 35.104C78.7268 34.712 78.6668 34.296 78.6508 33.856C78.6428 33.64 78.6348 33.412 78.6268 33.172C78.6268 32.932 78.6268 32.692 78.6268 32.452C78.6348 32.204 78.6428 31.968 78.6508 31.744C78.6588 31.304 78.7188 30.888 78.8308 30.496C78.9508 30.096 79.1268 29.748 79.3588 29.452C79.5988 29.148 79.9108 28.912 80.2948 28.744C80.6788 28.568 81.1428 28.48 81.6868 28.48C82.2388 28.48 82.7028 28.568 83.0788 28.744C83.4628 28.912 83.7748 29.148 84.0148 29.452C84.2548 29.748 84.4308 30.096 84.5428 30.496C84.6628 30.888 84.7268 31.304 84.7348 31.744C84.7428 31.968 84.7468 32.204 84.7468 32.452C84.7548 32.692 84.7548 32.932 84.7468 33.172C84.7468 33.412 84.7428 33.64 84.7348 33.856C84.7268 34.296 84.6628 34.712 84.5428 35.104C84.4308 35.496 84.2548 35.844 84.0148 36.148C83.7828 36.452 83.4748 36.692 83.0908 36.868C82.7148 37.036 82.2468 37.12 81.6868 37.12ZM81.6868 36.1C82.3108 36.1 82.7708 35.896 83.0668 35.488C83.3708 35.072 83.5268 34.508 83.5348 33.796C83.5508 33.564 83.5588 33.34 83.5588 33.124C83.5588 32.9 83.5588 32.68 83.5588 32.464C83.5588 32.24 83.5508 32.02 83.5348 31.804C83.5268 31.108 83.3708 30.552 83.0668 30.136C82.7708 29.712 82.3108 29.5 81.6868 29.5C81.0708 29.5 80.6108 29.712 80.3068 30.136C80.0108 30.552 79.8548 31.108 79.8388 31.804C79.8388 32.02 79.8348 32.24 79.8268 32.464C79.8268 32.68 79.8268 32.9 79.8268 33.124C79.8348 33.34 79.8388 33.564 79.8388 33.796C79.8548 34.508 80.0148 35.072 80.3188 35.488C80.6228 35.896 81.0788 36.1 81.6868 36.1ZM91.8134 37.12C90.9894 37.12 90.3334 36.868 89.8454 36.364C89.3574 35.852 89.0894 35.156 89.0414 34.276C89.0334 34.172 89.0294 34.04 89.0294 33.88C89.0294 33.712 89.0334 33.576 89.0414 33.472C89.0734 32.904 89.2054 32.408 89.4374 31.984C89.6694 31.552 89.9854 31.22 90.3854 30.988C90.7934 30.756 91.2694 30.64 91.8134 30.64C92.4214 30.64 92.9294 30.768 93.3374 31.024C93.7534 31.28 94.0694 31.644 94.2854 32.116C94.5014 32.588 94.6094 33.14 94.6094 33.772V33.976C94.6094 34.064 94.5814 34.132 94.5254 34.18C94.4774 34.228 94.4134 34.252 94.3334 34.252H90.1814C90.1814 34.26 90.1814 34.276 90.1814 34.3C90.1814 34.324 90.1814 34.344 90.1814 34.36C90.1974 34.688 90.2694 34.996 90.3974 35.284C90.5254 35.564 90.7094 35.792 90.9494 35.968C91.1894 36.144 91.4774 36.232 91.8134 36.232C92.1014 36.232 92.3414 36.188 92.5334 36.1C92.7254 36.012 92.8814 35.916 93.0014 35.812C93.1214 35.7 93.2014 35.616 93.2414 35.56C93.3134 35.456 93.3694 35.396 93.4094 35.38C93.4494 35.356 93.5134 35.344 93.6014 35.344H94.1774C94.2574 35.344 94.3214 35.368 94.3694 35.416C94.4254 35.456 94.4494 35.516 94.4414 35.596C94.4334 35.716 94.3694 35.864 94.2494 36.04C94.1294 36.208 93.9574 36.376 93.7334 36.544C93.5094 36.712 93.2374 36.852 92.9174 36.964C92.5974 37.068 92.2294 37.12 91.8134 37.12ZM90.1814 33.424H93.4694V33.388C93.4694 33.028 93.4014 32.708 93.2654 32.428C93.1374 32.148 92.9494 31.928 92.7014 31.768C92.4534 31.6 92.1574 31.516 91.8134 31.516C91.4694 31.516 91.1734 31.6 90.9254 31.768C90.6854 31.928 90.5014 32.148 90.3734 32.428C90.2454 32.708 90.1814 33.028 90.1814 33.388V33.424ZM95.6723 37C95.6003 37 95.5403 36.984 95.4923 36.952C95.4523 36.92 95.4323 36.872 95.4323 36.808C95.4323 36.768 95.4523 36.716 95.4923 36.652L97.5443 33.736L95.7323 31.096C95.7163 31.072 95.7043 31.048 95.6963 31.024C95.6883 30.992 95.6843 30.968 95.6843 30.952C95.6843 30.888 95.7043 30.84 95.7443 30.808C95.7923 30.776 95.8523 30.76 95.9243 30.76H96.5483C96.6283 30.76 96.6923 30.776 96.7402 30.808C96.7883 30.84 96.8323 30.884 96.8723 30.94L98.4923 33.34H99.4043V31.036C99.4043 30.956 99.4283 30.892 99.4763 30.844C99.5323 30.788 99.6003 30.76 99.6803 30.76H100.232C100.32 30.76 100.388 30.788 100.436 30.844C100.484 30.892 100.508 30.956 100.508 31.036V33.34H101.384L103.028 30.94C103.06 30.884 103.1 30.84 103.148 30.808C103.204 30.776 103.268 30.76 103.34 30.76H103.976C104.048 30.76 104.104 30.776 104.144 30.808C104.192 30.84 104.216 30.888 104.216 30.952C104.216 30.968 104.208 30.992 104.192 31.024C104.184 31.048 104.172 31.072 104.156 31.096L102.356 33.736L104.408 36.652C104.44 36.7 104.456 36.752 104.456 36.808C104.456 36.872 104.436 36.92 104.396 36.952C104.356 36.984 104.296 37 104.216 37H103.496C103.416 37 103.348 36.984 103.292 36.952C103.244 36.92 103.204 36.876 103.172 36.82L101.42 34.3H100.508V36.724C100.508 36.804 100.484 36.872 100.436 36.928C100.388 36.976 100.32 37 100.232 37H99.6803C99.6003 37 99.5323 36.976 99.4763 36.928C99.4283 36.872 99.4043 36.804 99.4043 36.724V34.3H98.4923L96.7163 36.82C96.6923 36.876 96.6523 36.92 96.5963 36.952C96.5483 36.984 96.4843 37 96.4043 37H95.6723ZM108.102 37.12C107.278 37.12 106.622 36.868 106.134 36.364C105.646 35.852 105.378 35.156 105.33 34.276C105.322 34.172 105.318 34.04 105.318 33.88C105.318 33.712 105.322 33.576 105.33 33.472C105.362 32.904 105.494 32.408 105.726 31.984C105.958 31.552 106.274 31.22 106.674 30.988C107.082 30.756 107.558 30.64 108.102 30.64C108.71 30.64 109.218 30.768 109.626 31.024C110.042 31.28 110.358 31.644 110.574 32.116C110.79 32.588 110.898 33.14 110.898 33.772V33.976C110.898 34.064 110.87 34.132 110.814 34.18C110.766 34.228 110.702 34.252 110.622 34.252H106.47C106.47 34.26 106.47 34.276 106.47 34.3C106.47 34.324 106.47 34.344 106.47 34.36C106.486 34.688 106.558 34.996 106.686 35.284C106.814 35.564 106.998 35.792 107.238 35.968C107.478 36.144 107.766 36.232 108.102 36.232C108.39 36.232 108.63 36.188 108.822 36.1C109.014 36.012 109.17 35.916 109.29 35.812C109.41 35.7 109.49 35.616 109.53 35.56C109.602 35.456 109.658 35.396 109.698 35.38C109.738 35.356 109.802 35.344 109.89 35.344H110.466C110.546 35.344 110.61 35.368 110.658 35.416C110.714 35.456 110.738 35.516 110.73 35.596C110.722 35.716 110.658 35.864 110.538 36.04C110.418 36.208 110.246 36.376 110.022 36.544C109.798 36.712 109.526 36.852 109.206 36.964C108.886 37.068 108.518 37.12 108.102 37.12ZM106.47 33.424H109.758V33.388C109.758 33.028 109.69 32.708 109.554 32.428C109.426 32.148 109.238 31.928 108.99 31.768C108.742 31.6 108.446 31.516 108.102 31.516C107.758 31.516 107.462 31.6 107.214 31.768C106.974 31.928 106.79 32.148 106.662 32.428C106.534 32.708 106.47 33.028 106.47 33.388V33.424ZM111.973 38.32C111.893 38.32 111.825 38.292 111.769 38.236C111.721 38.188 111.697 38.124 111.697 38.044V36.316C111.697 36.236 111.721 36.172 111.769 36.124C111.825 36.068 111.893 36.04 111.973 36.04H112.033C112.249 36.032 112.433 35.912 112.585 35.68C112.737 35.44 112.853 35.068 112.933 34.564C113.013 34.052 113.053 33.388 113.053 32.572V31.036C113.053 30.956 113.077 30.892 113.125 30.844C113.181 30.788 113.249 30.76 113.329 30.76H117.157C117.237 30.76 117.301 30.788 117.349 30.844C117.405 30.892 117.433 30.956 117.433 31.036V36.016H117.997C118.085 36.016 118.153 36.044 118.201 36.1C118.249 36.148 118.273 36.212 118.273 36.292V38.044C118.273 38.124 118.249 38.188 118.201 38.236C118.153 38.292 118.085 38.32 117.997 38.32H117.433C117.353 38.32 117.285 38.292 117.229 38.236C117.181 38.188 117.157 38.124 117.157 38.044V37H112.813V38.044C112.813 38.124 112.785 38.188 112.729 38.236C112.681 38.292 112.617 38.32 112.537 38.32H111.973ZM113.461 36.04L116.317 36.016V31.72H114.145V32.704C114.145 33.552 114.085 34.248 113.965 34.792C113.845 35.328 113.677 35.744 113.461 36.04ZM119.805 37C119.725 37 119.657 36.976 119.601 36.928C119.553 36.872 119.529 36.804 119.529 36.724V31.036C119.529 30.956 119.553 30.892 119.601 30.844C119.657 30.788 119.725 30.76 119.805 30.76H120.381C120.461 30.76 120.525 30.788 120.573 30.844C120.621 30.892 120.645 30.956 120.645 31.036V33.34H123.921V31.036C123.921 30.956 123.945 30.892 123.993 30.844C124.049 30.788 124.117 30.76 124.197 30.76H124.761C124.841 30.76 124.905 30.788 124.953 30.844C125.009 30.892 125.037 30.956 125.037 31.036V36.724C125.037 36.804 125.009 36.872 124.953 36.928C124.905 36.976 124.841 37 124.761 37H124.197C124.117 37 124.049 36.976 123.993 36.928C123.945 36.872 123.921 36.804 123.921 36.724V34.3H120.645V36.724C120.645 36.804 120.621 36.872 120.573 36.928C120.525 36.976 120.461 37 120.381 37H119.805ZM129.325 37.12C128.501 37.12 127.845 36.868 127.357 36.364C126.869 35.852 126.601 35.156 126.553 34.276C126.545 34.172 126.541 34.04 126.541 33.88C126.541 33.712 126.545 33.576 126.553 33.472C126.585 32.904 126.717 32.408 126.949 31.984C127.181 31.552 127.497 31.22 127.897 30.988C128.305 30.756 128.781 30.64 129.325 30.64C129.933 30.64 130.441 30.768 130.849 31.024C131.265 31.28 131.581 31.644 131.797 32.116C132.013 32.588 132.121 33.14 132.121 33.772V33.976C132.121 34.064 132.093 34.132 132.037 34.18C131.989 34.228 131.925 34.252 131.845 34.252H127.693C127.693 34.26 127.693 34.276 127.693 34.3C127.693 34.324 127.693 34.344 127.693 34.36C127.709 34.688 127.781 34.996 127.909 35.284C128.037 35.564 128.221 35.792 128.461 35.968C128.701 36.144 128.989 36.232 129.325 36.232C129.613 36.232 129.853 36.188 130.045 36.1C130.237 36.012 130.393 35.916 130.513 35.812C130.633 35.7 130.713 35.616 130.753 35.56C130.825 35.456 130.881 35.396 130.921 35.38C130.961 35.356 131.025 35.344 131.113 35.344H131.689C131.769 35.344 131.833 35.368 131.881 35.416C131.937 35.456 131.961 35.516 131.953 35.596C131.945 35.716 131.881 35.864 131.761 36.04C131.641 36.208 131.469 36.376 131.245 36.544C131.021 36.712 130.749 36.852 130.429 36.964C130.109 37.068 129.741 37.12 129.325 37.12ZM127.693 33.424H130.981V33.388C130.981 33.028 130.913 32.708 130.777 32.428C130.649 32.148 130.461 31.928 130.213 31.768C129.965 31.6 129.669 31.516 129.325 31.516C128.981 31.516 128.685 31.6 128.437 31.768C128.197 31.928 128.013 32.148 127.885 32.428C127.757 32.708 127.693 33.028 127.693 33.388V33.424ZM133.832 37C133.752 37 133.684 36.976 133.628 36.928C133.58 36.872 133.556 36.804 133.556 36.724V31.036C133.556 30.956 133.58 30.892 133.628 30.844C133.684 30.788 133.752 30.76 133.832 30.76H136.328C137.08 30.76 137.644 30.912 138.02 31.216C138.404 31.52 138.596 31.928 138.596 32.44C138.596 32.8 138.528 33.072 138.392 33.256C138.256 33.44 138.064 33.596 137.816 33.724C138.12 33.852 138.348 34.06 138.5 34.348C138.66 34.628 138.74 34.92 138.74 35.224C138.74 35.8 138.536 36.24 138.128 36.544C137.72 36.848 137.152 37 136.424 37H133.832ZM134.66 36.124H136.328C136.712 36.124 137.02 36.052 137.252 35.908C137.492 35.756 137.612 35.528 137.612 35.224C137.612 34.904 137.504 34.672 137.288 34.528C137.072 34.376 136.752 34.3 136.328 34.3H134.66V36.124ZM134.66 33.412H136.256C136.64 33.412 136.944 33.328 137.168 33.16C137.4 32.992 137.516 32.756 137.516 32.452C137.516 32.14 137.4 31.928 137.168 31.816C136.944 31.696 136.64 31.636 136.256 31.636H134.66V33.412ZM140.559 37C140.479 37 140.411 36.976 140.355 36.928C140.307 36.872 140.283 36.804 140.283 36.724V31.036C140.283 30.956 140.307 30.892 140.355 30.844C140.411 30.788 140.479 30.76 140.559 30.76H141.135C141.215 30.76 141.279 30.788 141.327 30.844C141.375 30.892 141.399 30.956 141.399 31.036V33.34H144.675V31.036C144.675 30.956 144.699 30.892 144.747 30.844C144.803 30.788 144.871 30.76 144.951 30.76H145.515C145.595 30.76 145.659 30.788 145.707 30.844C145.763 30.892 145.791 30.956 145.791 31.036V36.724C145.791 36.804 145.763 36.872 145.707 36.928C145.659 36.976 145.595 37 145.515 37H144.951C144.871 37 144.803 36.976 144.747 36.928C144.699 36.872 144.675 36.804 144.675 36.724V34.3H141.399V36.724C141.399 36.804 141.375 36.872 141.327 36.928C141.279 36.976 141.215 37 141.135 37H140.559ZM150.151 37.12C149.543 37.12 149.035 37.004 148.627 36.772C148.219 36.54 147.907 36.22 147.691 35.812C147.475 35.396 147.355 34.924 147.331 34.396C147.323 34.26 147.319 34.088 147.319 33.88C147.319 33.664 147.323 33.492 147.331 33.364C147.355 32.828 147.475 32.356 147.691 31.948C147.915 31.54 148.231 31.22 148.639 30.988C149.047 30.756 149.551 30.64 150.151 30.64C150.751 30.64 151.255 30.756 151.663 30.988C152.071 31.22 152.383 31.54 152.599 31.948C152.823 32.356 152.947 32.828 152.971 33.364C152.979 33.492 152.983 33.664 152.983 33.88C152.983 34.088 152.979 34.26 152.971 34.396C152.947 34.924 152.827 35.396 152.611 35.812C152.395 36.22 152.083 36.54 151.675 36.772C151.267 37.004 150.759 37.12 150.151 37.12ZM150.151 36.196C150.647 36.196 151.043 36.04 151.339 35.728C151.635 35.408 151.795 34.944 151.819 34.336C151.827 34.216 151.831 34.064 151.831 33.88C151.831 33.696 151.827 33.544 151.819 33.424C151.795 32.816 151.635 32.356 151.339 32.044C151.043 31.724 150.647 31.564 150.151 31.564C149.655 31.564 149.255 31.724 148.951 32.044C148.655 32.356 148.499 32.816 148.483 33.424C148.475 33.544 148.471 33.696 148.471 33.88C148.471 34.064 148.475 34.216 148.483 34.336C148.499 34.944 148.655 35.408 148.951 35.728C149.255 36.04 149.655 36.196 150.151 36.196Z" fill="#999999"/>
</svg>
