<svg width="407" height="45" viewBox="0 0 407 45" fill="none" xmlns="http://www.w3.org/2000/svg">
<path d="M10.8731 13.7196H10.8431L10.8398 13.7196C10.5616 13.7196 10.4032 13.7196 10.2664 13.7256C7.01774 13.8674 4.41634 16.4688 4.2745 19.7175C4.26853 19.8543 4.26853 20.0127 4.26853 20.2909L4.26853 20.2941V20.3242L4.26853 20.3274C4.26853 20.6057 4.26853 20.7641 4.2745 20.9009C4.41634 24.1495 7.01774 26.7509 10.2664 26.8928C10.4032 26.8988 10.5617 26.8988 10.84 26.8988H10.8431H10.8731H10.8762C11.1545 26.8988 11.313 26.8988 11.4498 26.8928C14.6985 26.7509 17.2999 24.1495 17.4417 20.9009C17.4477 20.764 17.4477 20.6056 17.4477 20.3272V20.3242V20.2942V20.2911C17.4477 20.0128 17.4477 19.8543 17.4417 19.7175C17.2999 16.4688 14.6985 13.8674 11.4498 13.7256C11.313 13.7196 11.1546 13.7196 10.8764 13.7196L10.8731 13.7196ZM10.314 14.8153C10.4239 14.8105 10.5569 14.8103 10.8581 14.8103C11.1593 14.8103 11.2923 14.8105 11.4022 14.8153C14.0859 14.9324 16.2348 17.0814 16.352 19.7651C16.3568 19.875 16.357 20.008 16.357 20.3092C16.357 20.6103 16.3568 20.7433 16.352 20.8533C16.2348 23.537 14.0859 25.6859 11.4022 25.8031C11.2923 25.8079 11.1593 25.808 10.8581 25.808C10.5569 25.808 10.4239 25.8079 10.314 25.8031C7.63033 25.6859 5.48136 23.537 5.36419 20.8533C5.35939 20.7433 5.35926 20.6103 5.35926 20.3092C5.35926 20.008 5.35939 19.875 5.36419 19.7651C5.48136 17.0814 7.63033 14.9324 10.314 14.8153Z" fill="#443E3E" stroke="#443E3E" stroke-width="0.2"/>
<path d="M15.8275 25.5367C15.602 25.3077 15.3596 25.1327 15.147 25.0369C15.041 24.9891 14.9374 24.9587 14.8441 24.9543C14.7508 24.9499 14.6568 24.9714 14.588 25.0412C14.5193 25.1111 14.4981 25.2066 14.5024 25.3014C14.5068 25.3962 14.5367 25.5014 14.5837 25.609C14.6781 25.825 14.8503 26.0713 15.0758 26.3003L19.1565 30.4457C19.382 30.6747 19.6244 30.8496 19.837 30.9455C19.943 30.9933 20.0466 31.0237 20.1399 31.0281C20.2332 31.0325 20.3273 31.011 20.396 30.9412C20.4647 30.8713 20.4859 30.7758 20.4816 30.681C20.4772 30.5862 20.4473 30.481 20.4003 30.3734C20.3059 30.1573 20.1337 29.9111 19.9082 29.6821L15.8275 25.5367Z" fill="#443E3E" stroke="#443E3E" stroke-width="0.2" stroke-linecap="round" stroke-linejoin="round"/>
<path d="M62.4175 14.0957C61.6719 14.2255 60.7704 14.6151 60.1879 15.0565C59.2011 15.8022 58.4666 16.9597 58.1624 18.2321C57.9991 18.9296 57.9509 19.9869 58.0548 20.6621C58.3256 22.428 59.3792 24.1048 61.4307 26.0339C62.1912 26.7499 62.7217 27.2173 64.8809 29.076C66.209 30.2223 66.8767 30.7714 67.0177 30.8381C67.3071 30.9791 67.6929 30.9791 67.9823 30.8418C68.2605 30.7046 72.2152 27.3064 73.5544 26.0488C75.606 24.1234 76.6744 22.428 76.9452 20.6621C77.0491 19.9869 77.0009 18.9296 76.8376 18.2321C76.5334 16.9597 75.7989 15.8022 74.8121 15.0565C74.2148 14.6039 73.3207 14.2218 72.5454 14.0957C72.1262 14.0252 71.2692 14.0252 70.8537 14.0957C69.7036 14.296 68.6241 14.9341 67.8116 15.9024C67.6521 16.0916 67.5148 16.2474 67.5 16.2474C67.4852 16.2474 67.3479 16.0916 67.1884 15.9024C66.3759 14.9341 65.2964 14.296 64.1463 14.0957C63.7457 14.0289 62.8182 14.0289 62.4175 14.0957ZM64.2725 15.2977C64.6323 15.4015 65.2333 15.6983 65.5152 15.9098C65.864 16.1732 66.3314 16.6592 66.5837 17.019C66.7098 17.2008 66.8582 17.416 66.9138 17.4939C67.1921 17.8871 67.8079 17.8871 68.0862 17.4939C68.1418 17.416 68.2902 17.2008 68.4163 17.019C68.6686 16.6592 69.136 16.1732 69.4848 15.9098C69.7741 15.6946 70.3714 15.4015 70.7461 15.294C71.0058 15.2198 71.1245 15.2086 71.7107 15.2086C72.4415 15.2123 72.6863 15.2569 73.2502 15.4832C74.5004 15.9914 75.4353 17.1823 75.7581 18.6773C75.8545 19.1262 75.8582 20.3059 75.7618 20.7548C75.4094 22.3946 74.3001 23.8674 71.6661 26.2009C70.2972 27.414 67.5185 29.7697 67.4777 29.7549C67.4221 29.7326 64.2057 26.9762 63.3264 26.1934C60.685 23.8488 59.5944 22.3946 59.2382 20.7548C59.1418 20.3059 59.1455 19.1262 59.2419 18.6773C59.6166 16.9523 60.7592 15.6909 62.3025 15.3051C62.7143 15.1975 62.7514 15.1975 63.4006 15.2086C63.8755 15.2161 64.0499 15.2346 64.2725 15.2977Z" fill="#443E3E"/>
<rect x="90" y="10" width="25" height="25" rx="12.5" fill="#CCCCCC"/>
<path d="M102.495 27.12C101.943 27.12 101.475 27.036 101.091 26.868C100.715 26.692 100.407 26.452 100.167 26.148C99.9274 25.844 99.7514 25.496 99.6394 25.104C99.5354 24.712 99.4754 24.296 99.4594 23.856C99.4514 23.64 99.4434 23.412 99.4354 23.172C99.4354 22.932 99.4354 22.692 99.4354 22.452C99.4434 22.204 99.4514 21.968 99.4594 21.744C99.4674 21.304 99.5274 20.888 99.6394 20.496C99.7594 20.096 99.9354 19.748 100.167 19.452C100.407 19.148 100.719 18.912 101.103 18.744C101.487 18.568 101.951 18.48 102.495 18.48C103.047 18.48 103.511 18.568 103.887 18.744C104.271 18.912 104.583 19.148 104.823 19.452C105.063 19.748 105.239 20.096 105.351 20.496C105.471 20.888 105.535 21.304 105.543 21.744C105.551 21.968 105.555 22.204 105.555 22.452C105.563 22.692 105.563 22.932 105.555 23.172C105.555 23.412 105.551 23.64 105.543 23.856C105.535 24.296 105.471 24.712 105.351 25.104C105.239 25.496 105.063 25.844 104.823 26.148C104.591 26.452 104.283 26.692 103.899 26.868C103.523 27.036 103.055 27.12 102.495 27.12ZM102.495 26.1C103.119 26.1 103.579 25.896 103.875 25.488C104.179 25.072 104.335 24.508 104.343 23.796C104.359 23.564 104.367 23.34 104.367 23.124C104.367 22.9 104.367 22.68 104.367 22.464C104.367 22.24 104.359 22.02 104.343 21.804C104.335 21.108 104.179 20.552 103.875 20.136C103.579 19.712 103.119 19.5 102.495 19.5C101.879 19.5 101.419 19.712 101.115 20.136C100.819 20.552 100.663 21.108 100.647 21.804C100.647 22.02 100.643 22.24 100.635 22.464C100.635 22.68 100.635 22.9 100.635 23.124C100.643 23.34 100.647 23.564 100.647 23.796C100.663 24.508 100.823 25.072 101.127 25.488C101.431 25.896 101.887 26.1 102.495 26.1Z" fill="#443E3E"/>
<path d="M152.953 16.5336L166.676 16.5336H166.676L152.953 16.5336ZM152.953 16.5336L152.467 14.235L152.467 14.2349C152.445 14.1279 152.386 14.0318 152.301 13.9629C152.216 13.8939 152.11 13.8563 152 13.8562H152H147.549H147.499V13.9062V14.7614V14.8114H147.549H151.613L154.025 26.2193L154.074 26.209L154.025 26.2194C154.048 26.3265 154.107 26.4226 154.192 26.4915C154.277 26.5605 154.383 26.5981 154.493 26.598H164.025H164.025V26.548L152.953 16.5336ZM153.155 17.4887L166.677 17.4887C166.73 17.4887 166.782 17.5008 166.83 17.5239C166.877 17.5471 166.919 17.5808 166.951 17.6224C166.984 17.664 167.007 17.7124 167.018 17.7641C167.029 17.8157 167.028 17.8692 167.015 17.9205L167.015 17.9205M153.155 17.4887L167.015 17.9205M153.155 17.4887L154.88 25.6429H164.025H164.025C164.334 25.6437 164.634 25.5408 164.877 25.3507C165.12 25.1606 165.292 24.8943 165.366 24.5946L165.366 24.5945L167.015 17.9205M153.155 17.4887L167.015 17.9205" fill="#443E3E" stroke="#443E3E" stroke-width="0.1"/>
<path d="M158.773 29.3126V29.3126C158.773 28.9504 158.666 28.5963 158.465 28.2951C158.264 27.9939 157.978 27.7591 157.643 27.6204C157.308 27.4818 156.94 27.4455 156.585 27.5161C156.23 27.5868 155.903 27.7612 155.647 28.0173C155.391 28.2734 155.217 28.5997 155.146 28.955C155.075 29.3103 155.111 29.6785 155.25 30.0131C155.389 30.3478 155.623 30.6338 155.925 30.8351C156.226 31.0363 156.58 31.1437 156.942 31.1437H156.942C157.428 31.1432 157.893 30.9501 158.236 30.6069C158.58 30.2636 158.773 29.7981 158.773 29.3126ZM156.455 28.5837C156.594 28.4909 156.757 28.4398 156.924 28.4363L156.942 28.4363C157.174 28.4366 157.397 28.529 157.561 28.6933C157.726 28.8575 157.818 29.0803 157.818 29.3126L157.868 29.3126L157.818 29.3126C157.818 29.4859 157.767 29.6553 157.671 29.7993C157.574 29.9434 157.437 30.0557 157.277 30.122C157.117 30.1883 156.941 30.2056 156.771 30.1718C156.601 30.1379 156.445 30.0545 156.322 29.9319C156.2 29.8094 156.116 29.6532 156.083 29.4832C156.049 29.3133 156.066 29.1371 156.132 28.977C156.199 28.8169 156.311 28.68 156.455 28.5837Z" fill="#443E3E" stroke="#443E3E" stroke-width="0.1"/>
<path d="M164.887 29.3126V29.3126C164.887 28.9503 164.78 28.5962 164.579 28.295C164.378 27.9938 164.092 27.759 163.757 27.6204C163.422 27.4817 163.054 27.4455 162.699 27.5162C162.343 27.5869 162.017 27.7614 161.761 28.0176C161.505 28.2738 161.33 28.6002 161.26 28.9555C161.189 29.3109 161.226 29.6791 161.364 30.0138C161.503 30.3484 161.738 30.6344 162.039 30.8355C162.34 31.0367 162.695 31.1439 163.057 31.1438H163.057C163.542 31.143 164.008 30.9498 164.351 30.6066C164.694 30.2633 164.887 29.798 164.887 29.3126ZM162.57 28.5834C162.709 28.4906 162.872 28.4396 163.038 28.4363L163.057 28.4363C163.289 28.4368 163.512 28.5293 163.676 28.6935C163.84 28.8578 163.932 29.0804 163.932 29.3126L163.982 29.3126L163.932 29.3126C163.932 29.4859 163.881 29.6553 163.784 29.7994C163.688 29.9435 163.551 30.0558 163.391 30.1221C163.231 30.1884 163.055 30.2056 162.885 30.1717C162.715 30.1378 162.559 30.0543 162.436 29.9316C162.314 29.809 162.23 29.6528 162.196 29.4828C162.163 29.3127 162.18 29.1365 162.247 28.9764C162.313 28.8163 162.426 28.6795 162.57 28.5834Z" fill="#443E3E" stroke="#443E3E" stroke-width="0.1"/>
<rect x="180" y="10" width="25" height="25" rx="12.5" fill="#E81212"/>
<path d="M193.246 27C193.166 27 193.098 26.976 193.042 26.928C192.994 26.872 192.97 26.804 192.97 26.724V20.004L190.978 21.54C190.914 21.588 190.846 21.608 190.774 21.6C190.702 21.592 190.642 21.556 190.594 21.492L190.282 21.096C190.234 21.024 190.214 20.952 190.222 20.88C190.238 20.808 190.278 20.748 190.342 20.7L192.958 18.684C193.014 18.644 193.066 18.62 193.114 18.612C193.162 18.604 193.214 18.6 193.27 18.6H193.882C193.962 18.6 194.026 18.628 194.074 18.684C194.122 18.732 194.146 18.796 194.146 18.876V26.724C194.146 26.804 194.122 26.872 194.074 26.928C194.026 26.976 193.962 27 193.882 27H193.246Z" fill="white"/>
<rect width="172" height="44" transform="translate(235 0.5)" fill="#E81212"/>
<path d="M268.576 26.62C268.088 26.62 267.656 26.564 267.28 26.452C266.904 26.34 266.588 26.188 266.332 25.996C266.076 25.796 265.872 25.568 265.72 25.312C265.576 25.056 265.492 24.78 265.468 24.484C265.46 24.412 265.48 24.356 265.528 24.316C265.584 24.276 265.648 24.256 265.72 24.256H266.32C266.392 24.256 266.456 24.272 266.512 24.304C266.576 24.336 266.624 24.404 266.656 24.508C266.752 24.828 266.96 25.092 267.28 25.3C267.6 25.5 268.028 25.6 268.564 25.6C268.94 25.6 269.28 25.544 269.584 25.432C269.888 25.312 270.132 25.144 270.316 24.928C270.5 24.704 270.592 24.436 270.592 24.124C270.592 23.652 270.42 23.288 270.076 23.032C269.74 22.768 269.28 22.636 268.696 22.636H267.832C267.752 22.636 267.688 22.612 267.64 22.564C267.592 22.508 267.568 22.44 267.568 22.36V21.94C267.568 21.852 267.592 21.784 267.64 21.736C267.688 21.68 267.752 21.652 267.832 21.652H268.648C269.144 21.652 269.544 21.544 269.848 21.328C270.16 21.112 270.316 20.768 270.316 20.296C270.316 20.032 270.236 19.804 270.076 19.612C269.924 19.42 269.72 19.272 269.464 19.168C269.208 19.056 268.92 19 268.6 19C268.112 19 267.704 19.088 267.376 19.264C267.048 19.44 266.844 19.724 266.764 20.116C266.74 20.204 266.704 20.268 266.656 20.308C266.608 20.34 266.548 20.356 266.476 20.356H265.828C265.756 20.356 265.692 20.332 265.636 20.284C265.588 20.236 265.568 20.176 265.576 20.104C265.6 19.8 265.684 19.52 265.828 19.264C265.972 19 266.168 18.772 266.416 18.58C266.672 18.388 266.984 18.24 267.352 18.136C267.72 18.032 268.14 17.98 268.612 17.98C269.26 17.98 269.796 18.088 270.22 18.304C270.644 18.52 270.964 18.8 271.18 19.144C271.396 19.48 271.504 19.844 271.504 20.236C271.504 20.476 271.472 20.712 271.408 20.944C271.352 21.176 271.252 21.388 271.108 21.58C270.972 21.772 270.784 21.94 270.544 22.084C270.832 22.22 271.064 22.396 271.24 22.612C271.424 22.82 271.56 23.056 271.648 23.32C271.744 23.576 271.792 23.852 271.792 24.148C271.792 24.636 271.66 25.064 271.396 25.432C271.14 25.8 270.772 26.092 270.292 26.308C269.812 26.516 269.24 26.62 268.576 26.62ZM272.933 26.5C272.869 26.5 272.813 26.476 272.765 26.428C272.717 26.38 272.693 26.324 272.693 26.26C272.693 26.22 272.697 26.176 272.705 26.128L275.681 18.364C275.713 18.284 275.757 18.22 275.813 18.172C275.869 18.124 275.953 18.1 276.065 18.1H276.881C276.985 18.1 277.065 18.124 277.121 18.172C277.185 18.22 277.233 18.284 277.265 18.364L280.229 26.128C280.245 26.176 280.253 26.22 280.253 26.26C280.253 26.324 280.229 26.38 280.181 26.428C280.133 26.476 280.077 26.5 280.013 26.5H279.401C279.305 26.5 279.233 26.476 279.185 26.428C279.145 26.38 279.117 26.336 279.101 26.296L278.441 24.592H274.505L273.845 26.296C273.837 26.336 273.809 26.38 273.761 26.428C273.713 26.476 273.641 26.5 273.545 26.5H272.933ZM274.853 23.56H278.093L276.473 19.3L274.853 23.56ZM281.812 26.5C281.724 26.5 281.656 26.476 281.608 26.428C281.56 26.372 281.536 26.304 281.536 26.224V18.388C281.536 18.3 281.56 18.232 281.608 18.184C281.656 18.128 281.724 18.1 281.812 18.1H282.424C282.512 18.1 282.58 18.128 282.628 18.184C282.684 18.232 282.712 18.3 282.712 18.388V21.7H284.068L286.204 18.292C286.244 18.228 286.296 18.18 286.36 18.148C286.424 18.116 286.508 18.1 286.612 18.1H287.26C287.348 18.1 287.412 18.124 287.452 18.172C287.492 18.22 287.512 18.276 287.512 18.34C287.512 18.388 287.492 18.44 287.452 18.496L285.148 22.168L287.68 26.08C287.704 26.112 287.716 26.156 287.716 26.212C287.716 26.292 287.688 26.36 287.632 26.416C287.584 26.472 287.52 26.5 287.44 26.5H286.756C286.668 26.5 286.6 26.484 286.552 26.452C286.512 26.412 286.476 26.368 286.444 26.32L284.116 22.78H282.712V26.224C282.712 26.304 282.684 26.372 282.628 26.428C282.58 26.476 282.512 26.5 282.424 26.5H281.812ZM288.648 26.5C288.584 26.5 288.528 26.476 288.48 26.428C288.432 26.38 288.408 26.324 288.408 26.26C288.408 26.22 288.412 26.176 288.42 26.128L291.396 18.364C291.428 18.284 291.472 18.22 291.528 18.172C291.584 18.124 291.668 18.1 291.78 18.1H292.596C292.7 18.1 292.78 18.124 292.836 18.172C292.9 18.22 292.948 18.284 292.98 18.364L295.944 26.128C295.96 26.176 295.968 26.22 295.968 26.26C295.968 26.324 295.944 26.38 295.896 26.428C295.848 26.476 295.792 26.5 295.728 26.5H295.116C295.02 26.5 294.948 26.476 294.9 26.428C294.86 26.38 294.832 26.336 294.816 26.296L294.156 24.592H290.22L289.56 26.296C289.552 26.336 289.524 26.38 289.476 26.428C289.428 26.476 289.356 26.5 289.26 26.5H288.648ZM290.568 23.56H293.808L292.188 19.3L290.568 23.56ZM299.783 26.62C299.295 26.62 298.863 26.564 298.487 26.452C298.111 26.34 297.795 26.188 297.539 25.996C297.283 25.796 297.079 25.568 296.927 25.312C296.783 25.056 296.699 24.78 296.675 24.484C296.667 24.412 296.687 24.356 296.735 24.316C296.791 24.276 296.855 24.256 296.927 24.256H297.527C297.599 24.256 297.663 24.272 297.719 24.304C297.783 24.336 297.831 24.404 297.863 24.508C297.959 24.828 298.167 25.092 298.487 25.3C298.807 25.5 299.235 25.6 299.771 25.6C300.147 25.6 300.487 25.544 300.791 25.432C301.095 25.312 301.339 25.144 301.523 24.928C301.707 24.704 301.799 24.436 301.799 24.124C301.799 23.652 301.627 23.288 301.283 23.032C300.947 22.768 300.487 22.636 299.903 22.636H299.039C298.959 22.636 298.895 22.612 298.847 22.564C298.799 22.508 298.775 22.44 298.775 22.36V21.94C298.775 21.852 298.799 21.784 298.847 21.736C298.895 21.68 298.959 21.652 299.039 21.652H299.855C300.351 21.652 300.751 21.544 301.055 21.328C301.367 21.112 301.523 20.768 301.523 20.296C301.523 20.032 301.443 19.804 301.283 19.612C301.131 19.42 300.927 19.272 300.671 19.168C300.415 19.056 300.127 19 299.807 19C299.319 19 298.911 19.088 298.583 19.264C298.255 19.44 298.051 19.724 297.971 20.116C297.947 20.204 297.911 20.268 297.863 20.308C297.815 20.34 297.755 20.356 297.683 20.356H297.035C296.963 20.356 296.899 20.332 296.843 20.284C296.795 20.236 296.775 20.176 296.783 20.104C296.807 19.8 296.891 19.52 297.035 19.264C297.179 19 297.375 18.772 297.623 18.58C297.879 18.388 298.191 18.24 298.559 18.136C298.927 18.032 299.347 17.98 299.819 17.98C300.467 17.98 301.003 18.088 301.427 18.304C301.851 18.52 302.171 18.8 302.387 19.144C302.603 19.48 302.711 19.844 302.711 20.236C302.711 20.476 302.679 20.712 302.615 20.944C302.559 21.176 302.459 21.388 302.315 21.58C302.179 21.772 301.991 21.94 301.751 22.084C302.039 22.22 302.271 22.396 302.447 22.612C302.631 22.82 302.767 23.056 302.855 23.32C302.951 23.576 302.999 23.852 302.999 24.148C302.999 24.636 302.867 25.064 302.603 25.432C302.347 25.8 301.979 26.092 301.499 26.308C301.019 26.516 300.447 26.62 299.783 26.62ZM304.14 26.5C304.076 26.5 304.02 26.476 303.972 26.428C303.924 26.38 303.9 26.324 303.9 26.26C303.9 26.22 303.904 26.176 303.912 26.128L306.888 18.364C306.92 18.284 306.964 18.22 307.02 18.172C307.076 18.124 307.16 18.1 307.272 18.1H308.088C308.192 18.1 308.272 18.124 308.328 18.172C308.392 18.22 308.44 18.284 308.472 18.364L311.436 26.128C311.452 26.176 311.46 26.22 311.46 26.26C311.46 26.324 311.436 26.38 311.388 26.428C311.34 26.476 311.284 26.5 311.22 26.5H310.608C310.512 26.5 310.44 26.476 310.392 26.428C310.352 26.38 310.324 26.336 310.308 26.296L309.648 24.592H305.712L305.052 26.296C305.044 26.336 305.016 26.38 304.968 26.428C304.92 26.476 304.848 26.5 304.752 26.5H304.14ZM306.06 23.56H309.3L307.68 19.3L306.06 23.56ZM314.855 26.5C314.775 26.5 314.707 26.476 314.651 26.428C314.603 26.372 314.579 26.304 314.579 26.224V19.168H312.275C312.195 19.168 312.127 19.144 312.071 19.096C312.023 19.04 311.999 18.972 311.999 18.892V18.388C311.999 18.3 312.023 18.232 312.071 18.184C312.127 18.128 312.195 18.1 312.275 18.1H318.059C318.147 18.1 318.215 18.128 318.263 18.184C318.319 18.232 318.347 18.3 318.347 18.388V18.892C318.347 18.972 318.319 19.04 318.263 19.096C318.215 19.144 318.147 19.168 318.059 19.168H315.767V26.224C315.767 26.304 315.739 26.372 315.683 26.428C315.635 26.476 315.567 26.5 315.479 26.5H314.855ZM319.968 26.5C319.88 26.5 319.812 26.476 319.764 26.428C319.716 26.372 319.692 26.304 319.692 26.224V18.376C319.692 18.296 319.716 18.232 319.764 18.184C319.812 18.128 319.88 18.1 319.968 18.1H320.58C320.668 18.1 320.736 18.128 320.784 18.184C320.84 18.232 320.868 18.296 320.868 18.376V21.292H322.692C323.572 21.292 324.248 21.512 324.72 21.952C325.192 22.384 325.428 23.02 325.428 23.86C325.428 24.316 325.328 24.748 325.128 25.156C324.936 25.556 324.636 25.88 324.228 26.128C323.828 26.376 323.316 26.5 322.692 26.5H319.968ZM320.868 25.492H322.596C323.116 25.492 323.52 25.34 323.808 25.036C324.096 24.732 324.24 24.332 324.24 23.836C324.24 23.324 324.104 22.94 323.832 22.684C323.56 22.42 323.148 22.288 322.596 22.288H320.868V25.492ZM332.396 26.62C331.908 26.62 331.476 26.564 331.1 26.452C330.724 26.34 330.408 26.188 330.152 25.996C329.896 25.796 329.692 25.568 329.54 25.312C329.396 25.056 329.312 24.78 329.288 24.484C329.28 24.412 329.3 24.356 329.348 24.316C329.404 24.276 329.468 24.256 329.54 24.256H330.14C330.212 24.256 330.276 24.272 330.332 24.304C330.396 24.336 330.444 24.404 330.476 24.508C330.572 24.828 330.78 25.092 331.1 25.3C331.42 25.5 331.848 25.6 332.384 25.6C332.76 25.6 333.1 25.544 333.404 25.432C333.708 25.312 333.952 25.144 334.136 24.928C334.32 24.704 334.412 24.436 334.412 24.124C334.412 23.652 334.24 23.288 333.896 23.032C333.56 22.768 333.1 22.636 332.516 22.636H331.652C331.572 22.636 331.508 22.612 331.46 22.564C331.412 22.508 331.388 22.44 331.388 22.36V21.94C331.388 21.852 331.412 21.784 331.46 21.736C331.508 21.68 331.572 21.652 331.652 21.652H332.468C332.964 21.652 333.364 21.544 333.668 21.328C333.98 21.112 334.136 20.768 334.136 20.296C334.136 20.032 334.056 19.804 333.896 19.612C333.744 19.42 333.54 19.272 333.284 19.168C333.028 19.056 332.74 19 332.42 19C331.932 19 331.524 19.088 331.196 19.264C330.868 19.44 330.664 19.724 330.584 20.116C330.56 20.204 330.524 20.268 330.476 20.308C330.428 20.34 330.368 20.356 330.296 20.356H329.648C329.576 20.356 329.512 20.332 329.456 20.284C329.408 20.236 329.388 20.176 329.396 20.104C329.42 19.8 329.504 19.52 329.648 19.264C329.792 19 329.988 18.772 330.236 18.58C330.492 18.388 330.804 18.24 331.172 18.136C331.54 18.032 331.96 17.98 332.432 17.98C333.08 17.98 333.616 18.088 334.04 18.304C334.464 18.52 334.784 18.8 335 19.144C335.216 19.48 335.324 19.844 335.324 20.236C335.324 20.476 335.292 20.712 335.228 20.944C335.172 21.176 335.072 21.388 334.928 21.58C334.792 21.772 334.604 21.94 334.364 22.084C334.652 22.22 334.884 22.396 335.06 22.612C335.244 22.82 335.38 23.056 335.468 23.32C335.564 23.576 335.612 23.852 335.612 24.148C335.612 24.636 335.48 25.064 335.216 25.432C334.96 25.8 334.592 26.092 334.112 26.308C333.632 26.516 333.06 26.62 332.396 26.62ZM337.593 26.5C337.505 26.5 337.437 26.476 337.389 26.428C337.341 26.372 337.317 26.304 337.317 26.224V18.388C337.317 18.3 337.341 18.232 337.389 18.184C337.437 18.128 337.505 18.1 337.593 18.1H340.881C341.481 18.1 341.969 18.2 342.345 18.4C342.729 18.592 343.009 18.856 343.185 19.192C343.369 19.528 343.461 19.904 343.461 20.32C343.461 20.648 343.405 20.932 343.293 21.172C343.189 21.404 343.057 21.596 342.897 21.748C342.737 21.892 342.581 22.004 342.429 22.084C342.741 22.236 343.017 22.484 343.257 22.828C343.505 23.172 343.629 23.588 343.629 24.076C343.629 24.516 343.529 24.92 343.329 25.288C343.129 25.656 342.829 25.952 342.429 26.176C342.037 26.392 341.549 26.5 340.965 26.5H337.593ZM338.493 25.528H340.809C341.329 25.528 341.729 25.388 342.009 25.108C342.289 24.828 342.429 24.484 342.429 24.076C342.429 23.652 342.289 23.304 342.009 23.032C341.729 22.752 341.329 22.612 340.809 22.612H338.493V25.528ZM338.493 21.652H340.701C341.213 21.652 341.601 21.536 341.865 21.304C342.129 21.064 342.261 20.74 342.261 20.332C342.261 19.924 342.129 19.612 341.865 19.396C341.601 19.18 341.213 19.072 340.701 19.072H338.493V21.652ZM348.345 26.62C347.665 26.62 347.081 26.504 346.593 26.272C346.105 26.032 345.729 25.668 345.465 25.18C345.201 24.684 345.053 24.064 345.021 23.32C345.013 22.968 345.009 22.632 345.009 22.312C345.009 21.984 345.013 21.644 345.021 21.292C345.053 20.556 345.205 19.944 345.477 19.456C345.757 18.96 346.141 18.592 346.629 18.352C347.125 18.104 347.697 17.98 348.345 17.98C349.001 17.98 349.573 18.104 350.061 18.352C350.557 18.592 350.945 18.96 351.225 19.456C351.505 19.944 351.657 20.556 351.681 21.292C351.697 21.644 351.705 21.984 351.705 22.312C351.705 22.632 351.697 22.968 351.681 23.32C351.657 24.064 351.509 24.684 351.237 25.18C350.973 25.668 350.597 26.032 350.109 26.272C349.621 26.504 349.033 26.62 348.345 26.62ZM348.345 25.6C348.961 25.6 349.461 25.416 349.845 25.048C350.237 24.68 350.449 24.084 350.481 23.26C350.497 22.9 350.505 22.58 350.505 22.3C350.505 22.012 350.497 21.692 350.481 21.34C350.465 20.788 350.361 20.34 350.169 19.996C349.985 19.652 349.737 19.4 349.425 19.24C349.113 19.08 348.753 19 348.345 19C347.953 19 347.601 19.08 347.289 19.24C346.977 19.4 346.725 19.652 346.533 19.996C346.349 20.34 346.245 20.788 346.221 21.34C346.213 21.692 346.209 22.012 346.209 22.3C346.209 22.58 346.213 22.9 346.221 23.26C346.253 24.084 346.465 24.68 346.857 25.048C347.249 25.416 347.745 25.6 348.345 25.6ZM353.73 26.5C353.642 26.5 353.574 26.476 353.526 26.428C353.478 26.372 353.454 26.304 353.454 26.224V18.388C353.454 18.3 353.478 18.232 353.526 18.184C353.574 18.128 353.642 18.1 353.73 18.1H354.342C354.43 18.1 354.498 18.128 354.546 18.184C354.602 18.232 354.63 18.3 354.63 18.388V21.7H358.758V18.388C358.758 18.3 358.782 18.232 358.83 18.184C358.886 18.128 358.954 18.1 359.034 18.1H359.646C359.734 18.1 359.802 18.128 359.85 18.184C359.906 18.232 359.934 18.3 359.934 18.388V26.224C359.934 26.304 359.906 26.372 359.85 26.428C359.802 26.476 359.734 26.5 359.646 26.5H359.034C358.954 26.5 358.886 26.476 358.83 26.428C358.782 26.372 358.758 26.304 358.758 26.224V22.78H354.63V26.224C354.63 26.304 354.602 26.372 354.546 26.428C354.498 26.476 354.43 26.5 354.342 26.5H353.73ZM365.021 26.62C364.341 26.62 363.757 26.504 363.269 26.272C362.781 26.032 362.405 25.668 362.141 25.18C361.877 24.684 361.729 24.064 361.697 23.32C361.689 22.968 361.685 22.632 361.685 22.312C361.685 21.984 361.689 21.644 361.697 21.292C361.729 20.556 361.881 19.944 362.153 19.456C362.433 18.96 362.817 18.592 363.305 18.352C363.801 18.104 364.373 17.98 365.021 17.98C365.677 17.98 366.249 18.104 366.737 18.352C367.233 18.592 367.621 18.96 367.901 19.456C368.181 19.944 368.333 20.556 368.357 21.292C368.373 21.644 368.381 21.984 368.381 22.312C368.381 22.632 368.373 22.968 368.357 23.32C368.333 24.064 368.185 24.684 367.913 25.18C367.649 25.668 367.273 26.032 366.785 26.272C366.297 26.504 365.709 26.62 365.021 26.62ZM365.021 25.6C365.637 25.6 366.137 25.416 366.521 25.048C366.913 24.68 367.125 24.084 367.157 23.26C367.173 22.9 367.181 22.58 367.181 22.3C367.181 22.012 367.173 21.692 367.157 21.34C367.141 20.788 367.037 20.34 366.845 19.996C366.661 19.652 366.413 19.4 366.101 19.24C365.789 19.08 365.429 19 365.021 19C364.629 19 364.277 19.08 363.965 19.24C363.653 19.4 363.401 19.652 363.209 19.996C363.025 20.34 362.921 20.788 362.897 21.34C362.889 21.692 362.885 22.012 362.885 22.3C362.885 22.58 362.889 22.9 362.897 23.26C362.929 24.084 363.141 24.68 363.533 25.048C363.925 25.416 364.421 25.6 365.021 25.6ZM370.406 26.5C370.318 26.5 370.25 26.476 370.202 26.428C370.154 26.372 370.13 26.304 370.13 26.224V18.388C370.13 18.3 370.154 18.232 370.202 18.184C370.25 18.128 370.318 18.1 370.406 18.1H371.018C371.106 18.1 371.174 18.128 371.222 18.184C371.278 18.232 371.306 18.3 371.306 18.388V21.7H372.662L374.798 18.292C374.838 18.228 374.89 18.18 374.954 18.148C375.018 18.116 375.102 18.1 375.206 18.1H375.854C375.942 18.1 376.006 18.124 376.046 18.172C376.086 18.22 376.106 18.276 376.106 18.34C376.106 18.388 376.086 18.44 376.046 18.496L373.742 22.168L376.274 26.08C376.298 26.112 376.31 26.156 376.31 26.212C376.31 26.292 376.282 26.36 376.226 26.416C376.178 26.472 376.114 26.5 376.034 26.5H375.35C375.262 26.5 375.194 26.484 375.146 26.452C375.106 26.412 375.07 26.368 375.038 26.32L372.71 22.78H371.306V26.224C371.306 26.304 371.278 26.372 371.222 26.428C371.174 26.476 371.106 26.5 371.018 26.5H370.406Z" fill="white"/>
</svg>
