<svg width="130" height="30" viewBox="0 0 130 30" fill="none" xmlns="http://www.w3.org/2000/svg">
<path d="M17.6076 8.17969H12.3985C10.0749 8.17969 8.18762 10.067 8.18762 12.3906V17.5997C8.18762 19.9233 10.0749 21.8106 12.3985 21.8106H17.6076C19.9313 21.8106 21.8185 19.9233 21.8185 17.5997V12.3906C21.8185 10.067 19.9313 8.17969 17.6076 8.17969ZM20.2967 17.6051C20.2967 19.0888 19.0913 20.2997 17.6022 20.2997H12.3931C10.9094 20.2997 9.69853 19.0942 9.69853 17.6051V12.3961C9.69853 10.9124 10.904 9.70151 12.3931 9.70151H17.6022C19.0858 9.70151 20.2967 10.907 20.2967 12.3961V17.6051Z" fill="#E81212"/>
<path d="M15.0006 11.5125C13.0806 11.5125 11.5151 13.078 11.5151 14.998C11.5151 16.918 13.0806 18.4834 15.0006 18.4834C16.9206 18.4834 18.486 16.918 18.486 14.998C18.486 13.078 16.9206 11.5125 15.0006 11.5125ZM15.0006 17.1143C13.8333 17.1143 12.8842 16.1652 12.8842 14.998C12.8842 13.8307 13.8333 12.8816 15.0006 12.8816C16.1679 12.8816 17.117 13.8307 17.117 14.998C17.117 16.1652 16.1679 17.1143 15.0006 17.1143Z" fill="#E81212"/>
<path d="M18.7512 11.892C19.0723 11.84 19.2904 11.5375 19.2384 11.2163C19.1863 10.8952 18.8838 10.6771 18.5627 10.7292C18.2416 10.7812 18.0235 11.0837 18.0755 11.4049C18.1276 11.726 18.4301 11.9441 18.7512 11.892Z" fill="#E81212"/>
<path d="M72.2 14.1152C72.2 13.8061 72.1474 13.4455 72.1474 13.0333C72.0949 12.6212 72.0423 12.2091 71.9898 11.8485C71.8847 11.4364 71.727 11.1273 71.4117 10.8697C71.1489 10.6121 70.781 10.4576 70.4131 10.4061C69.2044 10.2515 67.4175 10.2 65 10.2C62.5825 10.2 60.7431 10.2515 59.5868 10.4061C59.219 10.4576 58.8511 10.6121 58.5883 10.8697C58.3255 11.1273 58.1153 11.4364 58.0102 11.8485C57.9051 12.2091 57.8525 12.5697 57.8525 13.0333C57.8 13.4455 57.8 13.8061 57.8 14.1152C57.8 14.4242 57.8 14.7849 57.8 15.3C57.8 15.8152 57.8 16.2273 57.8 16.4849C57.8 16.7939 57.8525 17.1546 57.8525 17.5667C57.9051 17.9788 57.9576 18.3909 58.0102 18.7515C58.1153 19.1636 58.273 19.4727 58.5883 19.7303C58.8511 19.9879 59.219 20.1424 59.5868 20.1939C60.7956 20.3485 62.5825 20.4 65 20.4C67.4175 20.4 69.2569 20.3485 70.4131 20.1939C70.781 20.1424 71.1489 19.9879 71.4117 19.7303C71.6744 19.4727 71.8847 19.1636 71.9898 18.7515C72.0949 18.3909 72.1474 18.0303 72.1474 17.5667C72.2 17.1546 72.2 16.7939 72.2 16.4849C72.2 16.1758 72.2 15.8152 72.2 15.3C72.2 14.7849 72.2 14.3727 72.2 14.1152ZM67.7854 15.7121L63.6336 18.2364C63.581 18.2879 63.4759 18.3394 63.3708 18.3394C63.2657 18.3394 63.2131 18.3394 63.108 18.2879C62.9504 18.1849 62.8452 18.0303 62.8452 17.8243V12.7243C62.8452 12.5182 62.9504 12.3636 63.108 12.2606C63.2657 12.1576 63.4759 12.1576 63.6336 12.2606L67.7854 14.7849C67.9431 14.8879 68.0482 15.0424 68.0482 15.197C68.0482 15.3515 67.9431 15.6091 67.7854 15.7121Z" fill="#E81212"/>
<path d="M122.655 18.337C122.655 18.2794 122.593 18.2794 122.593 18.2219C122.345 17.7616 121.786 17.1863 121.041 16.5534C120.669 16.2657 120.483 16.0356 120.359 15.9205C120.172 15.6904 120.172 15.5178 120.234 15.2877C120.297 15.1151 120.545 14.8274 120.979 14.3096C121.228 14.0219 121.352 13.8493 121.538 13.6767C122.469 12.526 122.903 11.7781 122.779 11.4329L122.717 11.3753C122.655 11.3178 122.593 11.2603 122.469 11.2603C122.345 11.2027 122.159 11.2027 121.972 11.2603H119.614C119.552 11.2603 119.552 11.2603 119.428 11.2603C119.365 11.2603 119.303 11.2603 119.303 11.2603H119.241H119.179L119.117 11.3178C119.055 11.3753 119.055 11.3753 119.055 11.4329C118.807 12.0657 118.497 12.5835 118.186 13.1589C118 13.4466 117.814 13.7342 117.628 13.9644C117.441 14.1945 117.317 14.3671 117.193 14.4822C117.069 14.5972 116.945 14.6548 116.883 14.7698C116.821 14.8274 116.697 14.8849 116.697 14.8274C116.634 14.8274 116.572 14.8274 116.572 14.7698C116.51 14.7123 116.448 14.6548 116.386 14.5972C116.324 14.5397 116.324 14.4246 116.262 14.3096C116.262 14.1945 116.262 14.0794 116.262 14.0219C116.262 13.9644 116.262 13.7918 116.262 13.6767C116.262 13.5041 116.262 13.389 116.262 13.3315C116.262 13.1589 116.262 12.9288 116.262 12.6986C116.262 12.4685 116.262 12.2959 116.262 12.1808C116.262 12.0657 116.262 11.8931 116.262 11.7781C116.262 11.6055 116.262 11.4904 116.262 11.4329C116.262 11.3753 116.2 11.2603 116.2 11.2027C116.138 11.1452 116.076 11.0877 116.014 11.0301C115.952 10.9726 115.828 10.9726 115.765 10.9151C115.455 10.8575 115.083 10.8 114.648 10.8C113.655 10.8 112.972 10.8575 112.724 10.9726C112.6 11.0301 112.476 11.0877 112.414 11.2027C112.29 11.3178 112.29 11.3753 112.352 11.3753C112.662 11.4329 112.91 11.5479 113.034 11.7205L113.097 11.8356C113.159 11.8931 113.159 12.0082 113.221 12.1808C113.283 12.3534 113.283 12.526 113.283 12.7561C113.283 13.1014 113.283 13.4466 113.283 13.6767C113.283 13.9644 113.221 14.137 113.221 14.3096C113.221 14.4822 113.159 14.5972 113.097 14.6548C113.034 14.7699 113.034 14.8274 112.972 14.8274C112.972 14.8274 112.972 14.8849 112.91 14.8849C112.848 14.8849 112.786 14.9425 112.662 14.9425C112.6 14.9425 112.476 14.8849 112.414 14.8274C112.29 14.7699 112.166 14.6548 112.103 14.5397C111.979 14.4246 111.855 14.252 111.731 14.0219C111.607 13.7918 111.421 13.5616 111.297 13.2164L111.172 12.9863C111.11 12.8712 110.986 12.6411 110.862 12.3534C110.738 12.0657 110.614 11.8356 110.49 11.5479C110.428 11.4329 110.366 11.3753 110.303 11.3178H110.241C110.241 11.3178 110.179 11.2603 110.117 11.2603C110.055 11.2603 109.993 11.2027 109.931 11.2027H107.697C107.448 11.2027 107.324 11.2603 107.262 11.3178L107.2 11.3753C107.2 11.3753 107.2 11.4329 107.2 11.4904C107.2 11.5479 107.2 11.6055 107.262 11.7205C107.572 12.4109 107.945 13.1014 108.317 13.7918C108.69 14.4246 109.062 15 109.31 15.4027C109.621 15.8055 109.869 16.2082 110.179 16.5534C110.49 16.8986 110.676 17.1288 110.738 17.2438C110.862 17.3589 110.924 17.4164 110.986 17.474L111.172 17.6466C111.297 17.7616 111.483 17.9342 111.731 18.1068C111.979 18.2794 112.29 18.452 112.6 18.6246C112.91 18.7972 113.283 18.9123 113.655 19.0274C114.09 19.1425 114.462 19.2 114.834 19.1425H115.765C115.952 19.1425 116.076 19.0849 116.2 18.9699L116.262 18.9123C116.262 18.8548 116.324 18.8548 116.324 18.7972C116.324 18.7397 116.324 18.6822 116.324 18.5671C116.324 18.337 116.324 18.1644 116.386 17.9918C116.448 17.8192 116.448 17.7041 116.51 17.589C116.572 17.474 116.634 17.4164 116.697 17.3589C116.759 17.3014 116.821 17.2438 116.821 17.2438H116.883C117.007 17.1863 117.193 17.2438 117.317 17.3589C117.503 17.474 117.69 17.6466 117.814 17.8192C117.938 17.9918 118.124 18.1644 118.372 18.3945C118.621 18.6246 118.807 18.7973 118.931 18.8548L119.117 18.9699C119.241 19.0274 119.365 19.0849 119.552 19.1425C119.738 19.2 119.862 19.2 119.986 19.2L122.096 19.1425C122.283 19.1425 122.469 19.0849 122.593 19.0274C122.717 18.9699 122.779 18.9123 122.779 18.7972C122.779 18.7397 122.779 18.6246 122.779 18.5671C122.655 18.452 122.655 18.3945 122.655 18.337Z" fill="#E81212"/>
</svg>
